<mxfile host="app.diagrams.net" modified="2021-07-30T06:49:39.268Z" agent="5.0 (Macintosh; Intel Mac OS X 10_15_7) AppleWebKit/537.36 (KHTML, like Gecko) Chrome/92.0.4515.107 Safari/537.36" etag="bYkBJh_4zFXvdjb9nLuy" version="14.9.2" type="github">
  <diagram id="_rDEUoHLf9zKx41AQDqh" name="Page-1">
    <mxGraphModel dx="5043" dy="2943" grid="1" gridSize="10" guides="1" tooltips="1" connect="1" arrows="1" fold="1" page="1" pageScale="1" pageWidth="827" pageHeight="1169" math="0" shadow="0">
      <root>
        <mxCell id="0" />
        <mxCell id="1" parent="0" />
        <mxCell id="Z_htnbCvDEiTUhGgbJoy-1" value="Customer(E)" style="html=1;overflow=block;blockSpacing=1;whiteSpace=wrap;swimlane;resizeParent=1;resizeParentMax=0;resizeLast=0;collapsible=0;marginBottom=0;fontStyle=0;swimlaneFillColor=#ffffff;startSize=30;whiteSpace=wrap;fontSize=16.7;fontFamily=Liberation Serif;fillColor=#fff2cc;whiteSpace=wrap;spacing=0;strokeColor=#d6b656;strokeOpacity=100;rounded=1;absoluteArcSize=1;arcSize=9;strokeWidth=2.3;" vertex="1" parent="1">
          <mxGeometry x="-838.96" y="513" width="480" height="398" as="geometry" />
        </mxCell>
        <mxCell id="Z_htnbCvDEiTUhGgbJoy-2" value="PK" style="strokeColor=none;part=1;resizeHeight=0;align=center;verticalAlign=top;spacingLeft=4;spacingRight=4;overflow=hidden;rotatable=0;points=[[0,0.5],[1,0.5]];portConstraint=eastwest;whiteSpace=wrap;swimlaneFillColor=#ffffff;whiteSpace=wrap;fontSize=16.7;fontFamily=Liberation Serif;fontColor=#333333;fillColor=none;strokeOpacity=100;whiteSpace=wrap;spacing=0;rounded=1;absoluteArcSize=1;arcSize=9;strokeWidth=2.3;" vertex="1" parent="Z_htnbCvDEiTUhGgbJoy-1">
          <mxGeometry y="30" width="30" height="27.75" as="geometry" />
        </mxCell>
        <mxCell id="Z_htnbCvDEiTUhGgbJoy-3" value="id" style="shape=partialRectangle;top=0;right=0;bottom=0;part=1;resizeHeight=0;align=left;verticalAlign=top;spacingLeft=4;spacingRight=4;overflow=hidden;rotatable=0;points=[[0,0.5],[1,0.5]];portConstraint=eastwest;whiteSpace=wrap;swimlaneFillColor=#ffffff;whiteSpace=wrap;fontSize=16.7;fontFamily=Liberation Serif;fontColor=#333333;fillColor=none;strokeOpacity=100;whiteSpace=wrap;spacing=0;strokeColor=#5e5e5e;rounded=1;absoluteArcSize=1;arcSize=9;strokeWidth=2.3;" vertex="1" parent="Z_htnbCvDEiTUhGgbJoy-1">
          <mxGeometry x="30" y="30" width="350" height="27.75" as="geometry" />
        </mxCell>
        <mxCell id="Z_htnbCvDEiTUhGgbJoy-4" value="serial" style="shape=partialRectangle;top=0;right=0;bottom=0;part=1;resizeHeight=0;align=left;verticalAlign=top;spacingLeft=4;spacingRight=4;overflow=hidden;rotatable=0;points=[[0,0.5],[1,0.5]];portConstraint=eastwest;whiteSpace=wrap;swimlaneFillColor=#ffffff;whiteSpace=wrap;fontSize=16.7;fontFamily=Liberation Serif;fontColor=#333333;fillColor=none;strokeOpacity=100;whiteSpace=wrap;spacing=0;strokeColor=#5e5e5e;rounded=1;absoluteArcSize=1;arcSize=9;strokeWidth=2.3;" vertex="1" parent="Z_htnbCvDEiTUhGgbJoy-1">
          <mxGeometry x="380" y="30" width="70" height="27.75" as="geometry" />
        </mxCell>
        <mxCell id="Z_htnbCvDEiTUhGgbJoy-5" value="" style="strokeColor=none;part=1;resizeHeight=0;align=center;verticalAlign=top;spacingLeft=4;spacingRight=4;overflow=hidden;rotatable=0;points=[[0,0.5],[1,0.5]];portConstraint=eastwest;whiteSpace=wrap;swimlaneFillColor=#ffffff;whiteSpace=wrap;fontSize=13;fillColor=none;strokeOpacity=100;whiteSpace=wrap;spacing=0;rounded=1;absoluteArcSize=1;arcSize=9;strokeWidth=2.3;" vertex="1" parent="Z_htnbCvDEiTUhGgbJoy-1">
          <mxGeometry y="81.75" width="30" height="24" as="geometry" />
        </mxCell>
        <mxCell id="Z_htnbCvDEiTUhGgbJoy-6" value="email" style="shape=partialRectangle;top=0;right=0;bottom=0;part=1;resizeHeight=0;align=left;verticalAlign=top;spacingLeft=4;spacingRight=4;overflow=hidden;rotatable=0;points=[[0,0.5],[1,0.5]];portConstraint=eastwest;whiteSpace=wrap;swimlaneFillColor=#ffffff;whiteSpace=wrap;fontSize=13;fillColor=none;strokeOpacity=100;whiteSpace=wrap;spacing=0;strokeColor=#5e5e5e;rounded=1;absoluteArcSize=1;arcSize=9;strokeWidth=2.3;" vertex="1" parent="Z_htnbCvDEiTUhGgbJoy-1">
          <mxGeometry x="30" y="81.75" width="350" height="24" as="geometry" />
        </mxCell>
        <mxCell id="Z_htnbCvDEiTUhGgbJoy-7" value="varchar(100)" style="shape=partialRectangle;top=0;right=0;bottom=0;part=1;resizeHeight=0;align=left;verticalAlign=top;spacingLeft=4;spacingRight=4;overflow=hidden;rotatable=0;points=[[0,0.5],[1,0.5]];portConstraint=eastwest;whiteSpace=wrap;swimlaneFillColor=#ffffff;whiteSpace=wrap;fontSize=13;fillColor=none;strokeOpacity=100;whiteSpace=wrap;spacing=0;strokeColor=#5e5e5e;rounded=1;absoluteArcSize=1;arcSize=9;strokeWidth=2.3;" vertex="1" parent="Z_htnbCvDEiTUhGgbJoy-1">
          <mxGeometry x="380" y="81.75" width="90" height="24" as="geometry" />
        </mxCell>
        <mxCell id="Z_htnbCvDEiTUhGgbJoy-8" value="" style="strokeColor=none;part=1;resizeHeight=0;align=center;verticalAlign=top;spacingLeft=4;spacingRight=4;overflow=hidden;rotatable=0;points=[[0,0.5],[1,0.5]];portConstraint=eastwest;whiteSpace=wrap;swimlaneFillColor=#ffffff;whiteSpace=wrap;fontSize=13;fillColor=#000000;fillOpacity=5;whiteSpace=wrap;spacing=0;strokeOpacity=100;rounded=1;absoluteArcSize=1;arcSize=9;strokeWidth=2.3;" vertex="1" parent="Z_htnbCvDEiTUhGgbJoy-1">
          <mxGeometry y="105.75" width="30" height="27.75" as="geometry" />
        </mxCell>
        <mxCell id="Z_htnbCvDEiTUhGgbJoy-9" value="pwd" style="shape=partialRectangle;top=0;right=0;bottom=0;part=1;resizeHeight=0;align=left;verticalAlign=top;spacingLeft=4;spacingRight=4;overflow=hidden;rotatable=0;points=[[0,0.5],[1,0.5]];portConstraint=eastwest;whiteSpace=wrap;swimlaneFillColor=#ffffff;whiteSpace=wrap;fontSize=16.7;fontFamily=Liberation Serif;fontColor=#333333;fillColor=#000000;fillOpacity=5;whiteSpace=wrap;spacing=0;strokeColor=#5e5e5e;strokeOpacity=100;rounded=1;absoluteArcSize=1;arcSize=9;strokeWidth=2.3;" vertex="1" parent="Z_htnbCvDEiTUhGgbJoy-1">
          <mxGeometry x="30" y="105.75" width="350" height="27.75" as="geometry" />
        </mxCell>
        <mxCell id="Z_htnbCvDEiTUhGgbJoy-10" value="varchar(100)" style="shape=partialRectangle;top=0;right=0;bottom=0;part=1;resizeHeight=0;align=left;verticalAlign=top;spacingLeft=4;spacingRight=4;overflow=hidden;rotatable=0;points=[[0,0.5],[1,0.5]];portConstraint=eastwest;whiteSpace=wrap;swimlaneFillColor=#ffffff;whiteSpace=wrap;fontSize=16.7;fontFamily=Liberation Serif;fontColor=#333333;fillColor=#000000;fillOpacity=5;whiteSpace=wrap;spacing=0;strokeColor=#5e5e5e;strokeOpacity=100;rounded=1;absoluteArcSize=1;arcSize=9;strokeWidth=2.3;" vertex="1" parent="Z_htnbCvDEiTUhGgbJoy-1">
          <mxGeometry x="380" y="105.75" width="100" height="27.75" as="geometry" />
        </mxCell>
        <mxCell id="Z_htnbCvDEiTUhGgbJoy-11" value="" style="strokeColor=none;part=1;resizeHeight=0;align=center;verticalAlign=top;spacingLeft=4;spacingRight=4;overflow=hidden;rotatable=0;points=[[0,0.5],[1,0.5]];portConstraint=eastwest;whiteSpace=wrap;swimlaneFillColor=#ffffff;whiteSpace=wrap;fontSize=13;fillColor=none;strokeOpacity=100;whiteSpace=wrap;spacing=0;rounded=1;absoluteArcSize=1;arcSize=9;strokeWidth=2.3;" vertex="1" parent="Z_htnbCvDEiTUhGgbJoy-1">
          <mxGeometry y="133.5" width="30" height="24" as="geometry" />
        </mxCell>
        <mxCell id="Z_htnbCvDEiTUhGgbJoy-12" value="name" style="shape=partialRectangle;top=0;right=0;bottom=0;part=1;resizeHeight=0;align=left;verticalAlign=top;spacingLeft=4;spacingRight=4;overflow=hidden;rotatable=0;points=[[0,0.5],[1,0.5]];portConstraint=eastwest;whiteSpace=wrap;swimlaneFillColor=#ffffff;whiteSpace=wrap;fontSize=13;fillColor=none;strokeOpacity=100;whiteSpace=wrap;spacing=0;strokeColor=#5e5e5e;rounded=1;absoluteArcSize=1;arcSize=9;strokeWidth=2.3;" vertex="1" parent="Z_htnbCvDEiTUhGgbJoy-1">
          <mxGeometry x="30" y="133.5" width="350" height="24" as="geometry" />
        </mxCell>
        <mxCell id="Z_htnbCvDEiTUhGgbJoy-13" value="varchar(10)" style="shape=partialRectangle;top=0;right=0;bottom=0;part=1;resizeHeight=0;align=left;verticalAlign=top;spacingLeft=4;spacingRight=4;overflow=hidden;rotatable=0;points=[[0,0.5],[1,0.5]];portConstraint=eastwest;whiteSpace=wrap;swimlaneFillColor=#ffffff;whiteSpace=wrap;fontSize=13;fillColor=none;strokeOpacity=100;whiteSpace=wrap;spacing=0;strokeColor=#5e5e5e;rounded=1;absoluteArcSize=1;arcSize=9;strokeWidth=2.3;" vertex="1" parent="Z_htnbCvDEiTUhGgbJoy-1">
          <mxGeometry x="380" y="133.5" width="40" height="24" as="geometry" />
        </mxCell>
        <mxCell id="Z_htnbCvDEiTUhGgbJoy-14" value="" style="strokeColor=none;part=1;resizeHeight=0;align=center;verticalAlign=top;spacingLeft=4;spacingRight=4;overflow=hidden;rotatable=0;points=[[0,0.5],[1,0.5]];portConstraint=eastwest;whiteSpace=wrap;swimlaneFillColor=#ffffff;whiteSpace=wrap;fontSize=13;fillColor=#000000;fillOpacity=5;whiteSpace=wrap;spacing=0;strokeOpacity=100;rounded=1;absoluteArcSize=1;arcSize=9;strokeWidth=2.3;" vertex="1" parent="Z_htnbCvDEiTUhGgbJoy-1">
          <mxGeometry y="157.5" width="30" height="24" as="geometry" />
        </mxCell>
        <mxCell id="Z_htnbCvDEiTUhGgbJoy-15" value="phone" style="shape=partialRectangle;top=0;right=0;bottom=0;part=1;resizeHeight=0;align=left;verticalAlign=top;spacingLeft=4;spacingRight=4;overflow=hidden;rotatable=0;points=[[0,0.5],[1,0.5]];portConstraint=eastwest;whiteSpace=wrap;swimlaneFillColor=#ffffff;whiteSpace=wrap;fontSize=13;fillColor=#000000;fillOpacity=5;whiteSpace=wrap;spacing=0;strokeColor=#5e5e5e;strokeOpacity=100;rounded=1;absoluteArcSize=1;arcSize=9;strokeWidth=2.3;" vertex="1" parent="Z_htnbCvDEiTUhGgbJoy-1">
          <mxGeometry x="30" y="157.5" width="350" height="24" as="geometry" />
        </mxCell>
        <mxCell id="Z_htnbCvDEiTUhGgbJoy-16" value="varchar(15)" style="shape=partialRectangle;top=0;right=0;bottom=0;part=1;resizeHeight=0;align=left;verticalAlign=top;spacingLeft=4;spacingRight=4;overflow=hidden;rotatable=0;points=[[0,0.5],[1,0.5]];portConstraint=eastwest;whiteSpace=wrap;swimlaneFillColor=#ffffff;whiteSpace=wrap;fontSize=13;fillColor=#000000;fillOpacity=5;whiteSpace=wrap;spacing=0;strokeColor=#5e5e5e;strokeOpacity=100;rounded=1;absoluteArcSize=1;arcSize=9;strokeWidth=2.3;" vertex="1" parent="Z_htnbCvDEiTUhGgbJoy-1">
          <mxGeometry x="380" y="157.5" width="70" height="24" as="geometry" />
        </mxCell>
        <mxCell id="Z_htnbCvDEiTUhGgbJoy-17" value="" style="strokeColor=none;part=1;resizeHeight=0;align=center;verticalAlign=top;spacingLeft=4;spacingRight=4;overflow=hidden;rotatable=0;points=[[0,0.5],[1,0.5]];portConstraint=eastwest;whiteSpace=wrap;swimlaneFillColor=#ffffff;whiteSpace=wrap;fontSize=13;fillColor=none;strokeOpacity=100;whiteSpace=wrap;spacing=0;rounded=1;absoluteArcSize=1;arcSize=9;strokeWidth=2.3;" vertex="1" parent="Z_htnbCvDEiTUhGgbJoy-1">
          <mxGeometry y="181.5" width="30" height="24" as="geometry" />
        </mxCell>
        <mxCell id="Z_htnbCvDEiTUhGgbJoy-20" value="" style="strokeColor=none;part=1;resizeHeight=0;align=center;verticalAlign=top;spacingLeft=4;spacingRight=4;overflow=hidden;rotatable=0;points=[[0,0.5],[1,0.5]];portConstraint=eastwest;whiteSpace=wrap;swimlaneFillColor=#ffffff;whiteSpace=wrap;fontSize=13;fillColor=#000000;fillOpacity=5;whiteSpace=wrap;spacing=0;strokeOpacity=100;rounded=1;absoluteArcSize=1;arcSize=9;strokeWidth=2.3;" vertex="1" parent="Z_htnbCvDEiTUhGgbJoy-1">
          <mxGeometry y="205.5" width="30" height="24" as="geometry" />
        </mxCell>
        <mxCell id="Z_htnbCvDEiTUhGgbJoy-21" value="birthday" style="shape=partialRectangle;top=0;right=0;bottom=0;part=1;resizeHeight=0;align=left;verticalAlign=top;spacingLeft=4;spacingRight=4;overflow=hidden;rotatable=0;points=[[0,0.5],[1,0.5]];portConstraint=eastwest;whiteSpace=wrap;swimlaneFillColor=#ffffff;whiteSpace=wrap;fontSize=13;fillColor=#000000;fillOpacity=5;whiteSpace=wrap;spacing=0;strokeColor=#5e5e5e;strokeOpacity=100;rounded=1;absoluteArcSize=1;arcSize=9;strokeWidth=2.3;" vertex="1" parent="Z_htnbCvDEiTUhGgbJoy-1">
          <mxGeometry x="30" y="205.5" width="350" height="24" as="geometry" />
        </mxCell>
        <mxCell id="Z_htnbCvDEiTUhGgbJoy-22" value="date" style="shape=partialRectangle;top=0;right=0;bottom=0;part=1;resizeHeight=0;align=left;verticalAlign=top;spacingLeft=4;spacingRight=4;overflow=hidden;rotatable=0;points=[[0,0.5],[1,0.5]];portConstraint=eastwest;whiteSpace=wrap;swimlaneFillColor=#ffffff;whiteSpace=wrap;fontSize=13;fillColor=#000000;fillOpacity=5;whiteSpace=wrap;spacing=0;strokeColor=#5e5e5e;strokeOpacity=100;rounded=1;absoluteArcSize=1;arcSize=9;strokeWidth=2.3;" vertex="1" parent="Z_htnbCvDEiTUhGgbJoy-1">
          <mxGeometry x="380" y="205.5" width="40" height="24" as="geometry" />
        </mxCell>
        <mxCell id="Z_htnbCvDEiTUhGgbJoy-23" value="" style="strokeColor=none;part=1;resizeHeight=0;align=center;verticalAlign=top;spacingLeft=4;spacingRight=4;overflow=hidden;rotatable=0;points=[[0,0.5],[1,0.5]];portConstraint=eastwest;whiteSpace=wrap;swimlaneFillColor=#ffffff;whiteSpace=wrap;fontSize=13;fillColor=none;strokeOpacity=100;whiteSpace=wrap;spacing=0;rounded=1;absoluteArcSize=1;arcSize=9;strokeWidth=2.3;" vertex="1" parent="Z_htnbCvDEiTUhGgbJoy-1">
          <mxGeometry y="229.5" width="30" height="24" as="geometry" />
        </mxCell>
        <mxCell id="Z_htnbCvDEiTUhGgbJoy-24" value="gender" style="shape=partialRectangle;top=0;right=0;bottom=0;part=1;resizeHeight=0;align=left;verticalAlign=top;spacingLeft=4;spacingRight=4;overflow=hidden;rotatable=0;points=[[0,0.5],[1,0.5]];portConstraint=eastwest;whiteSpace=wrap;swimlaneFillColor=#ffffff;whiteSpace=wrap;fontSize=13;fillColor=none;strokeOpacity=100;whiteSpace=wrap;spacing=0;strokeColor=#5e5e5e;rounded=1;absoluteArcSize=1;arcSize=9;strokeWidth=2.3;" vertex="1" parent="Z_htnbCvDEiTUhGgbJoy-1">
          <mxGeometry x="30" y="229.5" width="350" height="24" as="geometry" />
        </mxCell>
        <mxCell id="Z_htnbCvDEiTUhGgbJoy-25" value="varchar(20)" style="shape=partialRectangle;top=0;right=0;bottom=0;part=1;resizeHeight=0;align=left;verticalAlign=top;spacingLeft=4;spacingRight=4;overflow=hidden;rotatable=0;points=[[0,0.5],[1,0.5]];portConstraint=eastwest;whiteSpace=wrap;swimlaneFillColor=#ffffff;whiteSpace=wrap;fontSize=13;fillColor=none;strokeOpacity=100;whiteSpace=wrap;spacing=0;strokeColor=#5e5e5e;rounded=1;absoluteArcSize=1;arcSize=9;strokeWidth=2.3;" vertex="1" parent="Z_htnbCvDEiTUhGgbJoy-1">
          <mxGeometry x="380" y="229.5" width="70" height="24" as="geometry" />
        </mxCell>
        <mxCell id="Z_htnbCvDEiTUhGgbJoy-29" value="" style="strokeColor=none;part=1;resizeHeight=0;align=center;verticalAlign=top;spacingLeft=4;spacingRight=4;overflow=hidden;rotatable=0;points=[[0,0.5],[1,0.5]];portConstraint=eastwest;whiteSpace=wrap;swimlaneFillColor=#ffffff;whiteSpace=wrap;fontSize=13;fillColor=none;strokeOpacity=100;whiteSpace=wrap;spacing=0;rounded=1;absoluteArcSize=1;arcSize=9;strokeWidth=2.3;" vertex="1" parent="Z_htnbCvDEiTUhGgbJoy-1">
          <mxGeometry y="277.5" width="30" height="24" as="geometry" />
        </mxCell>
        <mxCell id="Z_htnbCvDEiTUhGgbJoy-32" value="" style="strokeColor=none;part=1;resizeHeight=0;align=center;verticalAlign=top;spacingLeft=4;spacingRight=4;overflow=hidden;rotatable=0;points=[[0,0.5],[1,0.5]];portConstraint=eastwest;whiteSpace=wrap;swimlaneFillColor=#ffffff;whiteSpace=wrap;fontSize=13;fillColor=#000000;fillOpacity=5;whiteSpace=wrap;spacing=0;strokeOpacity=100;rounded=1;absoluteArcSize=1;arcSize=9;strokeWidth=2.3;" vertex="1" parent="Z_htnbCvDEiTUhGgbJoy-1">
          <mxGeometry y="301.5" width="30" height="24" as="geometry" />
        </mxCell>
        <mxCell id="Z_htnbCvDEiTUhGgbJoy-33" value="is_staff" style="shape=partialRectangle;top=0;right=0;bottom=0;part=1;resizeHeight=0;align=left;verticalAlign=top;spacingLeft=4;spacingRight=4;overflow=hidden;rotatable=0;points=[[0,0.5],[1,0.5]];portConstraint=eastwest;whiteSpace=wrap;swimlaneFillColor=#ffffff;whiteSpace=wrap;fontSize=13;fillColor=#000000;fillOpacity=5;whiteSpace=wrap;spacing=0;strokeColor=#5e5e5e;strokeOpacity=100;rounded=1;absoluteArcSize=1;arcSize=9;strokeWidth=2.3;" vertex="1" parent="Z_htnbCvDEiTUhGgbJoy-1">
          <mxGeometry x="30" y="301.5" width="350" height="24" as="geometry" />
        </mxCell>
        <mxCell id="Z_htnbCvDEiTUhGgbJoy-34" value="boolean" style="shape=partialRectangle;top=0;right=0;bottom=0;part=1;resizeHeight=0;align=left;verticalAlign=top;spacingLeft=4;spacingRight=4;overflow=hidden;rotatable=0;points=[[0,0.5],[1,0.5]];portConstraint=eastwest;whiteSpace=wrap;swimlaneFillColor=#ffffff;whiteSpace=wrap;fontSize=13;fillColor=#000000;fillOpacity=5;whiteSpace=wrap;spacing=0;strokeColor=#5e5e5e;strokeOpacity=100;rounded=1;absoluteArcSize=1;arcSize=9;strokeWidth=2.3;" vertex="1" parent="Z_htnbCvDEiTUhGgbJoy-1">
          <mxGeometry x="380" y="301.5" width="60" height="24" as="geometry" />
        </mxCell>
        <mxCell id="Z_htnbCvDEiTUhGgbJoy-35" value="" style="strokeColor=none;part=1;resizeHeight=0;align=center;verticalAlign=top;spacingLeft=4;spacingRight=4;overflow=hidden;rotatable=0;points=[[0,0.5],[1,0.5]];portConstraint=eastwest;whiteSpace=wrap;swimlaneFillColor=#ffffff;whiteSpace=wrap;fontSize=13;fillColor=none;strokeOpacity=100;whiteSpace=wrap;spacing=0;rounded=1;absoluteArcSize=1;arcSize=9;strokeWidth=2.3;" vertex="1" parent="Z_htnbCvDEiTUhGgbJoy-1">
          <mxGeometry y="325.5" width="30" height="24" as="geometry" />
        </mxCell>
        <mxCell id="Z_htnbCvDEiTUhGgbJoy-36" value="is_superuser" style="shape=partialRectangle;top=0;right=0;bottom=0;part=1;resizeHeight=0;align=left;verticalAlign=top;spacingLeft=4;spacingRight=4;overflow=hidden;rotatable=0;points=[[0,0.5],[1,0.5]];portConstraint=eastwest;whiteSpace=wrap;swimlaneFillColor=#ffffff;whiteSpace=wrap;fontSize=13;fillColor=none;strokeOpacity=100;whiteSpace=wrap;spacing=0;strokeColor=#5e5e5e;rounded=1;absoluteArcSize=1;arcSize=9;strokeWidth=2.3;" vertex="1" parent="Z_htnbCvDEiTUhGgbJoy-1">
          <mxGeometry x="30" y="325.5" width="350" height="24" as="geometry" />
        </mxCell>
        <mxCell id="Z_htnbCvDEiTUhGgbJoy-37" value="boolean" style="shape=partialRectangle;top=0;right=0;bottom=0;part=1;resizeHeight=0;align=left;verticalAlign=top;spacingLeft=4;spacingRight=4;overflow=hidden;rotatable=0;points=[[0,0.5],[1,0.5]];portConstraint=eastwest;whiteSpace=wrap;swimlaneFillColor=#ffffff;whiteSpace=wrap;fontSize=13;fillColor=none;strokeOpacity=100;whiteSpace=wrap;spacing=0;strokeColor=#5e5e5e;rounded=1;absoluteArcSize=1;arcSize=9;strokeWidth=2.3;" vertex="1" parent="Z_htnbCvDEiTUhGgbJoy-1">
          <mxGeometry x="380" y="325.5" width="60" height="24" as="geometry" />
        </mxCell>
        <mxCell id="Z_htnbCvDEiTUhGgbJoy-41" value="" style="strokeColor=none;part=1;resizeHeight=0;align=center;verticalAlign=top;spacingLeft=4;spacingRight=4;overflow=hidden;rotatable=0;points=[[0,0.5],[1,0.5]];portConstraint=eastwest;whiteSpace=wrap;swimlaneFillColor=#ffffff;whiteSpace=wrap;fontSize=13;fillColor=none;strokeOpacity=100;whiteSpace=wrap;spacing=0;rounded=1;absoluteArcSize=1;arcSize=9;strokeWidth=2.3;" vertex="1" parent="Z_htnbCvDEiTUhGgbJoy-1">
          <mxGeometry y="373.5" width="30" height="24" as="geometry" />
        </mxCell>
        <mxCell id="Z_htnbCvDEiTUhGgbJoy-44" value="Review(E)" style="html=1;overflow=block;blockSpacing=1;whiteSpace=wrap;swimlane;resizeParent=1;resizeParentMax=0;resizeLast=0;collapsible=0;marginBottom=0;fontStyle=0;swimlaneFillColor=#ffffff;startSize=30;whiteSpace=wrap;fontSize=16.7;fontFamily=Liberation Serif;fillColor=#fff2cc;whiteSpace=wrap;spacing=0;strokeColor=#d6b656;strokeOpacity=100;rounded=1;absoluteArcSize=1;arcSize=9;strokeWidth=2.3;" vertex="1" parent="1">
          <mxGeometry x="285" y="820" width="345" height="190" as="geometry" />
        </mxCell>
        <mxCell id="Z_htnbCvDEiTUhGgbJoy-45" value="PK" style="strokeColor=none;part=1;resizeHeight=0;align=center;verticalAlign=top;spacingLeft=4;spacingRight=4;overflow=hidden;rotatable=0;points=[[0,0.5],[1,0.5]];portConstraint=eastwest;whiteSpace=wrap;swimlaneFillColor=#ffffff;whiteSpace=wrap;fontSize=16.7;fontFamily=Liberation Serif;fontColor=#333333;fillColor=none;strokeOpacity=100;whiteSpace=wrap;spacing=0;rounded=1;absoluteArcSize=1;arcSize=9;strokeWidth=2.3;" vertex="1" parent="Z_htnbCvDEiTUhGgbJoy-44">
          <mxGeometry y="30" width="62.37492488935936" height="27.75" as="geometry" />
        </mxCell>
        <mxCell id="Z_htnbCvDEiTUhGgbJoy-46" value="id" style="shape=partialRectangle;top=0;right=0;bottom=0;part=1;resizeHeight=0;align=left;verticalAlign=top;spacingLeft=4;spacingRight=4;overflow=hidden;rotatable=0;points=[[0,0.5],[1,0.5]];portConstraint=eastwest;whiteSpace=wrap;swimlaneFillColor=#ffffff;whiteSpace=wrap;fontSize=16.7;fontFamily=Liberation Serif;fontColor=#333333;fillColor=none;strokeOpacity=100;whiteSpace=wrap;spacing=0;strokeColor=#5e5e5e;rounded=1;absoluteArcSize=1;arcSize=9;strokeWidth=2.3;" vertex="1" parent="Z_htnbCvDEiTUhGgbJoy-44">
          <mxGeometry x="62.37492488935936" y="30" width="180.52630804844352" height="27.75" as="geometry" />
        </mxCell>
        <mxCell id="Z_htnbCvDEiTUhGgbJoy-47" value="serial" style="shape=partialRectangle;top=0;right=0;bottom=0;part=1;resizeHeight=0;align=left;verticalAlign=top;spacingLeft=4;spacingRight=4;overflow=hidden;rotatable=0;points=[[0,0.5],[1,0.5]];portConstraint=eastwest;whiteSpace=wrap;swimlaneFillColor=#ffffff;whiteSpace=wrap;fontSize=16.7;fontFamily=Liberation Serif;fontColor=#333333;fillColor=none;strokeOpacity=100;whiteSpace=wrap;spacing=0;strokeColor=#5e5e5e;rounded=1;absoluteArcSize=1;arcSize=9;strokeWidth=2.3;" vertex="1" parent="Z_htnbCvDEiTUhGgbJoy-44">
          <mxGeometry x="242.9012329378029" y="30" width="102.09876706219711" height="27.75" as="geometry" />
        </mxCell>
        <mxCell id="Z_htnbCvDEiTUhGgbJoy-48" value="FK" style="strokeColor=none;part=1;resizeHeight=0;align=center;verticalAlign=top;spacingLeft=4;spacingRight=4;overflow=hidden;rotatable=0;points=[[0,0.5],[1,0.5]];portConstraint=eastwest;whiteSpace=wrap;swimlaneFillColor=#ffffff;whiteSpace=wrap;fontSize=16.7;fontFamily=Liberation Serif;fontColor=#333333;fillColor=#000000;fillOpacity=5;whiteSpace=wrap;spacing=0;strokeOpacity=100;rounded=1;absoluteArcSize=1;arcSize=9;strokeWidth=2.3;" vertex="1" parent="Z_htnbCvDEiTUhGgbJoy-44">
          <mxGeometry y="57.75" width="62.37492488935936" height="27.75" as="geometry" />
        </mxCell>
        <mxCell id="Z_htnbCvDEiTUhGgbJoy-49" value="cid( CASCADE )" style="shape=partialRectangle;top=0;right=0;bottom=0;part=1;resizeHeight=0;align=left;verticalAlign=top;spacingLeft=4;spacingRight=4;overflow=hidden;rotatable=0;points=[[0,0.5],[1,0.5]];portConstraint=eastwest;whiteSpace=wrap;swimlaneFillColor=#ffffff;whiteSpace=wrap;fontSize=16.7;fontFamily=Liberation Serif;fontColor=#333333;fillColor=#000000;fillOpacity=5;whiteSpace=wrap;spacing=0;strokeColor=#5e5e5e;strokeOpacity=100;rounded=1;absoluteArcSize=1;arcSize=9;strokeWidth=2.3;" vertex="1" parent="Z_htnbCvDEiTUhGgbJoy-44">
          <mxGeometry x="62.37492488935936" y="57.75" width="180.52630804844352" height="27.75" as="geometry" />
        </mxCell>
        <mxCell id="Z_htnbCvDEiTUhGgbJoy-50" value="int" style="shape=partialRectangle;top=0;right=0;bottom=0;part=1;resizeHeight=0;align=left;verticalAlign=top;spacingLeft=4;spacingRight=4;overflow=hidden;rotatable=0;points=[[0,0.5],[1,0.5]];portConstraint=eastwest;whiteSpace=wrap;swimlaneFillColor=#ffffff;whiteSpace=wrap;fontSize=16.7;fontFamily=Liberation Serif;fontColor=#333333;fillColor=#000000;fillOpacity=5;whiteSpace=wrap;spacing=0;strokeColor=#5e5e5e;strokeOpacity=100;rounded=1;absoluteArcSize=1;arcSize=9;strokeWidth=2.3;" vertex="1" parent="Z_htnbCvDEiTUhGgbJoy-44">
          <mxGeometry x="242.9012329378029" y="57.75" width="102.09876706219711" height="27.75" as="geometry" />
        </mxCell>
        <mxCell id="Z_htnbCvDEiTUhGgbJoy-51" value="FK" style="strokeColor=none;part=1;resizeHeight=0;align=center;verticalAlign=top;spacingLeft=4;spacingRight=4;overflow=hidden;rotatable=0;points=[[0,0.5],[1,0.5]];portConstraint=eastwest;whiteSpace=wrap;swimlaneFillColor=#ffffff;whiteSpace=wrap;fontSize=13;fillColor=none;strokeOpacity=100;whiteSpace=wrap;spacing=0;rounded=1;absoluteArcSize=1;arcSize=9;strokeWidth=2.3;" vertex="1" parent="Z_htnbCvDEiTUhGgbJoy-44">
          <mxGeometry y="85.5" width="62.37492488935936" height="24" as="geometry" />
        </mxCell>
        <mxCell id="Z_htnbCvDEiTUhGgbJoy-52" value="pid( RESTRICT )" style="shape=partialRectangle;top=0;right=0;bottom=0;part=1;resizeHeight=0;align=left;verticalAlign=top;spacingLeft=4;spacingRight=4;overflow=hidden;rotatable=0;points=[[0,0.5],[1,0.5]];portConstraint=eastwest;whiteSpace=wrap;swimlaneFillColor=#ffffff;whiteSpace=wrap;fontSize=13;fillColor=none;strokeOpacity=100;whiteSpace=wrap;spacing=0;strokeColor=#5e5e5e;rounded=1;absoluteArcSize=1;arcSize=9;strokeWidth=2.3;" vertex="1" parent="Z_htnbCvDEiTUhGgbJoy-44">
          <mxGeometry x="62.37492488935936" y="85.5" width="180.52630804844352" height="24" as="geometry" />
        </mxCell>
        <mxCell id="Z_htnbCvDEiTUhGgbJoy-53" value="int" style="shape=partialRectangle;top=0;right=0;bottom=0;part=1;resizeHeight=0;align=left;verticalAlign=top;spacingLeft=4;spacingRight=4;overflow=hidden;rotatable=0;points=[[0,0.5],[1,0.5]];portConstraint=eastwest;whiteSpace=wrap;swimlaneFillColor=#ffffff;whiteSpace=wrap;fontSize=13;fillColor=none;strokeOpacity=100;whiteSpace=wrap;spacing=0;strokeColor=#5e5e5e;rounded=1;absoluteArcSize=1;arcSize=9;strokeWidth=2.3;" vertex="1" parent="Z_htnbCvDEiTUhGgbJoy-44">
          <mxGeometry x="242.9012329378029" y="85.5" width="102.09876706219711" height="24" as="geometry" />
        </mxCell>
        <mxCell id="Z_htnbCvDEiTUhGgbJoy-54" value="" style="strokeColor=none;part=1;resizeHeight=0;align=center;verticalAlign=top;spacingLeft=4;spacingRight=4;overflow=hidden;rotatable=0;points=[[0,0.5],[1,0.5]];portConstraint=eastwest;whiteSpace=wrap;swimlaneFillColor=#ffffff;whiteSpace=wrap;fontSize=13;fillColor=#000000;fillOpacity=5;whiteSpace=wrap;spacing=0;strokeOpacity=100;rounded=1;absoluteArcSize=1;arcSize=9;strokeWidth=2.3;" vertex="1" parent="Z_htnbCvDEiTUhGgbJoy-44">
          <mxGeometry y="109.5" width="62.37492488935936" height="24" as="geometry" />
        </mxCell>
        <mxCell id="Z_htnbCvDEiTUhGgbJoy-55" value="written_date" style="shape=partialRectangle;top=0;right=0;bottom=0;part=1;resizeHeight=0;align=left;verticalAlign=top;spacingLeft=4;spacingRight=4;overflow=hidden;rotatable=0;points=[[0,0.5],[1,0.5]];portConstraint=eastwest;whiteSpace=wrap;swimlaneFillColor=#ffffff;whiteSpace=wrap;fontSize=13;fillColor=#000000;fillOpacity=5;whiteSpace=wrap;spacing=0;strokeColor=#5e5e5e;strokeOpacity=100;rounded=1;absoluteArcSize=1;arcSize=9;strokeWidth=2.3;" vertex="1" parent="Z_htnbCvDEiTUhGgbJoy-44">
          <mxGeometry x="62.37492488935936" y="109.5" width="180.52630804844352" height="24" as="geometry" />
        </mxCell>
        <mxCell id="Z_htnbCvDEiTUhGgbJoy-56" value="date" style="shape=partialRectangle;top=0;right=0;bottom=0;part=1;resizeHeight=0;align=left;verticalAlign=top;spacingLeft=4;spacingRight=4;overflow=hidden;rotatable=0;points=[[0,0.5],[1,0.5]];portConstraint=eastwest;whiteSpace=wrap;swimlaneFillColor=#ffffff;whiteSpace=wrap;fontSize=13;fillColor=#000000;fillOpacity=5;whiteSpace=wrap;spacing=0;strokeColor=#5e5e5e;strokeOpacity=100;rounded=1;absoluteArcSize=1;arcSize=9;strokeWidth=2.3;" vertex="1" parent="Z_htnbCvDEiTUhGgbJoy-44">
          <mxGeometry x="242.9012329378029" y="109.5" width="102.09876706219711" height="24" as="geometry" />
        </mxCell>
        <mxCell id="Z_htnbCvDEiTUhGgbJoy-57" value="" style="strokeColor=none;part=1;resizeHeight=0;align=center;verticalAlign=top;spacingLeft=4;spacingRight=4;overflow=hidden;rotatable=0;points=[[0,0.5],[1,0.5]];portConstraint=eastwest;whiteSpace=wrap;swimlaneFillColor=#ffffff;whiteSpace=wrap;fontSize=13;fillColor=none;strokeOpacity=100;whiteSpace=wrap;spacing=0;rounded=1;absoluteArcSize=1;arcSize=9;strokeWidth=2.3;" vertex="1" parent="Z_htnbCvDEiTUhGgbJoy-44">
          <mxGeometry y="133.5" width="62.37492488935936" height="15" as="geometry" />
        </mxCell>
        <mxCell id="Z_htnbCvDEiTUhGgbJoy-58" value="contents" style="shape=partialRectangle;top=0;right=0;bottom=0;part=1;resizeHeight=0;align=left;verticalAlign=top;spacingLeft=4;spacingRight=4;overflow=hidden;rotatable=0;points=[[0,0.5],[1,0.5]];portConstraint=eastwest;whiteSpace=wrap;swimlaneFillColor=#ffffff;whiteSpace=wrap;fontSize=13;fillColor=none;strokeOpacity=100;whiteSpace=wrap;spacing=0;strokeColor=#5e5e5e;rounded=1;absoluteArcSize=1;arcSize=9;strokeWidth=2.3;" vertex="1" parent="Z_htnbCvDEiTUhGgbJoy-44">
          <mxGeometry x="62.37492488935936" y="133.5" width="180.52630804844352" height="15" as="geometry" />
        </mxCell>
        <mxCell id="Z_htnbCvDEiTUhGgbJoy-59" value="varchar(255)" style="shape=partialRectangle;top=0;right=0;bottom=0;part=1;resizeHeight=0;align=left;verticalAlign=top;spacingLeft=4;spacingRight=4;overflow=hidden;rotatable=0;points=[[0,0.5],[1,0.5]];portConstraint=eastwest;whiteSpace=wrap;swimlaneFillColor=#ffffff;whiteSpace=wrap;fontSize=13;fillColor=none;strokeOpacity=100;whiteSpace=wrap;spacing=0;strokeColor=#5e5e5e;rounded=1;absoluteArcSize=1;arcSize=9;strokeWidth=2.3;" vertex="1" parent="Z_htnbCvDEiTUhGgbJoy-44">
          <mxGeometry x="242.9012329378029" y="133.5" width="102.09876706219711" height="15" as="geometry" />
        </mxCell>
        <mxCell id="Z_htnbCvDEiTUhGgbJoy-95" value="Address(W)" style="html=1;overflow=block;blockSpacing=1;whiteSpace=wrap;swimlane;resizeParent=1;resizeParentMax=0;resizeLast=0;collapsible=0;marginBottom=0;fontStyle=0;swimlaneFillColor=#ffffff;startSize=30;whiteSpace=wrap;fontSize=13;fillColor=#f8cecc;whiteSpace=wrap;spacing=0;strokeColor=#b85450;strokeOpacity=100;fillOpacity=100;rounded=1;absoluteArcSize=1;arcSize=9;strokeWidth=2.3;" vertex="1" parent="1">
          <mxGeometry x="-1410" y="570" width="285" height="222" as="geometry" />
        </mxCell>
        <mxCell id="Z_htnbCvDEiTUhGgbJoy-96" value="PK" style="strokeColor=none;part=1;resizeHeight=0;align=center;verticalAlign=top;spacingLeft=4;spacingRight=4;overflow=hidden;rotatable=0;points=[[0,0.5],[1,0.5]];portConstraint=eastwest;whiteSpace=wrap;swimlaneFillColor=#ffffff;whiteSpace=wrap;fontSize=13;fillColor=none;strokeOpacity=100;fillOpacity=100;whiteSpace=wrap;spacing=0;rounded=1;absoluteArcSize=1;arcSize=9;strokeWidth=2.3;" vertex="1" parent="Z_htnbCvDEiTUhGgbJoy-95">
          <mxGeometry y="30" width="30" height="24" as="geometry" />
        </mxCell>
        <mxCell id="Z_htnbCvDEiTUhGgbJoy-97" value="id" style="shape=partialRectangle;top=0;right=0;bottom=0;part=1;resizeHeight=0;align=left;verticalAlign=top;spacingLeft=4;spacingRight=4;overflow=hidden;rotatable=0;points=[[0,0.5],[1,0.5]];portConstraint=eastwest;whiteSpace=wrap;swimlaneFillColor=#ffffff;whiteSpace=wrap;fontSize=13;fillColor=none;strokeOpacity=100;fillOpacity=100;whiteSpace=wrap;spacing=0;strokeColor=#5e5e5e;rounded=1;absoluteArcSize=1;arcSize=9;strokeWidth=2.3;" vertex="1" parent="Z_htnbCvDEiTUhGgbJoy-95">
          <mxGeometry x="30" y="30" width="169.36647672555404" height="24" as="geometry" />
        </mxCell>
        <mxCell id="Z_htnbCvDEiTUhGgbJoy-98" value="serial" style="shape=partialRectangle;top=0;right=0;bottom=0;part=1;resizeHeight=0;align=left;verticalAlign=top;spacingLeft=4;spacingRight=4;overflow=hidden;rotatable=0;points=[[0,0.5],[1,0.5]];portConstraint=eastwest;whiteSpace=wrap;swimlaneFillColor=#ffffff;whiteSpace=wrap;fontSize=13;fillColor=none;strokeOpacity=100;fillOpacity=100;whiteSpace=wrap;spacing=0;strokeColor=#5e5e5e;rounded=1;absoluteArcSize=1;arcSize=9;strokeWidth=2.3;" vertex="1" parent="Z_htnbCvDEiTUhGgbJoy-95">
          <mxGeometry x="199.36647672555404" y="30" width="85.63352327444596" height="24" as="geometry" />
        </mxCell>
        <mxCell id="Z_htnbCvDEiTUhGgbJoy-99" value="FK" style="strokeColor=none;part=1;resizeHeight=0;align=center;verticalAlign=top;spacingLeft=4;spacingRight=4;overflow=hidden;rotatable=0;points=[[0,0.5],[1,0.5]];portConstraint=eastwest;whiteSpace=wrap;swimlaneFillColor=#ffffff;whiteSpace=wrap;fontSize=13;fillColor=#000000;fillOpacity=5;whiteSpace=wrap;spacing=0;strokeOpacity=100;rounded=1;absoluteArcSize=1;arcSize=9;strokeWidth=2.3;" vertex="1" parent="Z_htnbCvDEiTUhGgbJoy-95">
          <mxGeometry y="54" width="30" height="24" as="geometry" />
        </mxCell>
        <mxCell id="Z_htnbCvDEiTUhGgbJoy-100" value="cid ( CASCADE )" style="shape=partialRectangle;top=0;right=0;bottom=0;part=1;resizeHeight=0;align=left;verticalAlign=top;spacingLeft=4;spacingRight=4;overflow=hidden;rotatable=0;points=[[0,0.5],[1,0.5]];portConstraint=eastwest;whiteSpace=wrap;swimlaneFillColor=#ffffff;whiteSpace=wrap;fontSize=13;fillColor=#000000;fillOpacity=5;whiteSpace=wrap;spacing=0;strokeColor=#5e5e5e;strokeOpacity=100;rounded=1;absoluteArcSize=1;arcSize=9;strokeWidth=2.3;" vertex="1" parent="Z_htnbCvDEiTUhGgbJoy-95">
          <mxGeometry x="30" y="54" width="169.36647672555404" height="24" as="geometry" />
        </mxCell>
        <mxCell id="Z_htnbCvDEiTUhGgbJoy-101" value="int" style="shape=partialRectangle;top=0;right=0;bottom=0;part=1;resizeHeight=0;align=left;verticalAlign=top;spacingLeft=4;spacingRight=4;overflow=hidden;rotatable=0;points=[[0,0.5],[1,0.5]];portConstraint=eastwest;whiteSpace=wrap;swimlaneFillColor=#ffffff;whiteSpace=wrap;fontSize=13;fillColor=#000000;fillOpacity=5;whiteSpace=wrap;spacing=0;strokeColor=#5e5e5e;strokeOpacity=100;rounded=1;absoluteArcSize=1;arcSize=9;strokeWidth=2.3;" vertex="1" parent="Z_htnbCvDEiTUhGgbJoy-95">
          <mxGeometry x="199.36647672555404" y="54" width="85.63352327444596" height="24" as="geometry" />
        </mxCell>
        <mxCell id="Z_htnbCvDEiTUhGgbJoy-102" value="" style="strokeColor=none;part=1;resizeHeight=0;align=center;verticalAlign=top;spacingLeft=4;spacingRight=4;overflow=hidden;rotatable=0;points=[[0,0.5],[1,0.5]];portConstraint=eastwest;whiteSpace=wrap;swimlaneFillColor=#ffffff;whiteSpace=wrap;fontSize=13;fillColor=none;strokeOpacity=100;fillOpacity=100;whiteSpace=wrap;spacing=0;rounded=1;absoluteArcSize=1;arcSize=9;strokeWidth=2.3;" vertex="1" parent="Z_htnbCvDEiTUhGgbJoy-95">
          <mxGeometry y="78" width="30" height="24" as="geometry" />
        </mxCell>
        <mxCell id="Z_htnbCvDEiTUhGgbJoy-103" value="reciever" style="shape=partialRectangle;top=0;right=0;bottom=0;part=1;resizeHeight=0;align=left;verticalAlign=top;spacingLeft=4;spacingRight=4;overflow=hidden;rotatable=0;points=[[0,0.5],[1,0.5]];portConstraint=eastwest;whiteSpace=wrap;swimlaneFillColor=#ffffff;whiteSpace=wrap;fontSize=13;fillColor=none;strokeOpacity=100;fillOpacity=100;whiteSpace=wrap;spacing=0;strokeColor=#5e5e5e;rounded=1;absoluteArcSize=1;arcSize=9;strokeWidth=2.3;" vertex="1" parent="Z_htnbCvDEiTUhGgbJoy-95">
          <mxGeometry x="30" y="78" width="169.36647672555404" height="24" as="geometry" />
        </mxCell>
        <mxCell id="Z_htnbCvDEiTUhGgbJoy-104" value="varchar(10)" style="shape=partialRectangle;top=0;right=0;bottom=0;part=1;resizeHeight=0;align=left;verticalAlign=top;spacingLeft=4;spacingRight=4;overflow=hidden;rotatable=0;points=[[0,0.5],[1,0.5]];portConstraint=eastwest;whiteSpace=wrap;swimlaneFillColor=#ffffff;whiteSpace=wrap;fontSize=13;fillColor=none;strokeOpacity=100;fillOpacity=100;whiteSpace=wrap;spacing=0;strokeColor=#5e5e5e;rounded=1;absoluteArcSize=1;arcSize=9;strokeWidth=2.3;" vertex="1" parent="Z_htnbCvDEiTUhGgbJoy-95">
          <mxGeometry x="199.36647672555404" y="78" width="85.63352327444596" height="24" as="geometry" />
        </mxCell>
        <mxCell id="Z_htnbCvDEiTUhGgbJoy-105" value="" style="strokeColor=none;part=1;resizeHeight=0;align=center;verticalAlign=top;spacingLeft=4;spacingRight=4;overflow=hidden;rotatable=0;points=[[0,0.5],[1,0.5]];portConstraint=eastwest;whiteSpace=wrap;swimlaneFillColor=#ffffff;whiteSpace=wrap;fontSize=13;fillColor=#000000;fillOpacity=5;whiteSpace=wrap;spacing=0;strokeOpacity=100;rounded=1;absoluteArcSize=1;arcSize=9;strokeWidth=2.3;" vertex="1" parent="Z_htnbCvDEiTUhGgbJoy-95">
          <mxGeometry y="102" width="30" height="24" as="geometry" />
        </mxCell>
        <mxCell id="Z_htnbCvDEiTUhGgbJoy-106" value="phone" style="shape=partialRectangle;top=0;right=0;bottom=0;part=1;resizeHeight=0;align=left;verticalAlign=top;spacingLeft=4;spacingRight=4;overflow=hidden;rotatable=0;points=[[0,0.5],[1,0.5]];portConstraint=eastwest;whiteSpace=wrap;swimlaneFillColor=#ffffff;whiteSpace=wrap;fontSize=13;fillColor=#000000;fillOpacity=5;whiteSpace=wrap;spacing=0;strokeColor=#5e5e5e;strokeOpacity=100;rounded=1;absoluteArcSize=1;arcSize=9;strokeWidth=2.3;" vertex="1" parent="Z_htnbCvDEiTUhGgbJoy-95">
          <mxGeometry x="30" y="102" width="169.36647672555404" height="24" as="geometry" />
        </mxCell>
        <mxCell id="Z_htnbCvDEiTUhGgbJoy-107" value="varchar(15)" style="shape=partialRectangle;top=0;right=0;bottom=0;part=1;resizeHeight=0;align=left;verticalAlign=top;spacingLeft=4;spacingRight=4;overflow=hidden;rotatable=0;points=[[0,0.5],[1,0.5]];portConstraint=eastwest;whiteSpace=wrap;swimlaneFillColor=#ffffff;whiteSpace=wrap;fontSize=13;fillColor=#000000;fillOpacity=5;whiteSpace=wrap;spacing=0;strokeColor=#5e5e5e;strokeOpacity=100;rounded=1;absoluteArcSize=1;arcSize=9;strokeWidth=2.3;" vertex="1" parent="Z_htnbCvDEiTUhGgbJoy-95">
          <mxGeometry x="199.36647672555404" y="102" width="85.63352327444596" height="24" as="geometry" />
        </mxCell>
        <mxCell id="Z_htnbCvDEiTUhGgbJoy-108" value="" style="strokeColor=none;part=1;resizeHeight=0;align=center;verticalAlign=top;spacingLeft=4;spacingRight=4;overflow=hidden;rotatable=0;points=[[0,0.5],[1,0.5]];portConstraint=eastwest;whiteSpace=wrap;swimlaneFillColor=#ffffff;whiteSpace=wrap;fontSize=13;fillColor=none;strokeOpacity=100;fillOpacity=100;whiteSpace=wrap;spacing=0;rounded=1;absoluteArcSize=1;arcSize=9;strokeWidth=2.3;" vertex="1" parent="Z_htnbCvDEiTUhGgbJoy-95">
          <mxGeometry y="126" width="30" height="24" as="geometry" />
        </mxCell>
        <mxCell id="Z_htnbCvDEiTUhGgbJoy-109" value="adress1" style="shape=partialRectangle;top=0;right=0;bottom=0;part=1;resizeHeight=0;align=left;verticalAlign=top;spacingLeft=4;spacingRight=4;overflow=hidden;rotatable=0;points=[[0,0.5],[1,0.5]];portConstraint=eastwest;whiteSpace=wrap;swimlaneFillColor=#ffffff;whiteSpace=wrap;fontSize=13;fillColor=none;strokeOpacity=100;fillOpacity=100;whiteSpace=wrap;spacing=0;strokeColor=#5e5e5e;rounded=1;absoluteArcSize=1;arcSize=9;strokeWidth=2.3;" vertex="1" parent="Z_htnbCvDEiTUhGgbJoy-95">
          <mxGeometry x="30" y="126" width="169.36647672555404" height="24" as="geometry" />
        </mxCell>
        <mxCell id="Z_htnbCvDEiTUhGgbJoy-110" value="varchar(100)" style="shape=partialRectangle;top=0;right=0;bottom=0;part=1;resizeHeight=0;align=left;verticalAlign=top;spacingLeft=4;spacingRight=4;overflow=hidden;rotatable=0;points=[[0,0.5],[1,0.5]];portConstraint=eastwest;whiteSpace=wrap;swimlaneFillColor=#ffffff;whiteSpace=wrap;fontSize=13;fillColor=none;strokeOpacity=100;fillOpacity=100;whiteSpace=wrap;spacing=0;strokeColor=#5e5e5e;rounded=1;absoluteArcSize=1;arcSize=9;strokeWidth=2.3;" vertex="1" parent="Z_htnbCvDEiTUhGgbJoy-95">
          <mxGeometry x="199.36647672555404" y="126" width="85.63352327444596" height="24" as="geometry" />
        </mxCell>
        <mxCell id="Z_htnbCvDEiTUhGgbJoy-111" value="" style="strokeColor=none;part=1;resizeHeight=0;align=center;verticalAlign=top;spacingLeft=4;spacingRight=4;overflow=hidden;rotatable=0;points=[[0,0.5],[1,0.5]];portConstraint=eastwest;whiteSpace=wrap;swimlaneFillColor=#ffffff;whiteSpace=wrap;fontSize=13;fillColor=#000000;fillOpacity=5;whiteSpace=wrap;spacing=0;strokeOpacity=100;rounded=1;absoluteArcSize=1;arcSize=9;strokeWidth=2.3;" vertex="1" parent="Z_htnbCvDEiTUhGgbJoy-95">
          <mxGeometry y="150" width="30" height="24" as="geometry" />
        </mxCell>
        <mxCell id="Z_htnbCvDEiTUhGgbJoy-112" value="adress2" style="shape=partialRectangle;top=0;right=0;bottom=0;part=1;resizeHeight=0;align=left;verticalAlign=top;spacingLeft=4;spacingRight=4;overflow=hidden;rotatable=0;points=[[0,0.5],[1,0.5]];portConstraint=eastwest;whiteSpace=wrap;swimlaneFillColor=#ffffff;whiteSpace=wrap;fontSize=13;fillColor=#000000;fillOpacity=5;whiteSpace=wrap;spacing=0;strokeColor=#5e5e5e;strokeOpacity=100;rounded=1;absoluteArcSize=1;arcSize=9;strokeWidth=2.3;" vertex="1" parent="Z_htnbCvDEiTUhGgbJoy-95">
          <mxGeometry x="30" y="150" width="169.36647672555404" height="24" as="geometry" />
        </mxCell>
        <mxCell id="Z_htnbCvDEiTUhGgbJoy-113" value="varchar(100)" style="shape=partialRectangle;top=0;right=0;bottom=0;part=1;resizeHeight=0;align=left;verticalAlign=top;spacingLeft=4;spacingRight=4;overflow=hidden;rotatable=0;points=[[0,0.5],[1,0.5]];portConstraint=eastwest;whiteSpace=wrap;swimlaneFillColor=#ffffff;whiteSpace=wrap;fontSize=13;fillColor=#000000;fillOpacity=5;whiteSpace=wrap;spacing=0;strokeColor=#5e5e5e;strokeOpacity=100;rounded=1;absoluteArcSize=1;arcSize=9;strokeWidth=2.3;" vertex="1" parent="Z_htnbCvDEiTUhGgbJoy-95">
          <mxGeometry x="199.36647672555404" y="150" width="85.63352327444596" height="24" as="geometry" />
        </mxCell>
        <mxCell id="Z_htnbCvDEiTUhGgbJoy-114" value="" style="strokeColor=none;part=1;resizeHeight=0;align=center;verticalAlign=top;spacingLeft=4;spacingRight=4;overflow=hidden;rotatable=0;points=[[0,0.5],[1,0.5]];portConstraint=eastwest;whiteSpace=wrap;swimlaneFillColor=#ffffff;whiteSpace=wrap;fontSize=13;fillColor=none;strokeOpacity=100;fillOpacity=100;whiteSpace=wrap;spacing=0;rounded=1;absoluteArcSize=1;arcSize=9;strokeWidth=2.3;" vertex="1" parent="Z_htnbCvDEiTUhGgbJoy-95">
          <mxGeometry y="174" width="30" height="24" as="geometry" />
        </mxCell>
        <mxCell id="Z_htnbCvDEiTUhGgbJoy-115" value="zip_code" style="shape=partialRectangle;top=0;right=0;bottom=0;part=1;resizeHeight=0;align=left;verticalAlign=top;spacingLeft=4;spacingRight=4;overflow=hidden;rotatable=0;points=[[0,0.5],[1,0.5]];portConstraint=eastwest;whiteSpace=wrap;swimlaneFillColor=#ffffff;whiteSpace=wrap;fontSize=13;fillColor=none;strokeOpacity=100;fillOpacity=100;whiteSpace=wrap;spacing=0;strokeColor=#5e5e5e;rounded=1;absoluteArcSize=1;arcSize=9;strokeWidth=2.3;" vertex="1" parent="Z_htnbCvDEiTUhGgbJoy-95">
          <mxGeometry x="30" y="174" width="169.36647672555404" height="24" as="geometry" />
        </mxCell>
        <mxCell id="Z_htnbCvDEiTUhGgbJoy-116" value="varchar(6)" style="shape=partialRectangle;top=0;right=0;bottom=0;part=1;resizeHeight=0;align=left;verticalAlign=top;spacingLeft=4;spacingRight=4;overflow=hidden;rotatable=0;points=[[0,0.5],[1,0.5]];portConstraint=eastwest;whiteSpace=wrap;swimlaneFillColor=#ffffff;whiteSpace=wrap;fontSize=13;fillColor=none;strokeOpacity=100;fillOpacity=100;whiteSpace=wrap;spacing=0;strokeColor=#5e5e5e;rounded=1;absoluteArcSize=1;arcSize=9;strokeWidth=2.3;" vertex="1" parent="Z_htnbCvDEiTUhGgbJoy-95">
          <mxGeometry x="199.36647672555404" y="174" width="85.63352327444596" height="24" as="geometry" />
        </mxCell>
        <mxCell id="Z_htnbCvDEiTUhGgbJoy-117" value="" style="strokeColor=none;part=1;resizeHeight=0;align=center;verticalAlign=top;spacingLeft=4;spacingRight=4;overflow=hidden;rotatable=0;points=[[0,0.5],[1,0.5]];portConstraint=eastwest;whiteSpace=wrap;swimlaneFillColor=#ffffff;whiteSpace=wrap;fontSize=13;fillColor=#000000;fillOpacity=5;whiteSpace=wrap;spacing=0;strokeOpacity=100;rounded=1;absoluteArcSize=1;arcSize=9;strokeWidth=2.3;" vertex="1" parent="Z_htnbCvDEiTUhGgbJoy-95">
          <mxGeometry y="198" width="30" height="24" as="geometry" />
        </mxCell>
        <mxCell id="Z_htnbCvDEiTUhGgbJoy-118" value="shipment_memo" style="shape=partialRectangle;top=0;right=0;bottom=0;part=1;resizeHeight=0;align=left;verticalAlign=top;spacingLeft=4;spacingRight=4;overflow=hidden;rotatable=0;points=[[0,0.5],[1,0.5]];portConstraint=eastwest;whiteSpace=wrap;swimlaneFillColor=#ffffff;whiteSpace=wrap;fontSize=13;fillColor=#000000;fillOpacity=5;whiteSpace=wrap;spacing=0;strokeColor=#5e5e5e;strokeOpacity=100;rounded=1;absoluteArcSize=1;arcSize=9;strokeWidth=2.3;" vertex="1" parent="Z_htnbCvDEiTUhGgbJoy-95">
          <mxGeometry x="30" y="198" width="169.36647672555404" height="24" as="geometry" />
        </mxCell>
        <mxCell id="Z_htnbCvDEiTUhGgbJoy-119" value="varchar(200)" style="shape=partialRectangle;top=0;right=0;bottom=0;part=1;resizeHeight=0;align=left;verticalAlign=top;spacingLeft=4;spacingRight=4;overflow=hidden;rotatable=0;points=[[0,0.5],[1,0.5]];portConstraint=eastwest;whiteSpace=wrap;swimlaneFillColor=#ffffff;whiteSpace=wrap;fontSize=13;fillColor=#000000;fillOpacity=5;whiteSpace=wrap;spacing=0;strokeColor=#5e5e5e;strokeOpacity=100;rounded=1;absoluteArcSize=1;arcSize=9;strokeWidth=2.3;" vertex="1" parent="Z_htnbCvDEiTUhGgbJoy-95">
          <mxGeometry x="199.36647672555404" y="198" width="85.63352327444596" height="24" as="geometry" />
        </mxCell>
        <mxCell id="Z_htnbCvDEiTUhGgbJoy-120" value="Category(E)" style="html=1;overflow=block;blockSpacing=1;whiteSpace=wrap;swimlane;resizeParent=1;resizeParentMax=0;resizeLast=0;collapsible=0;marginBottom=0;fontStyle=0;swimlaneFillColor=#ffffff;startSize=30;whiteSpace=wrap;fontSize=13;fillColor=#fff2cc;whiteSpace=wrap;spacing=0;strokeColor=#d6b656;strokeOpacity=100;fillOpacity=100;rounded=1;absoluteArcSize=1;arcSize=9;strokeWidth=2.3;" vertex="1" parent="1">
          <mxGeometry x="1700" y="610" width="195" height="78" as="geometry" />
        </mxCell>
        <mxCell id="Z_htnbCvDEiTUhGgbJoy-121" value="PK" style="strokeColor=none;part=1;resizeHeight=0;align=center;verticalAlign=top;spacingLeft=4;spacingRight=4;overflow=hidden;rotatable=0;points=[[0,0.5],[1,0.5]];portConstraint=eastwest;whiteSpace=wrap;swimlaneFillColor=#ffffff;whiteSpace=wrap;fontSize=13;fillColor=none;strokeOpacity=100;fillOpacity=100;whiteSpace=wrap;spacing=0;rounded=1;absoluteArcSize=1;arcSize=9;strokeWidth=2.3;" vertex="1" parent="Z_htnbCvDEiTUhGgbJoy-120">
          <mxGeometry y="30" width="30" height="24" as="geometry" />
        </mxCell>
        <mxCell id="Z_htnbCvDEiTUhGgbJoy-122" value="id" style="shape=partialRectangle;top=0;right=0;bottom=0;part=1;resizeHeight=0;align=left;verticalAlign=top;spacingLeft=4;spacingRight=4;overflow=hidden;rotatable=0;points=[[0,0.5],[1,0.5]];portConstraint=eastwest;whiteSpace=wrap;swimlaneFillColor=#ffffff;whiteSpace=wrap;fontSize=13;fillColor=none;strokeOpacity=100;fillOpacity=100;whiteSpace=wrap;spacing=0;strokeColor=#5e5e5e;rounded=1;absoluteArcSize=1;arcSize=9;strokeWidth=2.3;" vertex="1" parent="Z_htnbCvDEiTUhGgbJoy-120">
          <mxGeometry x="30" y="30" width="125" height="24" as="geometry" />
        </mxCell>
        <mxCell id="Z_htnbCvDEiTUhGgbJoy-123" value="serial" style="shape=partialRectangle;top=0;right=0;bottom=0;part=1;resizeHeight=0;align=left;verticalAlign=top;spacingLeft=4;spacingRight=4;overflow=hidden;rotatable=0;points=[[0,0.5],[1,0.5]];portConstraint=eastwest;whiteSpace=wrap;swimlaneFillColor=#ffffff;whiteSpace=wrap;fontSize=13;fillColor=none;strokeOpacity=100;fillOpacity=100;whiteSpace=wrap;spacing=0;strokeColor=#5e5e5e;rounded=1;absoluteArcSize=1;arcSize=9;strokeWidth=2.3;" vertex="1" parent="Z_htnbCvDEiTUhGgbJoy-120">
          <mxGeometry x="155" y="30" width="40" height="24" as="geometry" />
        </mxCell>
        <mxCell id="Z_htnbCvDEiTUhGgbJoy-124" value="" style="strokeColor=none;part=1;resizeHeight=0;align=center;verticalAlign=top;spacingLeft=4;spacingRight=4;overflow=hidden;rotatable=0;points=[[0,0.5],[1,0.5]];portConstraint=eastwest;whiteSpace=wrap;swimlaneFillColor=#ffffff;whiteSpace=wrap;fontSize=13;fillColor=#000000;fillOpacity=5;whiteSpace=wrap;spacing=0;strokeOpacity=100;rounded=1;absoluteArcSize=1;arcSize=9;strokeWidth=2.3;" vertex="1" parent="Z_htnbCvDEiTUhGgbJoy-120">
          <mxGeometry y="54" width="30" height="24" as="geometry" />
        </mxCell>
        <mxCell id="Z_htnbCvDEiTUhGgbJoy-125" value="name" style="shape=partialRectangle;top=0;right=0;bottom=0;part=1;resizeHeight=0;align=left;verticalAlign=top;spacingLeft=4;spacingRight=4;overflow=hidden;rotatable=0;points=[[0,0.5],[1,0.5]];portConstraint=eastwest;whiteSpace=wrap;swimlaneFillColor=#ffffff;whiteSpace=wrap;fontSize=13;fillColor=#000000;fillOpacity=5;whiteSpace=wrap;spacing=0;strokeColor=#5e5e5e;strokeOpacity=100;rounded=1;absoluteArcSize=1;arcSize=9;strokeWidth=2.3;" vertex="1" parent="Z_htnbCvDEiTUhGgbJoy-120">
          <mxGeometry x="30" y="54" width="125" height="24" as="geometry" />
        </mxCell>
        <mxCell id="Z_htnbCvDEiTUhGgbJoy-126" value="varchar(10)" style="shape=partialRectangle;top=0;right=0;bottom=0;part=1;resizeHeight=0;align=left;verticalAlign=top;spacingLeft=4;spacingRight=4;overflow=hidden;rotatable=0;points=[[0,0.5],[1,0.5]];portConstraint=eastwest;whiteSpace=wrap;swimlaneFillColor=#ffffff;whiteSpace=wrap;fontSize=13;fillColor=#000000;fillOpacity=5;whiteSpace=wrap;spacing=0;strokeColor=#5e5e5e;strokeOpacity=100;rounded=1;absoluteArcSize=1;arcSize=9;strokeWidth=2.3;" vertex="1" parent="Z_htnbCvDEiTUhGgbJoy-120">
          <mxGeometry x="155" y="54" width="40" height="24" as="geometry" />
        </mxCell>
        <UserObject label="" lucidchartObjectId="UkGPKB-Oh7O8" id="Z_htnbCvDEiTUhGgbJoy-127">
          <mxCell style="html=1;jettySize=18;whiteSpace=wrap;fontSize=13;strokeColor=#5E5E5E;strokeWidth=1.5;rounded=1;arcSize=12;edgeStyle=orthogonalEdgeStyle;startArrow=none;startSize=16;;endArrow=ERoneToMany;endSize=10;;exitX=1.003;exitY=0.943;exitPerimeter=0;entryX=-0.005;entryY=0.538;entryPerimeter=0;endFill=0;" edge="1" parent="1" source="Z_htnbCvDEiTUhGgbJoy-302" target="Z_htnbCvDEiTUhGgbJoy-128">
            <mxGeometry width="100" height="100" relative="1" as="geometry">
              <Array as="points" />
            </mxGeometry>
          </mxCell>
        </UserObject>
        <mxCell id="Z_htnbCvDEiTUhGgbJoy-128" value="Image(W)" style="html=1;overflow=block;blockSpacing=1;whiteSpace=wrap;swimlane;resizeParent=1;resizeParentMax=0;resizeLast=0;collapsible=0;marginBottom=0;fontStyle=0;swimlaneFillColor=#ffffff;startSize=30;whiteSpace=wrap;fontSize=13;fillColor=#f8cecc;whiteSpace=wrap;spacing=0;strokeColor=#b85450;strokeOpacity=100;fillOpacity=100;rounded=1;absoluteArcSize=1;arcSize=9;strokeWidth=2.3;" vertex="1" parent="1">
          <mxGeometry x="2160" y="404" width="225" height="78" as="geometry" />
        </mxCell>
        <mxCell id="Z_htnbCvDEiTUhGgbJoy-129" value="PK, FK" style="strokeColor=none;part=1;resizeHeight=0;align=center;verticalAlign=top;spacingLeft=4;spacingRight=4;overflow=hidden;rotatable=0;points=[[0,0.5],[1,0.5]];portConstraint=eastwest;whiteSpace=wrap;swimlaneFillColor=#ffffff;whiteSpace=wrap;fontSize=13;fillColor=none;strokeOpacity=100;fillOpacity=100;whiteSpace=wrap;spacing=0;rounded=1;absoluteArcSize=1;arcSize=9;strokeWidth=2.3;" vertex="1" parent="Z_htnbCvDEiTUhGgbJoy-128">
          <mxGeometry y="30" width="61.12216840719418" height="24" as="geometry" />
        </mxCell>
        <mxCell id="Z_htnbCvDEiTUhGgbJoy-130" value="pid( RESTRICT )" style="shape=partialRectangle;top=0;right=0;bottom=0;part=1;resizeHeight=0;align=left;verticalAlign=top;spacingLeft=4;spacingRight=4;overflow=hidden;rotatable=0;points=[[0,0.5],[1,0.5]];portConstraint=eastwest;whiteSpace=wrap;swimlaneFillColor=#ffffff;whiteSpace=wrap;fontSize=13;fillColor=none;strokeOpacity=100;fillOpacity=100;whiteSpace=wrap;spacing=0;strokeColor=#5e5e5e;rounded=1;absoluteArcSize=1;arcSize=9;strokeWidth=2.3;" vertex="1" parent="Z_htnbCvDEiTUhGgbJoy-128">
          <mxGeometry x="61.12216840719418" y="30" width="123.87783159280582" height="24" as="geometry" />
        </mxCell>
        <mxCell id="Z_htnbCvDEiTUhGgbJoy-131" value="serial" style="shape=partialRectangle;top=0;right=0;bottom=0;part=1;resizeHeight=0;align=left;verticalAlign=top;spacingLeft=4;spacingRight=4;overflow=hidden;rotatable=0;points=[[0,0.5],[1,0.5]];portConstraint=eastwest;whiteSpace=wrap;swimlaneFillColor=#ffffff;whiteSpace=wrap;fontSize=13;fillColor=none;strokeOpacity=100;fillOpacity=100;whiteSpace=wrap;spacing=0;strokeColor=#5e5e5e;rounded=1;absoluteArcSize=1;arcSize=9;strokeWidth=2.3;" vertex="1" parent="Z_htnbCvDEiTUhGgbJoy-128">
          <mxGeometry x="185" y="30" width="40" height="24" as="geometry" />
        </mxCell>
        <mxCell id="Z_htnbCvDEiTUhGgbJoy-132" value="PK" style="strokeColor=none;part=1;resizeHeight=0;align=center;verticalAlign=top;spacingLeft=4;spacingRight=4;overflow=hidden;rotatable=0;points=[[0,0.5],[1,0.5]];portConstraint=eastwest;whiteSpace=wrap;swimlaneFillColor=#ffffff;whiteSpace=wrap;fontSize=13;fillColor=#000000;fillOpacity=5;whiteSpace=wrap;spacing=0;strokeOpacity=100;rounded=1;absoluteArcSize=1;arcSize=9;strokeWidth=2.3;" vertex="1" parent="Z_htnbCvDEiTUhGgbJoy-128">
          <mxGeometry y="54" width="61.12216840719418" height="24" as="geometry" />
        </mxCell>
        <mxCell id="Z_htnbCvDEiTUhGgbJoy-133" value="path" style="shape=partialRectangle;top=0;right=0;bottom=0;part=1;resizeHeight=0;align=left;verticalAlign=top;spacingLeft=4;spacingRight=4;overflow=hidden;rotatable=0;points=[[0,0.5],[1,0.5]];portConstraint=eastwest;whiteSpace=wrap;swimlaneFillColor=#ffffff;whiteSpace=wrap;fontSize=13;fillColor=#000000;fillOpacity=5;whiteSpace=wrap;spacing=0;strokeColor=#5e5e5e;strokeOpacity=100;rounded=1;absoluteArcSize=1;arcSize=9;strokeWidth=2.3;" vertex="1" parent="Z_htnbCvDEiTUhGgbJoy-128">
          <mxGeometry x="61.12216840719418" y="54" width="123.87783159280582" height="24" as="geometry" />
        </mxCell>
        <mxCell id="Z_htnbCvDEiTUhGgbJoy-134" value="varchar(50)" style="shape=partialRectangle;top=0;right=0;bottom=0;part=1;resizeHeight=0;align=left;verticalAlign=top;spacingLeft=4;spacingRight=4;overflow=hidden;rotatable=0;points=[[0,0.5],[1,0.5]];portConstraint=eastwest;whiteSpace=wrap;swimlaneFillColor=#ffffff;whiteSpace=wrap;fontSize=13;fillColor=#000000;fillOpacity=5;whiteSpace=wrap;spacing=0;strokeColor=#5e5e5e;strokeOpacity=100;rounded=1;absoluteArcSize=1;arcSize=9;strokeWidth=2.3;" vertex="1" parent="Z_htnbCvDEiTUhGgbJoy-128">
          <mxGeometry x="185" y="54" width="40" height="24" as="geometry" />
        </mxCell>
        <mxCell id="Z_htnbCvDEiTUhGgbJoy-135" value="Of" style="html=1;overflow=block;blockSpacing=1;whiteSpace=wrap;swimlane;resizeParent=1;resizeParentMax=0;resizeLast=0;collapsible=0;marginBottom=0;fontStyle=0;swimlaneFillColor=#ffffff;startSize=30;whiteSpace=wrap;fontSize=13;fillColor=#dae8fc;whiteSpace=wrap;spacing=0;strokeColor=#6c8ebf;strokeOpacity=100;fillOpacity=100;rounded=1;absoluteArcSize=1;arcSize=9;strokeWidth=2.3;" vertex="1" parent="1">
          <mxGeometry x="1131" y="245" width="210" height="81" as="geometry" />
        </mxCell>
        <mxCell id="Z_htnbCvDEiTUhGgbJoy-136" value="PK, FK" style="strokeColor=none;part=1;resizeHeight=0;align=center;verticalAlign=top;spacingLeft=4;spacingRight=4;overflow=hidden;rotatable=0;points=[[0,0.5],[1,0.5]];portConstraint=eastwest;whiteSpace=wrap;swimlaneFillColor=#ffffff;whiteSpace=wrap;fontSize=13;fillColor=none;strokeOpacity=100;fillOpacity=100;whiteSpace=wrap;spacing=0;rounded=1;absoluteArcSize=1;arcSize=9;strokeWidth=2.3;" vertex="1" parent="Z_htnbCvDEiTUhGgbJoy-135">
          <mxGeometry y="30" width="54.1842877902119" height="24" as="geometry" />
        </mxCell>
        <mxCell id="Z_htnbCvDEiTUhGgbJoy-137" value="pid( RESTRICT)" style="shape=partialRectangle;top=0;right=0;bottom=0;part=1;resizeHeight=0;align=left;verticalAlign=top;spacingLeft=4;spacingRight=4;overflow=hidden;rotatable=0;points=[[0,0.5],[1,0.5]];portConstraint=eastwest;whiteSpace=wrap;swimlaneFillColor=#ffffff;whiteSpace=wrap;fontSize=13;fillColor=none;strokeOpacity=100;fillOpacity=100;whiteSpace=wrap;spacing=0;strokeColor=#5e5e5e;rounded=1;absoluteArcSize=1;arcSize=9;strokeWidth=2.3;" vertex="1" parent="Z_htnbCvDEiTUhGgbJoy-135">
          <mxGeometry x="54.1842877902119" y="30" width="115.8157122097881" height="24" as="geometry" />
        </mxCell>
        <mxCell id="Z_htnbCvDEiTUhGgbJoy-138" value="int" style="shape=partialRectangle;top=0;right=0;bottom=0;part=1;resizeHeight=0;align=left;verticalAlign=top;spacingLeft=4;spacingRight=4;overflow=hidden;rotatable=0;points=[[0,0.5],[1,0.5]];portConstraint=eastwest;whiteSpace=wrap;swimlaneFillColor=#ffffff;whiteSpace=wrap;fontSize=13;fillColor=none;strokeOpacity=100;fillOpacity=100;whiteSpace=wrap;spacing=0;strokeColor=#5e5e5e;rounded=1;absoluteArcSize=1;arcSize=9;strokeWidth=2.3;" vertex="1" parent="Z_htnbCvDEiTUhGgbJoy-135">
          <mxGeometry x="170" y="30" width="40" height="24" as="geometry" />
        </mxCell>
        <mxCell id="Z_htnbCvDEiTUhGgbJoy-139" value="&lt;div style=&quot;display: flex; justify-content: center; text-align: center; align-items: baseline; font-size: 0; line-height: 1.25;margin-top: -2px;&quot;&gt;&lt;span&gt;&lt;span style=&quot;font-size:13px;&quot;&gt;PK,FK&lt;/span&gt;&lt;span style=&quot;font-size:16px;color:#000000;&quot;&gt;     &lt;/span&gt;&lt;/span&gt;&lt;/div&gt;" style="strokeColor=none;part=1;resizeHeight=0;align=center;verticalAlign=top;spacingLeft=4;spacingRight=4;overflow=hidden;rotatable=0;points=[[0,0.5],[1,0.5]];portConstraint=eastwest;whiteSpace=wrap;swimlaneFillColor=#ffffff;whiteSpace=wrap;fontSize=16;fontColor=#000000;fillColor=#000000;fillOpacity=5;whiteSpace=wrap;html=1;fontSize=13;spacing=0;strokeOpacity=100;rounded=1;absoluteArcSize=1;arcSize=9;strokeWidth=2.3;" vertex="1" parent="Z_htnbCvDEiTUhGgbJoy-135">
          <mxGeometry y="54" width="54.1842877902119" height="27" as="geometry" />
        </mxCell>
        <mxCell id="Z_htnbCvDEiTUhGgbJoy-140" value="color_id( RESTRICT )" style="shape=partialRectangle;top=0;right=0;bottom=0;part=1;resizeHeight=0;align=left;verticalAlign=top;spacingLeft=4;spacingRight=4;overflow=hidden;rotatable=0;points=[[0,0.5],[1,0.5]];portConstraint=eastwest;whiteSpace=wrap;swimlaneFillColor=#ffffff;whiteSpace=wrap;overflow=block;blockSpacing=1;html=1;fontSize=13;fillColor=#000000;fillOpacity=5;whiteSpace=wrap;spacing=0;strokeColor=#5e5e5e;strokeOpacity=100;rounded=1;absoluteArcSize=1;arcSize=9;strokeWidth=2.3;" vertex="1" parent="Z_htnbCvDEiTUhGgbJoy-135">
          <mxGeometry x="54.1842877902119" y="54" width="115.8157122097881" height="24" as="geometry" />
        </mxCell>
        <mxCell id="Z_htnbCvDEiTUhGgbJoy-141" value="int" style="shape=partialRectangle;top=0;right=0;bottom=0;part=1;resizeHeight=0;align=left;verticalAlign=top;spacingLeft=4;spacingRight=4;overflow=hidden;rotatable=0;points=[[0,0.5],[1,0.5]];portConstraint=eastwest;whiteSpace=wrap;swimlaneFillColor=#ffffff;whiteSpace=wrap;fontSize=13;fillColor=#000000;fillOpacity=5;whiteSpace=wrap;spacing=0;strokeColor=#5e5e5e;strokeOpacity=100;rounded=1;absoluteArcSize=1;arcSize=9;strokeWidth=2.3;" vertex="1" parent="Z_htnbCvDEiTUhGgbJoy-135">
          <mxGeometry x="170" y="54" width="40" height="24" as="geometry" />
        </mxCell>
        <UserObject label="" lucidchartObjectId="jlGPHXUkJ7hn" id="Z_htnbCvDEiTUhGgbJoy-142">
          <mxCell style="html=1;jettySize=18;whiteSpace=wrap;fontSize=13;strokeColor=#5E5E5E;strokeWidth=1.5;rounded=1;arcSize=12;edgeStyle=orthogonalEdgeStyle;startArrow=ERmandOne;startSize=16;;endArrow=none;endSize=10;;exitX=-0.003;exitY=0.82;exitPerimeter=0;entryX=1.006;entryY=0.221;entryPerimeter=0;endFill=0;startFill=0;" edge="1" parent="1" target="Z_htnbCvDEiTUhGgbJoy-143">
            <mxGeometry width="100" height="100" relative="1" as="geometry">
              <Array as="points" />
              <mxPoint x="1438.7399999999998" y="367.6399999999994" as="sourcePoint" />
            </mxGeometry>
          </mxCell>
        </UserObject>
        <mxCell id="Z_htnbCvDEiTUhGgbJoy-143" value="Of" style="html=1;overflow=block;blockSpacing=1;whiteSpace=wrap;swimlane;resizeParent=1;resizeParentMax=0;resizeLast=0;collapsible=0;marginBottom=0;fontStyle=0;swimlaneFillColor=#ffffff;startSize=30;whiteSpace=wrap;fontSize=13;fillColor=#dae8fc;whiteSpace=wrap;spacing=0;strokeColor=#6c8ebf;strokeOpacity=100;fillOpacity=100;rounded=1;absoluteArcSize=1;arcSize=9;strokeWidth=2.3;" vertex="1" parent="1">
          <mxGeometry x="1131" y="350" width="195" height="78" as="geometry" />
        </mxCell>
        <mxCell id="Z_htnbCvDEiTUhGgbJoy-144" value="PK,FK" style="strokeColor=none;part=1;resizeHeight=0;align=center;verticalAlign=top;spacingLeft=4;spacingRight=4;overflow=hidden;rotatable=0;points=[[0,0.5],[1,0.5]];portConstraint=eastwest;whiteSpace=wrap;swimlaneFillColor=#ffffff;whiteSpace=wrap;fontSize=13;fillColor=none;strokeOpacity=100;fillOpacity=100;whiteSpace=wrap;spacing=0;rounded=1;absoluteArcSize=1;arcSize=9;strokeWidth=2.3;" vertex="1" parent="Z_htnbCvDEiTUhGgbJoy-143">
          <mxGeometry y="30" width="55.21165510542403" height="24" as="geometry" />
        </mxCell>
        <mxCell id="Z_htnbCvDEiTUhGgbJoy-145" value="pid(RESTRICT)" style="shape=partialRectangle;top=0;right=0;bottom=0;part=1;resizeHeight=0;align=left;verticalAlign=top;spacingLeft=4;spacingRight=4;overflow=hidden;rotatable=0;points=[[0,0.5],[1,0.5]];portConstraint=eastwest;whiteSpace=wrap;swimlaneFillColor=#ffffff;whiteSpace=wrap;fontSize=13;fillColor=none;strokeOpacity=100;fillOpacity=100;whiteSpace=wrap;spacing=0;strokeColor=#5e5e5e;rounded=1;absoluteArcSize=1;arcSize=9;strokeWidth=2.3;" vertex="1" parent="Z_htnbCvDEiTUhGgbJoy-143">
          <mxGeometry x="55.21165510542403" y="30" width="99.78834489457597" height="24" as="geometry" />
        </mxCell>
        <mxCell id="Z_htnbCvDEiTUhGgbJoy-146" value="int" style="shape=partialRectangle;top=0;right=0;bottom=0;part=1;resizeHeight=0;align=left;verticalAlign=top;spacingLeft=4;spacingRight=4;overflow=hidden;rotatable=0;points=[[0,0.5],[1,0.5]];portConstraint=eastwest;whiteSpace=wrap;swimlaneFillColor=#ffffff;whiteSpace=wrap;fontSize=13;fillColor=none;strokeOpacity=100;fillOpacity=100;whiteSpace=wrap;spacing=0;strokeColor=#5e5e5e;rounded=1;absoluteArcSize=1;arcSize=9;strokeWidth=2.3;" vertex="1" parent="Z_htnbCvDEiTUhGgbJoy-143">
          <mxGeometry x="155" y="30" width="40" height="24" as="geometry" />
        </mxCell>
        <mxCell id="Z_htnbCvDEiTUhGgbJoy-147" value="PK, FK" style="strokeColor=none;part=1;resizeHeight=0;align=center;verticalAlign=top;spacingLeft=4;spacingRight=4;overflow=hidden;rotatable=0;points=[[0,0.5],[1,0.5]];portConstraint=eastwest;whiteSpace=wrap;swimlaneFillColor=#ffffff;whiteSpace=wrap;fontSize=13;fillColor=#000000;fillOpacity=5;whiteSpace=wrap;spacing=0;strokeOpacity=100;rounded=1;absoluteArcSize=1;arcSize=9;strokeWidth=2.3;" vertex="1" parent="Z_htnbCvDEiTUhGgbJoy-143">
          <mxGeometry y="54" width="55.21165510542403" height="24" as="geometry" />
        </mxCell>
        <mxCell id="Z_htnbCvDEiTUhGgbJoy-148" value="size(RESTRICT)" style="shape=partialRectangle;top=0;right=0;bottom=0;part=1;resizeHeight=0;align=left;verticalAlign=top;spacingLeft=4;spacingRight=4;overflow=hidden;rotatable=0;points=[[0,0.5],[1,0.5]];portConstraint=eastwest;whiteSpace=wrap;swimlaneFillColor=#ffffff;whiteSpace=wrap;fontSize=13;fillColor=#000000;fillOpacity=5;whiteSpace=wrap;spacing=0;strokeColor=#5e5e5e;strokeOpacity=100;rounded=1;absoluteArcSize=1;arcSize=9;strokeWidth=2.3;" vertex="1" parent="Z_htnbCvDEiTUhGgbJoy-143">
          <mxGeometry x="55.21165510542403" y="54" width="99.78834489457597" height="24" as="geometry" />
        </mxCell>
        <mxCell id="Z_htnbCvDEiTUhGgbJoy-149" value="int" style="shape=partialRectangle;top=0;right=0;bottom=0;part=1;resizeHeight=0;align=left;verticalAlign=top;spacingLeft=4;spacingRight=4;overflow=hidden;rotatable=0;points=[[0,0.5],[1,0.5]];portConstraint=eastwest;whiteSpace=wrap;swimlaneFillColor=#ffffff;whiteSpace=wrap;fontSize=13;fillColor=#000000;fillOpacity=5;whiteSpace=wrap;spacing=0;strokeColor=#5e5e5e;strokeOpacity=100;rounded=1;absoluteArcSize=1;arcSize=9;strokeWidth=2.3;" vertex="1" parent="Z_htnbCvDEiTUhGgbJoy-143">
          <mxGeometry x="155" y="54" width="40" height="24" as="geometry" />
        </mxCell>
        <UserObject label="" lucidchartObjectId="5DGPJDIIxtD." id="Z_htnbCvDEiTUhGgbJoy-157">
          <mxCell style="html=1;jettySize=18;whiteSpace=wrap;fontSize=13;strokeColor=#5E5E5E;strokeWidth=1.5;rounded=1;arcSize=12;edgeStyle=orthogonalEdgeStyle;startArrow=ERmandOne;startSize=10;;endArrow=none;;exitX=0.502;exitY=-0.005;exitPerimeter=0;entryX=0.5;entryY=1.021;entryPerimeter=0;" edge="1" parent="1" target="Z_htnbCvDEiTUhGgbJoy-274">
            <mxGeometry width="100" height="100" relative="1" as="geometry">
              <Array as="points" />
              <mxPoint x="-119.28000000000065" y="-361.3050000000003" as="sourcePoint" />
            </mxGeometry>
          </mxCell>
        </UserObject>
        <mxCell id="Z_htnbCvDEiTUhGgbJoy-158" value="Order_Status(E)" style="html=1;overflow=block;blockSpacing=1;whiteSpace=wrap;swimlane;resizeParent=1;resizeParentMax=0;resizeLast=0;collapsible=0;marginBottom=0;fontStyle=0;swimlaneFillColor=#ffffff;startSize=30;whiteSpace=wrap;fontSize=13;fillColor=#ffe6cc;whiteSpace=wrap;spacing=0;strokeColor=#d79b00;strokeOpacity=100;fillOpacity=100;rounded=1;absoluteArcSize=1;arcSize=9;strokeWidth=2.3;" vertex="1" parent="1">
          <mxGeometry x="-164" y="-630" width="210" height="78" as="geometry" />
        </mxCell>
        <mxCell id="Z_htnbCvDEiTUhGgbJoy-159" value="PK" style="strokeColor=none;part=1;resizeHeight=0;align=center;verticalAlign=top;spacingLeft=4;spacingRight=4;overflow=hidden;rotatable=0;points=[[0,0.5],[1,0.5]];portConstraint=eastwest;whiteSpace=wrap;swimlaneFillColor=#ffffff;whiteSpace=wrap;fontSize=13;fillColor=none;strokeOpacity=100;fillOpacity=100;whiteSpace=wrap;spacing=0;rounded=1;absoluteArcSize=1;arcSize=9;strokeWidth=2.3;" vertex="1" parent="Z_htnbCvDEiTUhGgbJoy-158">
          <mxGeometry y="30" width="30" height="24" as="geometry" />
        </mxCell>
        <mxCell id="Z_htnbCvDEiTUhGgbJoy-160" value="id" style="shape=partialRectangle;top=0;right=0;bottom=0;part=1;resizeHeight=0;align=left;verticalAlign=top;spacingLeft=4;spacingRight=4;overflow=hidden;rotatable=0;points=[[0,0.5],[1,0.5]];portConstraint=eastwest;whiteSpace=wrap;swimlaneFillColor=#ffffff;whiteSpace=wrap;fontSize=13;fillColor=none;strokeOpacity=100;fillOpacity=100;whiteSpace=wrap;spacing=0;strokeColor=#5e5e5e;rounded=1;absoluteArcSize=1;arcSize=9;strokeWidth=2.3;" vertex="1" parent="Z_htnbCvDEiTUhGgbJoy-158">
          <mxGeometry x="30" y="30" width="81.45657122727766" height="24" as="geometry" />
        </mxCell>
        <mxCell id="Z_htnbCvDEiTUhGgbJoy-161" value="serial" style="shape=partialRectangle;top=0;right=0;bottom=0;part=1;resizeHeight=0;align=left;verticalAlign=top;spacingLeft=4;spacingRight=4;overflow=hidden;rotatable=0;points=[[0,0.5],[1,0.5]];portConstraint=eastwest;whiteSpace=wrap;swimlaneFillColor=#ffffff;whiteSpace=wrap;fontSize=13;fillColor=none;strokeOpacity=100;fillOpacity=100;whiteSpace=wrap;spacing=0;strokeColor=#5e5e5e;rounded=1;absoluteArcSize=1;arcSize=9;strokeWidth=2.3;" vertex="1" parent="Z_htnbCvDEiTUhGgbJoy-158">
          <mxGeometry x="111.45657122727766" y="30" width="98.54342877272234" height="24" as="geometry" />
        </mxCell>
        <mxCell id="Z_htnbCvDEiTUhGgbJoy-162" value="" style="strokeColor=none;part=1;resizeHeight=0;align=center;verticalAlign=top;spacingLeft=4;spacingRight=4;overflow=hidden;rotatable=0;points=[[0,0.5],[1,0.5]];portConstraint=eastwest;whiteSpace=wrap;swimlaneFillColor=#ffffff;whiteSpace=wrap;fontSize=13;fillColor=#000000;fillOpacity=5;whiteSpace=wrap;spacing=0;strokeOpacity=100;rounded=1;absoluteArcSize=1;arcSize=9;strokeWidth=2.3;" vertex="1" parent="Z_htnbCvDEiTUhGgbJoy-158">
          <mxGeometry y="54" width="30" height="24" as="geometry" />
        </mxCell>
        <mxCell id="Z_htnbCvDEiTUhGgbJoy-163" value="status" style="shape=partialRectangle;top=0;right=0;bottom=0;part=1;resizeHeight=0;align=left;verticalAlign=top;spacingLeft=4;spacingRight=4;overflow=hidden;rotatable=0;points=[[0,0.5],[1,0.5]];portConstraint=eastwest;whiteSpace=wrap;swimlaneFillColor=#ffffff;whiteSpace=wrap;fontSize=13;fillColor=#000000;fillOpacity=5;whiteSpace=wrap;spacing=0;strokeColor=#5e5e5e;strokeOpacity=100;rounded=1;absoluteArcSize=1;arcSize=9;strokeWidth=2.3;" vertex="1" parent="Z_htnbCvDEiTUhGgbJoy-158">
          <mxGeometry x="30" y="54" width="81.45657122727766" height="24" as="geometry" />
        </mxCell>
        <mxCell id="Z_htnbCvDEiTUhGgbJoy-164" value="varchar(20)" style="shape=partialRectangle;top=0;right=0;bottom=0;part=1;resizeHeight=0;align=left;verticalAlign=top;spacingLeft=4;spacingRight=4;overflow=hidden;rotatable=0;points=[[0,0.5],[1,0.5]];portConstraint=eastwest;whiteSpace=wrap;swimlaneFillColor=#ffffff;whiteSpace=wrap;fontSize=13;fillColor=#000000;fillOpacity=5;whiteSpace=wrap;spacing=0;strokeColor=#5e5e5e;strokeOpacity=100;rounded=1;absoluteArcSize=1;arcSize=9;strokeWidth=2.3;" vertex="1" parent="Z_htnbCvDEiTUhGgbJoy-158">
          <mxGeometry x="111.45657122727766" y="54" width="98.54342877272234" height="24" as="geometry" />
        </mxCell>
        <UserObject label="" lucidchartObjectId="NHGPKk87mRjN" id="Z_htnbCvDEiTUhGgbJoy-165">
          <mxCell style="html=1;jettySize=18;whiteSpace=wrap;fontSize=13;strokeColor=#5E5E5E;strokeWidth=1.5;rounded=1;arcSize=12;edgeStyle=orthogonalEdgeStyle;startArrow=ERzeroToMany;startSize=10;;endArrow=none;;exitX=1.003;exitY=0.352;exitPerimeter=0;entryX=-0.003;entryY=0.28;entryPerimeter=0;" edge="1" parent="1" target="Z_htnbCvDEiTUhGgbJoy-166">
            <mxGeometry width="100" height="100" relative="1" as="geometry">
              <Array as="points" />
              <mxPoint x="61.07999999999993" y="-268.1279999999997" as="sourcePoint" />
            </mxGeometry>
          </mxCell>
        </UserObject>
        <mxCell id="Z_htnbCvDEiTUhGgbJoy-166" value="Ordered_product(R)" style="html=1;overflow=block;blockSpacing=1;whiteSpace=wrap;swimlane;resizeParent=1;resizeParentMax=0;resizeLast=0;collapsible=0;marginBottom=0;fontStyle=0;swimlaneFillColor=#ffffff;startSize=30;whiteSpace=wrap;fontSize=13;fillColor=#dae8fc;whiteSpace=wrap;spacing=0;strokeColor=#6c8ebf;strokeOpacity=100;fillOpacity=100;rounded=1;absoluteArcSize=1;arcSize=9;strokeWidth=2.3;" vertex="1" parent="1">
          <mxGeometry x="286" y="30" width="345" height="150" as="geometry" />
        </mxCell>
        <mxCell id="Z_htnbCvDEiTUhGgbJoy-167" value="FK, PK" style="strokeColor=none;part=1;resizeHeight=0;align=center;verticalAlign=top;spacingLeft=4;spacingRight=4;overflow=hidden;rotatable=0;points=[[0,0.5],[1,0.5]];portConstraint=eastwest;whiteSpace=wrap;swimlaneFillColor=#ffffff;whiteSpace=wrap;fontSize=13;fillColor=none;strokeOpacity=100;fillOpacity=100;whiteSpace=wrap;spacing=0;rounded=1;absoluteArcSize=1;arcSize=9;strokeWidth=2.3;" vertex="1" parent="Z_htnbCvDEiTUhGgbJoy-166">
          <mxGeometry y="30" width="60.708695021294375" height="24" as="geometry" />
        </mxCell>
        <mxCell id="Z_htnbCvDEiTUhGgbJoy-168" value="pid( RESTRICT )" style="shape=partialRectangle;top=0;right=0;bottom=0;part=1;resizeHeight=0;align=left;verticalAlign=top;spacingLeft=4;spacingRight=4;overflow=hidden;rotatable=0;points=[[0,0.5],[1,0.5]];portConstraint=eastwest;whiteSpace=wrap;swimlaneFillColor=#ffffff;whiteSpace=wrap;fontSize=13;fillColor=none;strokeOpacity=100;fillOpacity=100;whiteSpace=wrap;spacing=0;strokeColor=#5e5e5e;rounded=1;absoluteArcSize=1;arcSize=9;strokeWidth=2.3;" vertex="1" parent="Z_htnbCvDEiTUhGgbJoy-166">
          <mxGeometry x="60.708695021294375" y="30" width="180.72484435513888" height="24" as="geometry" />
        </mxCell>
        <mxCell id="Z_htnbCvDEiTUhGgbJoy-169" value="int" style="shape=partialRectangle;top=0;right=0;bottom=0;part=1;resizeHeight=0;align=left;verticalAlign=top;spacingLeft=4;spacingRight=4;overflow=hidden;rotatable=0;points=[[0,0.5],[1,0.5]];portConstraint=eastwest;whiteSpace=wrap;swimlaneFillColor=#ffffff;whiteSpace=wrap;fontSize=13;fillColor=none;strokeOpacity=100;fillOpacity=100;whiteSpace=wrap;spacing=0;strokeColor=#5e5e5e;rounded=1;absoluteArcSize=1;arcSize=9;strokeWidth=2.3;" vertex="1" parent="Z_htnbCvDEiTUhGgbJoy-166">
          <mxGeometry x="241.43353937643326" y="30" width="103.56646062356674" height="24" as="geometry" />
        </mxCell>
        <mxCell id="Z_htnbCvDEiTUhGgbJoy-170" value="FK, PK" style="strokeColor=none;part=1;resizeHeight=0;align=center;verticalAlign=top;spacingLeft=4;spacingRight=4;overflow=hidden;rotatable=0;points=[[0,0.5],[1,0.5]];portConstraint=eastwest;whiteSpace=wrap;swimlaneFillColor=#ffffff;whiteSpace=wrap;fontSize=13;fillColor=#000000;fillOpacity=5;whiteSpace=wrap;spacing=0;strokeOpacity=100;rounded=1;absoluteArcSize=1;arcSize=9;strokeWidth=2.3;" vertex="1" parent="Z_htnbCvDEiTUhGgbJoy-166">
          <mxGeometry y="54" width="60.708695021294375" height="24" as="geometry" />
        </mxCell>
        <mxCell id="Z_htnbCvDEiTUhGgbJoy-171" value="oid( RESTRICT )" style="shape=partialRectangle;top=0;right=0;bottom=0;part=1;resizeHeight=0;align=left;verticalAlign=top;spacingLeft=4;spacingRight=4;overflow=hidden;rotatable=0;points=[[0,0.5],[1,0.5]];portConstraint=eastwest;whiteSpace=wrap;swimlaneFillColor=#ffffff;whiteSpace=wrap;fontSize=13;fillColor=#000000;fillOpacity=5;whiteSpace=wrap;spacing=0;strokeColor=#5e5e5e;strokeOpacity=100;rounded=1;absoluteArcSize=1;arcSize=9;strokeWidth=2.3;" vertex="1" parent="Z_htnbCvDEiTUhGgbJoy-166">
          <mxGeometry x="60.708695021294375" y="54" width="180.72484435513888" height="24" as="geometry" />
        </mxCell>
        <mxCell id="Z_htnbCvDEiTUhGgbJoy-172" value="int" style="shape=partialRectangle;top=0;right=0;bottom=0;part=1;resizeHeight=0;align=left;verticalAlign=top;spacingLeft=4;spacingRight=4;overflow=hidden;rotatable=0;points=[[0,0.5],[1,0.5]];portConstraint=eastwest;whiteSpace=wrap;swimlaneFillColor=#ffffff;whiteSpace=wrap;fontSize=13;fillColor=#000000;fillOpacity=5;whiteSpace=wrap;spacing=0;strokeColor=#5e5e5e;strokeOpacity=100;rounded=1;absoluteArcSize=1;arcSize=9;strokeWidth=2.3;" vertex="1" parent="Z_htnbCvDEiTUhGgbJoy-166">
          <mxGeometry x="241.43353937643326" y="54" width="103.56646062356674" height="24" as="geometry" />
        </mxCell>
        <mxCell id="Z_htnbCvDEiTUhGgbJoy-173" value="FK" style="strokeColor=none;part=1;resizeHeight=0;align=center;verticalAlign=top;spacingLeft=4;spacingRight=4;overflow=hidden;rotatable=0;points=[[0,0.5],[1,0.5]];portConstraint=eastwest;whiteSpace=wrap;swimlaneFillColor=#ffffff;whiteSpace=wrap;fontSize=13;fillColor=none;strokeOpacity=100;fillOpacity=100;whiteSpace=wrap;spacing=0;rounded=1;absoluteArcSize=1;arcSize=9;strokeWidth=2.3;" vertex="1" parent="Z_htnbCvDEiTUhGgbJoy-166">
          <mxGeometry y="78" width="60.708695021294375" height="24" as="geometry" />
        </mxCell>
        <mxCell id="Z_htnbCvDEiTUhGgbJoy-174" value="color(ordered)(RESTRICT)" style="shape=partialRectangle;top=0;right=0;bottom=0;part=1;resizeHeight=0;align=left;verticalAlign=top;spacingLeft=4;spacingRight=4;overflow=hidden;rotatable=0;points=[[0,0.5],[1,0.5]];portConstraint=eastwest;whiteSpace=wrap;swimlaneFillColor=#ffffff;whiteSpace=wrap;fontSize=13;fillColor=none;strokeOpacity=100;fillOpacity=100;whiteSpace=wrap;spacing=0;strokeColor=#5e5e5e;rounded=1;absoluteArcSize=1;arcSize=9;strokeWidth=2.3;" vertex="1" parent="Z_htnbCvDEiTUhGgbJoy-166">
          <mxGeometry x="60.708695021294375" y="78" width="180.72484435513888" height="24" as="geometry" />
        </mxCell>
        <mxCell id="Z_htnbCvDEiTUhGgbJoy-175" value="int" style="shape=partialRectangle;top=0;right=0;bottom=0;part=1;resizeHeight=0;align=left;verticalAlign=top;spacingLeft=4;spacingRight=4;overflow=hidden;rotatable=0;points=[[0,0.5],[1,0.5]];portConstraint=eastwest;whiteSpace=wrap;swimlaneFillColor=#ffffff;whiteSpace=wrap;fontSize=13;fillColor=none;strokeOpacity=100;fillOpacity=100;whiteSpace=wrap;spacing=0;strokeColor=#5e5e5e;rounded=1;absoluteArcSize=1;arcSize=9;strokeWidth=2.3;" vertex="1" parent="Z_htnbCvDEiTUhGgbJoy-166">
          <mxGeometry x="241.43353937643326" y="78" width="103.56646062356674" height="24" as="geometry" />
        </mxCell>
        <mxCell id="Z_htnbCvDEiTUhGgbJoy-176" value="FK" style="strokeColor=none;part=1;resizeHeight=0;align=center;verticalAlign=top;spacingLeft=4;spacingRight=4;overflow=hidden;rotatable=0;points=[[0,0.5],[1,0.5]];portConstraint=eastwest;whiteSpace=wrap;swimlaneFillColor=#ffffff;whiteSpace=wrap;fontSize=13;fillColor=#000000;fillOpacity=5;whiteSpace=wrap;spacing=0;strokeOpacity=100;rounded=1;absoluteArcSize=1;arcSize=9;strokeWidth=2.3;" vertex="1" parent="Z_htnbCvDEiTUhGgbJoy-166">
          <mxGeometry y="102" width="60.708695021294375" height="24" as="geometry" />
        </mxCell>
        <mxCell id="Z_htnbCvDEiTUhGgbJoy-177" value="size(ordered)(RESTRICT)" style="shape=partialRectangle;top=0;right=0;bottom=0;part=1;resizeHeight=0;align=left;verticalAlign=top;spacingLeft=4;spacingRight=4;overflow=hidden;rotatable=0;points=[[0,0.5],[1,0.5]];portConstraint=eastwest;whiteSpace=wrap;swimlaneFillColor=#ffffff;whiteSpace=wrap;fontSize=13;fillColor=#000000;fillOpacity=5;whiteSpace=wrap;spacing=0;strokeColor=#5e5e5e;strokeOpacity=100;rounded=1;absoluteArcSize=1;arcSize=9;strokeWidth=2.3;" vertex="1" parent="Z_htnbCvDEiTUhGgbJoy-166">
          <mxGeometry x="60.708695021294375" y="102" width="180.72484435513888" height="24" as="geometry" />
        </mxCell>
        <mxCell id="Z_htnbCvDEiTUhGgbJoy-178" value="int" style="shape=partialRectangle;top=0;right=0;bottom=0;part=1;resizeHeight=0;align=left;verticalAlign=top;spacingLeft=4;spacingRight=4;overflow=hidden;rotatable=0;points=[[0,0.5],[1,0.5]];portConstraint=eastwest;whiteSpace=wrap;swimlaneFillColor=#ffffff;whiteSpace=wrap;fontSize=13;fillColor=#000000;fillOpacity=5;whiteSpace=wrap;spacing=0;strokeColor=#5e5e5e;strokeOpacity=100;rounded=1;absoluteArcSize=1;arcSize=9;strokeWidth=2.3;" vertex="1" parent="Z_htnbCvDEiTUhGgbJoy-166">
          <mxGeometry x="241.43353937643326" y="102" width="103.56646062356674" height="24" as="geometry" />
        </mxCell>
        <mxCell id="Z_htnbCvDEiTUhGgbJoy-179" value="" style="strokeColor=none;part=1;resizeHeight=0;align=center;verticalAlign=top;spacingLeft=4;spacingRight=4;overflow=hidden;rotatable=0;points=[[0,0.5],[1,0.5]];portConstraint=eastwest;whiteSpace=wrap;swimlaneFillColor=#ffffff;whiteSpace=wrap;fontSize=13;fillColor=none;strokeOpacity=100;fillOpacity=100;whiteSpace=wrap;spacing=0;rounded=1;absoluteArcSize=1;arcSize=9;strokeWidth=2.3;" vertex="1" parent="Z_htnbCvDEiTUhGgbJoy-166">
          <mxGeometry y="126" width="60.708695021294375" height="24" as="geometry" />
        </mxCell>
        <mxCell id="Z_htnbCvDEiTUhGgbJoy-180" value="count" style="shape=partialRectangle;top=0;right=0;bottom=0;part=1;resizeHeight=0;align=left;verticalAlign=top;spacingLeft=4;spacingRight=4;overflow=hidden;rotatable=0;points=[[0,0.5],[1,0.5]];portConstraint=eastwest;whiteSpace=wrap;swimlaneFillColor=#ffffff;whiteSpace=wrap;fontSize=13;fillColor=none;strokeOpacity=100;fillOpacity=100;whiteSpace=wrap;spacing=0;strokeColor=#5e5e5e;rounded=1;absoluteArcSize=1;arcSize=9;strokeWidth=2.3;" vertex="1" parent="Z_htnbCvDEiTUhGgbJoy-166">
          <mxGeometry x="60.708695021294375" y="126" width="180.72484435513888" height="24" as="geometry" />
        </mxCell>
        <mxCell id="Z_htnbCvDEiTUhGgbJoy-181" value="int" style="shape=partialRectangle;top=0;right=0;bottom=0;part=1;resizeHeight=0;align=left;verticalAlign=top;spacingLeft=4;spacingRight=4;overflow=hidden;rotatable=0;points=[[0,0.5],[1,0.5]];portConstraint=eastwest;whiteSpace=wrap;swimlaneFillColor=#ffffff;whiteSpace=wrap;fontSize=13;fillColor=none;strokeOpacity=100;fillOpacity=100;whiteSpace=wrap;spacing=0;strokeColor=#5e5e5e;rounded=1;absoluteArcSize=1;arcSize=9;strokeWidth=2.3;" vertex="1" parent="Z_htnbCvDEiTUhGgbJoy-166">
          <mxGeometry x="241.43353937643326" y="126" width="103.56646062356674" height="24" as="geometry" />
        </mxCell>
        <UserObject label="" lucidchartObjectId="PNGPrxtnFiWt" id="Z_htnbCvDEiTUhGgbJoy-182">
          <mxCell style="html=1;jettySize=18;whiteSpace=wrap;fontSize=13;strokeColor=#5E5E5E;strokeWidth=1.5;rounded=1;arcSize=12;edgeStyle=orthogonalEdgeStyle;startArrow=ERmandOne;startSize=16;;endArrow=none;endSize=10;;exitX=-0.006;exitY=0.538;exitPerimeter=0;entryX=1.003;entryY=0.6;entryPerimeter=0;endFill=0;startFill=0;" edge="1" parent="1" source="Z_htnbCvDEiTUhGgbJoy-197" target="Z_htnbCvDEiTUhGgbJoy-166">
            <mxGeometry width="100" height="100" relative="1" as="geometry">
              <Array as="points" />
            </mxGeometry>
          </mxCell>
        </UserObject>
        <UserObject label="" lucidchartObjectId="UNGPB~.1jVB3" id="Z_htnbCvDEiTUhGgbJoy-183">
          <mxCell style="html=1;jettySize=18;whiteSpace=wrap;fontSize=13;strokeColor=#5E5E5E;strokeWidth=1.5;rounded=1;arcSize=12;edgeStyle=orthogonalEdgeStyle;startArrow=ERmandOne;startSize=16;;endArrow=none;endSize=10;;exitX=-0.006;exitY=0.538;exitPerimeter=0;entryX=1.003;entryY=0.76;entryPerimeter=0;endFill=0;startFill=0;" edge="1" parent="1" source="Z_htnbCvDEiTUhGgbJoy-187" target="Z_htnbCvDEiTUhGgbJoy-166">
            <mxGeometry width="100" height="100" relative="1" as="geometry">
              <Array as="points" />
            </mxGeometry>
          </mxCell>
        </UserObject>
        <UserObject label="" lucidchartObjectId="TSGPWdFoJ02k" id="Z_htnbCvDEiTUhGgbJoy-184">
          <mxCell style="html=1;jettySize=18;whiteSpace=wrap;fontSize=13;strokeColor=#5E5E5E;strokeWidth=1.5;rounded=1;arcSize=12;edgeStyle=orthogonalEdgeStyle;startArrow=none;;endArrow=ERoneToMany;endSize=10;;exitX=1.003;exitY=0.1;exitPerimeter=0;entryX=0.375;entryY=-0.001;entryDx=0;entryDy=0;entryPerimeter=0;" edge="1" parent="1" source="Z_htnbCvDEiTUhGgbJoy-166" target="Z_htnbCvDEiTUhGgbJoy-324">
            <mxGeometry width="100" height="100" relative="1" as="geometry">
              <Array as="points" />
              <mxPoint x="1620" y="45" as="targetPoint" />
            </mxGeometry>
          </mxCell>
        </UserObject>
        <UserObject label="" lucidchartObjectId="5YGPItmvSlD3" id="Z_htnbCvDEiTUhGgbJoy-186">
          <mxCell style="html=1;jettySize=18;whiteSpace=wrap;fontSize=13;strokeColor=#5E5E5E;strokeWidth=1.5;rounded=1;arcSize=12;edgeStyle=orthogonalEdgeStyle;startArrow=none;startSize=16;;endArrow=ERoneToMany;endSize=10;;exitX=0.5;exitY=-0.014;exitPerimeter=0;entryX=0.839;entryY=1.006;entryPerimeter=0;endFill=0;" edge="1" parent="1" source="Z_htnbCvDEiTUhGgbJoy-296">
            <mxGeometry width="100" height="100" relative="1" as="geometry">
              <Array as="points" />
              <mxPoint x="1792.380000000001" y="405.21199999999953" as="targetPoint" />
            </mxGeometry>
          </mxCell>
        </UserObject>
        <mxCell id="Z_htnbCvDEiTUhGgbJoy-187" value="Size(E)" style="html=1;overflow=block;blockSpacing=1;whiteSpace=wrap;swimlane;resizeParent=1;resizeParentMax=0;resizeLast=0;collapsible=0;marginBottom=0;fontStyle=0;swimlaneFillColor=#ffffff;startSize=30;whiteSpace=wrap;fontSize=13;fillColor=#fff2cc;whiteSpace=wrap;spacing=0;strokeColor=#d6b656;strokeOpacity=100;fillOpacity=100;rounded=1;absoluteArcSize=1;arcSize=9;strokeWidth=2.3;" vertex="1" parent="1">
          <mxGeometry x="846" y="355" width="195" height="78" as="geometry" />
        </mxCell>
        <mxCell id="Z_htnbCvDEiTUhGgbJoy-188" value="PK" style="strokeColor=none;part=1;resizeHeight=0;align=center;verticalAlign=top;spacingLeft=4;spacingRight=4;overflow=hidden;rotatable=0;points=[[0,0.5],[1,0.5]];portConstraint=eastwest;whiteSpace=wrap;swimlaneFillColor=#ffffff;whiteSpace=wrap;fontSize=13;fillColor=none;strokeOpacity=100;fillOpacity=100;whiteSpace=wrap;spacing=0;rounded=1;absoluteArcSize=1;arcSize=9;strokeWidth=2.3;" vertex="1" parent="Z_htnbCvDEiTUhGgbJoy-187">
          <mxGeometry y="30" width="30" height="24" as="geometry" />
        </mxCell>
        <mxCell id="Z_htnbCvDEiTUhGgbJoy-189" value="id" style="shape=partialRectangle;top=0;right=0;bottom=0;part=1;resizeHeight=0;align=left;verticalAlign=top;spacingLeft=4;spacingRight=4;overflow=hidden;rotatable=0;points=[[0,0.5],[1,0.5]];portConstraint=eastwest;whiteSpace=wrap;swimlaneFillColor=#ffffff;whiteSpace=wrap;fontSize=13;fillColor=none;strokeOpacity=100;fillOpacity=100;whiteSpace=wrap;spacing=0;strokeColor=#5e5e5e;rounded=1;absoluteArcSize=1;arcSize=9;strokeWidth=2.3;" vertex="1" parent="Z_htnbCvDEiTUhGgbJoy-187">
          <mxGeometry x="30" y="30" width="125" height="24" as="geometry" />
        </mxCell>
        <mxCell id="Z_htnbCvDEiTUhGgbJoy-190" value="serial" style="shape=partialRectangle;top=0;right=0;bottom=0;part=1;resizeHeight=0;align=left;verticalAlign=top;spacingLeft=4;spacingRight=4;overflow=hidden;rotatable=0;points=[[0,0.5],[1,0.5]];portConstraint=eastwest;whiteSpace=wrap;swimlaneFillColor=#ffffff;whiteSpace=wrap;fontSize=13;fillColor=none;strokeOpacity=100;fillOpacity=100;whiteSpace=wrap;spacing=0;strokeColor=#5e5e5e;rounded=1;absoluteArcSize=1;arcSize=9;strokeWidth=2.3;" vertex="1" parent="Z_htnbCvDEiTUhGgbJoy-187">
          <mxGeometry x="155" y="30" width="40" height="24" as="geometry" />
        </mxCell>
        <mxCell id="Z_htnbCvDEiTUhGgbJoy-191" value="" style="strokeColor=none;part=1;resizeHeight=0;align=center;verticalAlign=top;spacingLeft=4;spacingRight=4;overflow=hidden;rotatable=0;points=[[0,0.5],[1,0.5]];portConstraint=eastwest;whiteSpace=wrap;swimlaneFillColor=#ffffff;whiteSpace=wrap;fontSize=13;fillColor=#000000;fillOpacity=5;whiteSpace=wrap;spacing=0;strokeOpacity=100;rounded=1;absoluteArcSize=1;arcSize=9;strokeWidth=2.3;" vertex="1" parent="Z_htnbCvDEiTUhGgbJoy-187">
          <mxGeometry y="54" width="30" height="24" as="geometry" />
        </mxCell>
        <mxCell id="Z_htnbCvDEiTUhGgbJoy-192" value="size" style="shape=partialRectangle;top=0;right=0;bottom=0;part=1;resizeHeight=0;align=left;verticalAlign=top;spacingLeft=4;spacingRight=4;overflow=hidden;rotatable=0;points=[[0,0.5],[1,0.5]];portConstraint=eastwest;whiteSpace=wrap;swimlaneFillColor=#ffffff;whiteSpace=wrap;fontSize=13;fillColor=#000000;fillOpacity=5;whiteSpace=wrap;spacing=0;strokeColor=#5e5e5e;strokeOpacity=100;rounded=1;absoluteArcSize=1;arcSize=9;strokeWidth=2.3;" vertex="1" parent="Z_htnbCvDEiTUhGgbJoy-187">
          <mxGeometry x="30" y="54" width="125" height="24" as="geometry" />
        </mxCell>
        <mxCell id="Z_htnbCvDEiTUhGgbJoy-193" value="varchar(10)" style="shape=partialRectangle;top=0;right=0;bottom=0;part=1;resizeHeight=0;align=left;verticalAlign=top;spacingLeft=4;spacingRight=4;overflow=hidden;rotatable=0;points=[[0,0.5],[1,0.5]];portConstraint=eastwest;whiteSpace=wrap;swimlaneFillColor=#ffffff;whiteSpace=wrap;fontSize=13;fillColor=#000000;fillOpacity=5;whiteSpace=wrap;spacing=0;strokeColor=#5e5e5e;strokeOpacity=100;rounded=1;absoluteArcSize=1;arcSize=9;strokeWidth=2.3;" vertex="1" parent="Z_htnbCvDEiTUhGgbJoy-187">
          <mxGeometry x="155" y="54" width="40" height="24" as="geometry" />
        </mxCell>
        <UserObject label="" lucidchartObjectId="63GPxVTK0_7C" id="Z_htnbCvDEiTUhGgbJoy-194">
          <mxCell style="html=1;jettySize=18;whiteSpace=wrap;fontSize=13;strokeColor=#5E5E5E;strokeWidth=1.5;rounded=1;arcSize=12;edgeStyle=orthogonalEdgeStyle;startArrow=none;startSize=16;;endArrow=ERoneToMany;endSize=10;;exitX=-0.006;exitY=0.539;exitPerimeter=0;entryX=1.006;entryY=0.472;entryPerimeter=0;startFill=0;endFill=0;" edge="1" parent="1" source="Z_htnbCvDEiTUhGgbJoy-143" target="Z_htnbCvDEiTUhGgbJoy-187">
            <mxGeometry width="100" height="100" relative="1" as="geometry">
              <Array as="points" />
            </mxGeometry>
          </mxCell>
        </UserObject>
        <UserObject label="" lucidchartObjectId="W6GPnNYUiuhu" id="Z_htnbCvDEiTUhGgbJoy-195">
          <mxCell style="html=1;jettySize=18;whiteSpace=wrap;fontSize=13;strokeColor=#5E5E5E;strokeWidth=1.5;rounded=1;arcSize=12;edgeStyle=orthogonalEdgeStyle;startArrow=ERmandOne;startSize=16;;endArrow=none;endSize=10;;exitX=-0.003;exitY=0.42;exitPerimeter=0;entryX=1.005;entryY=0.519;entryPerimeter=0;endFill=0;startFill=0;" edge="1" parent="1" target="Z_htnbCvDEiTUhGgbJoy-135">
            <mxGeometry width="100" height="100" relative="1" as="geometry">
              <Array as="points" />
              <mxPoint x="1438.7399999999998" y="286.84000000000015" as="sourcePoint" />
            </mxGeometry>
          </mxCell>
        </UserObject>
        <UserObject label="" lucidchartObjectId="g7GPWUGTZIcj" id="Z_htnbCvDEiTUhGgbJoy-196">
          <mxCell style="html=1;jettySize=18;whiteSpace=wrap;fontSize=13;strokeColor=#5E5E5E;strokeWidth=1.5;rounded=1;arcSize=12;edgeStyle=orthogonalEdgeStyle;startArrow=none;startSize=16;;endArrow=ERoneToMany;endSize=10;;exitX=-0.005;exitY=0.556;exitPerimeter=0;entryX=1.006;entryY=0.538;entryPerimeter=0;startFill=0;endFill=0;" edge="1" parent="1" source="Z_htnbCvDEiTUhGgbJoy-135" target="Z_htnbCvDEiTUhGgbJoy-197">
            <mxGeometry width="100" height="100" relative="1" as="geometry">
              <Array as="points" />
            </mxGeometry>
          </mxCell>
        </UserObject>
        <mxCell id="Z_htnbCvDEiTUhGgbJoy-197" value="Color(E)" style="html=1;overflow=block;blockSpacing=1;whiteSpace=wrap;swimlane;resizeParent=1;resizeParentMax=0;resizeLast=0;collapsible=0;marginBottom=0;fontStyle=0;swimlaneFillColor=#ffffff;startSize=30;whiteSpace=wrap;fontSize=13;fillColor=#fff2cc;whiteSpace=wrap;spacing=0;strokeColor=#d6b656;strokeOpacity=100;fillOpacity=100;rounded=1;absoluteArcSize=1;arcSize=9;strokeWidth=2.3;" vertex="1" parent="1">
          <mxGeometry x="846" y="248" width="195" height="78" as="geometry" />
        </mxCell>
        <mxCell id="Z_htnbCvDEiTUhGgbJoy-198" value="PK" style="strokeColor=none;part=1;resizeHeight=0;align=center;verticalAlign=top;spacingLeft=4;spacingRight=4;overflow=hidden;rotatable=0;points=[[0,0.5],[1,0.5]];portConstraint=eastwest;whiteSpace=wrap;swimlaneFillColor=#ffffff;whiteSpace=wrap;fontSize=13;fillColor=none;strokeOpacity=100;fillOpacity=100;whiteSpace=wrap;spacing=0;rounded=1;absoluteArcSize=1;arcSize=9;strokeWidth=2.3;" vertex="1" parent="Z_htnbCvDEiTUhGgbJoy-197">
          <mxGeometry y="30" width="30" height="24" as="geometry" />
        </mxCell>
        <mxCell id="Z_htnbCvDEiTUhGgbJoy-199" value="id" style="shape=partialRectangle;top=0;right=0;bottom=0;part=1;resizeHeight=0;align=left;verticalAlign=top;spacingLeft=4;spacingRight=4;overflow=hidden;rotatable=0;points=[[0,0.5],[1,0.5]];portConstraint=eastwest;whiteSpace=wrap;swimlaneFillColor=#ffffff;whiteSpace=wrap;fontSize=13;fillColor=none;strokeOpacity=100;fillOpacity=100;whiteSpace=wrap;spacing=0;strokeColor=#5e5e5e;rounded=1;absoluteArcSize=1;arcSize=9;strokeWidth=2.3;" vertex="1" parent="Z_htnbCvDEiTUhGgbJoy-197">
          <mxGeometry x="30" y="30" width="77.07198478518092" height="24" as="geometry" />
        </mxCell>
        <mxCell id="Z_htnbCvDEiTUhGgbJoy-200" value="serial" style="shape=partialRectangle;top=0;right=0;bottom=0;part=1;resizeHeight=0;align=left;verticalAlign=top;spacingLeft=4;spacingRight=4;overflow=hidden;rotatable=0;points=[[0,0.5],[1,0.5]];portConstraint=eastwest;whiteSpace=wrap;swimlaneFillColor=#ffffff;whiteSpace=wrap;fontSize=13;fillColor=none;strokeOpacity=100;fillOpacity=100;whiteSpace=wrap;spacing=0;strokeColor=#5e5e5e;rounded=1;absoluteArcSize=1;arcSize=9;strokeWidth=2.3;" vertex="1" parent="Z_htnbCvDEiTUhGgbJoy-197">
          <mxGeometry x="107.07198478518092" y="30" width="87.92801521481908" height="24" as="geometry" />
        </mxCell>
        <mxCell id="Z_htnbCvDEiTUhGgbJoy-201" value="" style="strokeColor=none;part=1;resizeHeight=0;align=center;verticalAlign=top;spacingLeft=4;spacingRight=4;overflow=hidden;rotatable=0;points=[[0,0.5],[1,0.5]];portConstraint=eastwest;whiteSpace=wrap;swimlaneFillColor=#ffffff;whiteSpace=wrap;fontSize=13;fillColor=#000000;fillOpacity=5;whiteSpace=wrap;spacing=0;strokeOpacity=100;rounded=1;absoluteArcSize=1;arcSize=9;strokeWidth=2.3;" vertex="1" parent="Z_htnbCvDEiTUhGgbJoy-197">
          <mxGeometry y="54" width="30" height="24" as="geometry" />
        </mxCell>
        <mxCell id="Z_htnbCvDEiTUhGgbJoy-202" value="color" style="shape=partialRectangle;top=0;right=0;bottom=0;part=1;resizeHeight=0;align=left;verticalAlign=top;spacingLeft=4;spacingRight=4;overflow=hidden;rotatable=0;points=[[0,0.5],[1,0.5]];portConstraint=eastwest;whiteSpace=wrap;swimlaneFillColor=#ffffff;whiteSpace=wrap;fontSize=13;fillColor=#000000;fillOpacity=5;whiteSpace=wrap;spacing=0;strokeColor=#5e5e5e;strokeOpacity=100;rounded=1;absoluteArcSize=1;arcSize=9;strokeWidth=2.3;" vertex="1" parent="Z_htnbCvDEiTUhGgbJoy-197">
          <mxGeometry x="30" y="54" width="77.07198478518092" height="24" as="geometry" />
        </mxCell>
        <mxCell id="Z_htnbCvDEiTUhGgbJoy-203" value="varchar(20)" style="shape=partialRectangle;top=0;right=0;bottom=0;part=1;resizeHeight=0;align=left;verticalAlign=top;spacingLeft=4;spacingRight=4;overflow=hidden;rotatable=0;points=[[0,0.5],[1,0.5]];portConstraint=eastwest;whiteSpace=wrap;swimlaneFillColor=#ffffff;whiteSpace=wrap;fontSize=13;fillColor=#000000;fillOpacity=5;whiteSpace=wrap;spacing=0;strokeColor=#5e5e5e;strokeOpacity=100;rounded=1;absoluteArcSize=1;arcSize=9;strokeWidth=2.3;" vertex="1" parent="Z_htnbCvDEiTUhGgbJoy-197">
          <mxGeometry x="107.07198478518092" y="54" width="87.92801521481908" height="24" as="geometry" />
        </mxCell>
        <UserObject label="" lucidchartObjectId="U8GP911xQE7u" id="Z_htnbCvDEiTUhGgbJoy-204">
          <mxCell style="html=1;jettySize=18;whiteSpace=wrap;fontSize=13;strokeColor=#5E5E5E;strokeWidth=1.5;rounded=1;arcSize=12;edgeStyle=orthogonalEdgeStyle;startArrow=none;;endArrow=ERmandOne;endSize=10;;exitX=0.5;exitY=1.021;exitPerimeter=0;entryX=0.499;entryY=-0.003;entryPerimeter=0;" edge="1" parent="1" source="Z_htnbCvDEiTUhGgbJoy-271" target="Z_htnbCvDEiTUhGgbJoy-1">
            <mxGeometry width="100" height="100" relative="1" as="geometry">
              <Array as="points" />
            </mxGeometry>
          </mxCell>
        </UserObject>
        <UserObject label="" lucidchartObjectId="Z~GPLl_VUIGK" id="Z_htnbCvDEiTUhGgbJoy-205">
          <mxCell style="html=1;jettySize=18;whiteSpace=wrap;fontSize=13;strokeColor=#5E5E5E;strokeWidth=1.5;rounded=1;arcSize=12;edgeStyle=orthogonalEdgeStyle;startArrow=none;startSize=16;;endArrow=ERzeroToMany;endSize=10;;exitX=1.003;exitY=0.784;exitPerimeter=0;entryX=-0.003;entryY=0.101;entryPerimeter=0;endFill=1;" edge="1" parent="1" source="Z_htnbCvDEiTUhGgbJoy-288" target="Z_htnbCvDEiTUhGgbJoy-44">
            <mxGeometry width="100" height="100" relative="1" as="geometry">
              <Array as="points" />
            </mxGeometry>
          </mxCell>
        </UserObject>
        <UserObject label="" lucidchartObjectId="yqHPSJtKnjID" id="Z_htnbCvDEiTUhGgbJoy-244">
          <mxCell style="html=1;jettySize=18;whiteSpace=wrap;fontSize=13;strokeColor=#5E5E5E;strokeWidth=1.5;rounded=1;arcSize=12;edgeStyle=orthogonalEdgeStyle;startArrow=none;startSize=16;;endArrow=ERmandOne;endSize=10;;entryX=1.003;entryY=0.487;entryPerimeter=0;startFill=0;endFill=0;" edge="1" parent="1" target="Z_htnbCvDEiTUhGgbJoy-1">
            <mxGeometry width="100" height="100" relative="1" as="geometry">
              <Array as="points">
                <mxPoint x="284" y="610" />
                <mxPoint x="-72" y="610" />
                <mxPoint x="-72" y="707" />
              </Array>
              <mxPoint x="283.9999999999991" y="610" as="sourcePoint" />
            </mxGeometry>
          </mxCell>
        </UserObject>
        <mxCell id="Z_htnbCvDEiTUhGgbJoy-245" value="Cart(R)" style="html=1;overflow=block;blockSpacing=1;whiteSpace=wrap;swimlane;resizeParent=1;resizeParentMax=0;resizeLast=0;collapsible=0;marginBottom=0;fontStyle=0;swimlaneFillColor=#ffffff;startSize=30;whiteSpace=wrap;fontSize=13;fillColor=#dae8fc;whiteSpace=wrap;spacing=0;strokeColor=#6c8ebf;strokeOpacity=100;fillOpacity=100;rounded=1;absoluteArcSize=1;arcSize=9;strokeWidth=2.3;" vertex="1" parent="1">
          <mxGeometry x="285" y="495" width="345" height="174" as="geometry" />
        </mxCell>
        <mxCell id="Z_htnbCvDEiTUhGgbJoy-246" value="PK" style="strokeColor=none;part=1;resizeHeight=0;align=center;verticalAlign=top;spacingLeft=4;spacingRight=4;overflow=hidden;rotatable=0;points=[[0,0.5],[1,0.5]];portConstraint=eastwest;whiteSpace=wrap;swimlaneFillColor=#ffffff;whiteSpace=wrap;fontSize=13;fillColor=none;strokeOpacity=100;fillOpacity=100;whiteSpace=wrap;spacing=0;rounded=1;absoluteArcSize=1;arcSize=9;strokeWidth=2.3;" vertex="1" parent="Z_htnbCvDEiTUhGgbJoy-245">
          <mxGeometry y="30" width="60.708695021294375" height="24" as="geometry" />
        </mxCell>
        <mxCell id="Z_htnbCvDEiTUhGgbJoy-247" value="id" style="shape=partialRectangle;top=0;right=0;bottom=0;part=1;resizeHeight=0;align=left;verticalAlign=top;spacingLeft=4;spacingRight=4;overflow=hidden;rotatable=0;points=[[0,0.5],[1,0.5]];portConstraint=eastwest;whiteSpace=wrap;swimlaneFillColor=#ffffff;whiteSpace=wrap;fontSize=13;fillColor=none;strokeOpacity=100;fillOpacity=100;whiteSpace=wrap;spacing=0;strokeColor=#5e5e5e;rounded=1;absoluteArcSize=1;arcSize=9;strokeWidth=2.3;" vertex="1" parent="Z_htnbCvDEiTUhGgbJoy-245">
          <mxGeometry x="60.708695021294375" y="30" width="183.6602314778778" height="24" as="geometry" />
        </mxCell>
        <mxCell id="Z_htnbCvDEiTUhGgbJoy-248" value="serial" style="shape=partialRectangle;top=0;right=0;bottom=0;part=1;resizeHeight=0;align=left;verticalAlign=top;spacingLeft=4;spacingRight=4;overflow=hidden;rotatable=0;points=[[0,0.5],[1,0.5]];portConstraint=eastwest;whiteSpace=wrap;swimlaneFillColor=#ffffff;whiteSpace=wrap;fontSize=13;fillColor=none;strokeOpacity=100;fillOpacity=100;whiteSpace=wrap;spacing=0;strokeColor=#5e5e5e;rounded=1;absoluteArcSize=1;arcSize=9;strokeWidth=2.3;" vertex="1" parent="Z_htnbCvDEiTUhGgbJoy-245">
          <mxGeometry x="244.36892649917218" y="30" width="100.63107350082782" height="24" as="geometry" />
        </mxCell>
        <mxCell id="Z_htnbCvDEiTUhGgbJoy-249" value="FK" style="strokeColor=none;part=1;resizeHeight=0;align=center;verticalAlign=top;spacingLeft=4;spacingRight=4;overflow=hidden;rotatable=0;points=[[0,0.5],[1,0.5]];portConstraint=eastwest;whiteSpace=wrap;swimlaneFillColor=#ffffff;whiteSpace=wrap;fontSize=13;fillColor=#000000;fillOpacity=5;whiteSpace=wrap;spacing=0;strokeOpacity=100;rounded=1;absoluteArcSize=1;arcSize=9;strokeWidth=2.3;" vertex="1" parent="Z_htnbCvDEiTUhGgbJoy-245">
          <mxGeometry y="54" width="60.708695021294375" height="24" as="geometry" />
        </mxCell>
        <mxCell id="Z_htnbCvDEiTUhGgbJoy-250" value="pid( RESTRICT )" style="shape=partialRectangle;top=0;right=0;bottom=0;part=1;resizeHeight=0;align=left;verticalAlign=top;spacingLeft=4;spacingRight=4;overflow=hidden;rotatable=0;points=[[0,0.5],[1,0.5]];portConstraint=eastwest;whiteSpace=wrap;swimlaneFillColor=#ffffff;whiteSpace=wrap;fontSize=13;fillColor=#000000;fillOpacity=5;whiteSpace=wrap;spacing=0;strokeColor=#5e5e5e;strokeOpacity=100;rounded=1;absoluteArcSize=1;arcSize=9;strokeWidth=2.3;" vertex="1" parent="Z_htnbCvDEiTUhGgbJoy-245">
          <mxGeometry x="60.708695021294375" y="54" width="183.6602314778778" height="24" as="geometry" />
        </mxCell>
        <mxCell id="Z_htnbCvDEiTUhGgbJoy-251" value="int" style="shape=partialRectangle;top=0;right=0;bottom=0;part=1;resizeHeight=0;align=left;verticalAlign=top;spacingLeft=4;spacingRight=4;overflow=hidden;rotatable=0;points=[[0,0.5],[1,0.5]];portConstraint=eastwest;whiteSpace=wrap;swimlaneFillColor=#ffffff;whiteSpace=wrap;fontSize=13;fillColor=#000000;fillOpacity=5;whiteSpace=wrap;spacing=0;strokeColor=#5e5e5e;strokeOpacity=100;rounded=1;absoluteArcSize=1;arcSize=9;strokeWidth=2.3;" vertex="1" parent="Z_htnbCvDEiTUhGgbJoy-245">
          <mxGeometry x="244.36892649917218" y="54" width="100.63107350082782" height="24" as="geometry" />
        </mxCell>
        <mxCell id="Z_htnbCvDEiTUhGgbJoy-252" value="FK" style="strokeColor=none;part=1;resizeHeight=0;align=center;verticalAlign=top;spacingLeft=4;spacingRight=4;overflow=hidden;rotatable=0;points=[[0,0.5],[1,0.5]];portConstraint=eastwest;whiteSpace=wrap;swimlaneFillColor=#ffffff;whiteSpace=wrap;fontSize=13;fillColor=none;strokeOpacity=100;fillOpacity=100;whiteSpace=wrap;spacing=0;rounded=1;absoluteArcSize=1;arcSize=9;strokeWidth=2.3;" vertex="1" parent="Z_htnbCvDEiTUhGgbJoy-245">
          <mxGeometry y="78" width="60.708695021294375" height="24" as="geometry" />
        </mxCell>
        <mxCell id="Z_htnbCvDEiTUhGgbJoy-253" value="cid( CASCADE )" style="shape=partialRectangle;top=0;right=0;bottom=0;part=1;resizeHeight=0;align=left;verticalAlign=top;spacingLeft=4;spacingRight=4;overflow=hidden;rotatable=0;points=[[0,0.5],[1,0.5]];portConstraint=eastwest;whiteSpace=wrap;swimlaneFillColor=#ffffff;whiteSpace=wrap;fontSize=13;fillColor=none;strokeOpacity=100;fillOpacity=100;whiteSpace=wrap;spacing=0;strokeColor=#5e5e5e;rounded=1;absoluteArcSize=1;arcSize=9;strokeWidth=2.3;" vertex="1" parent="Z_htnbCvDEiTUhGgbJoy-245">
          <mxGeometry x="60.708695021294375" y="78" width="183.6602314778778" height="24" as="geometry" />
        </mxCell>
        <mxCell id="Z_htnbCvDEiTUhGgbJoy-254" value="int" style="shape=partialRectangle;top=0;right=0;bottom=0;part=1;resizeHeight=0;align=left;verticalAlign=top;spacingLeft=4;spacingRight=4;overflow=hidden;rotatable=0;points=[[0,0.5],[1,0.5]];portConstraint=eastwest;whiteSpace=wrap;swimlaneFillColor=#ffffff;whiteSpace=wrap;fontSize=13;fillColor=none;strokeOpacity=100;fillOpacity=100;whiteSpace=wrap;spacing=0;strokeColor=#5e5e5e;rounded=1;absoluteArcSize=1;arcSize=9;strokeWidth=2.3;" vertex="1" parent="Z_htnbCvDEiTUhGgbJoy-245">
          <mxGeometry x="244.36892649917218" y="78" width="100.63107350082782" height="24" as="geometry" />
        </mxCell>
        <mxCell id="Z_htnbCvDEiTUhGgbJoy-255" value="FK" style="strokeColor=none;part=1;resizeHeight=0;align=center;verticalAlign=top;spacingLeft=4;spacingRight=4;overflow=hidden;rotatable=0;points=[[0,0.5],[1,0.5]];portConstraint=eastwest;whiteSpace=wrap;swimlaneFillColor=#ffffff;whiteSpace=wrap;fontSize=13;fillColor=#000000;fillOpacity=5;whiteSpace=wrap;spacing=0;strokeOpacity=100;rounded=1;absoluteArcSize=1;arcSize=9;strokeWidth=2.3;" vertex="1" parent="Z_htnbCvDEiTUhGgbJoy-245">
          <mxGeometry y="102" width="60.708695021294375" height="24" as="geometry" />
        </mxCell>
        <mxCell id="Z_htnbCvDEiTUhGgbJoy-256" value="color(dip)( RESTRICT )" style="shape=partialRectangle;top=0;right=0;bottom=0;part=1;resizeHeight=0;align=left;verticalAlign=top;spacingLeft=4;spacingRight=4;overflow=hidden;rotatable=0;points=[[0,0.5],[1,0.5]];portConstraint=eastwest;whiteSpace=wrap;swimlaneFillColor=#ffffff;whiteSpace=wrap;fontSize=13;fillColor=#000000;fillOpacity=5;whiteSpace=wrap;spacing=0;strokeColor=#5e5e5e;strokeOpacity=100;rounded=1;absoluteArcSize=1;arcSize=9;strokeWidth=2.3;" vertex="1" parent="Z_htnbCvDEiTUhGgbJoy-245">
          <mxGeometry x="60.708695021294375" y="102" width="183.6602314778778" height="24" as="geometry" />
        </mxCell>
        <mxCell id="Z_htnbCvDEiTUhGgbJoy-257" value="int" style="shape=partialRectangle;top=0;right=0;bottom=0;part=1;resizeHeight=0;align=left;verticalAlign=top;spacingLeft=4;spacingRight=4;overflow=hidden;rotatable=0;points=[[0,0.5],[1,0.5]];portConstraint=eastwest;whiteSpace=wrap;swimlaneFillColor=#ffffff;whiteSpace=wrap;fontSize=13;fillColor=#000000;fillOpacity=5;whiteSpace=wrap;spacing=0;strokeColor=#5e5e5e;strokeOpacity=100;rounded=1;absoluteArcSize=1;arcSize=9;strokeWidth=2.3;" vertex="1" parent="Z_htnbCvDEiTUhGgbJoy-245">
          <mxGeometry x="244.36892649917218" y="102" width="100.63107350082782" height="24" as="geometry" />
        </mxCell>
        <mxCell id="Z_htnbCvDEiTUhGgbJoy-258" value="FK" style="strokeColor=none;part=1;resizeHeight=0;align=center;verticalAlign=top;spacingLeft=4;spacingRight=4;overflow=hidden;rotatable=0;points=[[0,0.5],[1,0.5]];portConstraint=eastwest;whiteSpace=wrap;swimlaneFillColor=#ffffff;whiteSpace=wrap;fontSize=13;fillColor=none;strokeOpacity=100;fillOpacity=100;whiteSpace=wrap;spacing=0;rounded=1;absoluteArcSize=1;arcSize=9;strokeWidth=2.3;" vertex="1" parent="Z_htnbCvDEiTUhGgbJoy-245">
          <mxGeometry y="126" width="60.708695021294375" height="24" as="geometry" />
        </mxCell>
        <mxCell id="Z_htnbCvDEiTUhGgbJoy-259" value="size(dip)( RESTRICT )" style="shape=partialRectangle;top=0;right=0;bottom=0;part=1;resizeHeight=0;align=left;verticalAlign=top;spacingLeft=4;spacingRight=4;overflow=hidden;rotatable=0;points=[[0,0.5],[1,0.5]];portConstraint=eastwest;whiteSpace=wrap;swimlaneFillColor=#ffffff;whiteSpace=wrap;fontSize=13;fillColor=none;strokeOpacity=100;fillOpacity=100;whiteSpace=wrap;spacing=0;strokeColor=#5e5e5e;rounded=1;absoluteArcSize=1;arcSize=9;strokeWidth=2.3;" vertex="1" parent="Z_htnbCvDEiTUhGgbJoy-245">
          <mxGeometry x="60.708695021294375" y="126" width="183.6602314778778" height="24" as="geometry" />
        </mxCell>
        <mxCell id="Z_htnbCvDEiTUhGgbJoy-260" value="int" style="shape=partialRectangle;top=0;right=0;bottom=0;part=1;resizeHeight=0;align=left;verticalAlign=top;spacingLeft=4;spacingRight=4;overflow=hidden;rotatable=0;points=[[0,0.5],[1,0.5]];portConstraint=eastwest;whiteSpace=wrap;swimlaneFillColor=#ffffff;whiteSpace=wrap;fontSize=13;fillColor=none;strokeOpacity=100;fillOpacity=100;whiteSpace=wrap;spacing=0;strokeColor=#5e5e5e;rounded=1;absoluteArcSize=1;arcSize=9;strokeWidth=2.3;" vertex="1" parent="Z_htnbCvDEiTUhGgbJoy-245">
          <mxGeometry x="244.36892649917218" y="126" width="100.63107350082782" height="24" as="geometry" />
        </mxCell>
        <mxCell id="Z_htnbCvDEiTUhGgbJoy-261" value="" style="strokeColor=none;part=1;resizeHeight=0;align=center;verticalAlign=top;spacingLeft=4;spacingRight=4;overflow=hidden;rotatable=0;points=[[0,0.5],[1,0.5]];portConstraint=eastwest;whiteSpace=wrap;swimlaneFillColor=#ffffff;whiteSpace=wrap;fontSize=13;fillColor=#000000;fillOpacity=5;whiteSpace=wrap;spacing=0;strokeOpacity=100;rounded=1;absoluteArcSize=1;arcSize=9;strokeWidth=2.3;" vertex="1" parent="Z_htnbCvDEiTUhGgbJoy-245">
          <mxGeometry y="150" width="60.708695021294375" height="24" as="geometry" />
        </mxCell>
        <mxCell id="Z_htnbCvDEiTUhGgbJoy-262" value="count" style="shape=partialRectangle;top=0;right=0;bottom=0;part=1;resizeHeight=0;align=left;verticalAlign=top;spacingLeft=4;spacingRight=4;overflow=hidden;rotatable=0;points=[[0,0.5],[1,0.5]];portConstraint=eastwest;whiteSpace=wrap;swimlaneFillColor=#ffffff;whiteSpace=wrap;fontSize=13;fillColor=#000000;fillOpacity=5;whiteSpace=wrap;spacing=0;strokeColor=#5e5e5e;strokeOpacity=100;rounded=1;absoluteArcSize=1;arcSize=9;strokeWidth=2.3;" vertex="1" parent="Z_htnbCvDEiTUhGgbJoy-245">
          <mxGeometry x="60.708695021294375" y="150" width="183.6602314778778" height="24" as="geometry" />
        </mxCell>
        <mxCell id="Z_htnbCvDEiTUhGgbJoy-263" value="int" style="shape=partialRectangle;top=0;right=0;bottom=0;part=1;resizeHeight=0;align=left;verticalAlign=top;spacingLeft=4;spacingRight=4;overflow=hidden;rotatable=0;points=[[0,0.5],[1,0.5]];portConstraint=eastwest;whiteSpace=wrap;swimlaneFillColor=#ffffff;whiteSpace=wrap;fontSize=13;fillColor=#000000;fillOpacity=5;whiteSpace=wrap;spacing=0;strokeColor=#5e5e5e;strokeOpacity=100;rounded=1;absoluteArcSize=1;arcSize=9;strokeWidth=2.3;" vertex="1" parent="Z_htnbCvDEiTUhGgbJoy-245">
          <mxGeometry x="244.36892649917218" y="150" width="100.63107350082782" height="24" as="geometry" />
        </mxCell>
        <UserObject label="" lucidchartObjectId="ttHPYgVKs4Om" id="Z_htnbCvDEiTUhGgbJoy-264">
          <mxCell style="html=1;jettySize=18;whiteSpace=wrap;fontSize=13;strokeColor=#5E5E5E;strokeWidth=1.5;rounded=1;arcSize=12;edgeStyle=orthogonalEdgeStyle;startArrow=none;startSize=16;;endArrow=ERzeroToMany;endSize=10;;exitX=1.003;exitY=0.931;exitPerimeter=0;entryX=0.361;entryY=1.006;entryPerimeter=0;startFill=0;endFill=1;" edge="1" parent="1" source="Z_htnbCvDEiTUhGgbJoy-245">
            <mxGeometry width="100" height="100" relative="1" as="geometry">
              <Array as="points" />
              <mxPoint x="1591.619999999999" y="405.21199999999953" as="targetPoint" />
            </mxGeometry>
          </mxCell>
        </UserObject>
        <UserObject label="" lucidchartObjectId="CTYPuBh1oAWn" id="Z_htnbCvDEiTUhGgbJoy-265">
          <mxCell style="html=1;jettySize=18;whiteSpace=wrap;fontSize=13;strokeColor=#5E5E5E;strokeWidth=1.5;rounded=1;arcSize=12;edgeStyle=orthogonalEdgeStyle;startArrow=ERmandOne;startSize=16;;endArrow=none;endSize=10;;exitX=-0.006;exitY=0.85;exitPerimeter=0;entryX=1.003;entryY=0.793;entryPerimeter=0;startFill=0;endFill=0;" edge="1" parent="1" source="Z_htnbCvDEiTUhGgbJoy-187" target="Z_htnbCvDEiTUhGgbJoy-245">
            <mxGeometry width="100" height="100" relative="1" as="geometry">
              <Array as="points" />
            </mxGeometry>
          </mxCell>
        </UserObject>
        <UserObject label="" lucidchartObjectId="GTYP03_BzUXO" id="Z_htnbCvDEiTUhGgbJoy-266">
          <mxCell style="html=1;jettySize=18;whiteSpace=wrap;fontSize=13;strokeColor=#5E5E5E;strokeWidth=1.5;rounded=1;arcSize=12;edgeStyle=orthogonalEdgeStyle;startArrow=ERmandOne;startSize=16;;endArrow=none;endSize=10;;exitX=-0.006;exitY=0.85;exitPerimeter=0;entryX=1.003;entryY=0.655;entryPerimeter=0;startFill=0;endFill=0;" edge="1" parent="1" source="Z_htnbCvDEiTUhGgbJoy-197" target="Z_htnbCvDEiTUhGgbJoy-245">
            <mxGeometry width="100" height="100" relative="1" as="geometry">
              <Array as="points" />
            </mxGeometry>
          </mxCell>
        </UserObject>
        <mxCell id="Z_htnbCvDEiTUhGgbJoy-267" value="Of" style="html=1;overflow=block;blockSpacing=1;whiteSpace=wrap;swimlane;childLayout=stackLayout;horizontal=1;horizontalStack=0;resizeParent=1;resizeParentMax=0;resizeLast=0;collapsible=0;fontStyle=0;marginBottom=0;swimlaneFillColor=#ffffff;startSize=30;whiteSpace=wrap;fontSize=13;fontColor=#000000;whiteSpace=wrap;spacing=0;strokeColor=#5e5e5e;strokeOpacity=100;fillOpacity=100;rounded=1;absoluteArcSize=1;arcSize=9;fillColor=#ffffff;strokeWidth=2.3;fillColor=#e0e0e0;" vertex="1" parent="1">
          <mxGeometry x="-1070" y="570" width="150" height="54" as="geometry" />
        </mxCell>
        <mxCell id="Z_htnbCvDEiTUhGgbJoy-268" value="" style="part=1;resizeHeight=0;strokeColor=none;align=left;verticalAlign=top;spacingLeft=4;spacingRight=4;overflow=hidden;rotatable=0;points=[[0,0.5],[1,0.5]];portConstraint=eastwest;html=1;whiteSpace=wrap;swimlaneFillColor=#ffffff;whiteSpace=wrap;fontSize=13;fillColor=none;strokeOpacity=100;fillOpacity=100;" vertex="1" parent="Z_htnbCvDEiTUhGgbJoy-267">
          <mxGeometry y="30" width="150" height="24" as="geometry" />
        </mxCell>
        <UserObject label="" lucidchartObjectId="fYSQmJ__jyOv" id="Z_htnbCvDEiTUhGgbJoy-269">
          <mxCell style="html=1;jettySize=18;whiteSpace=wrap;fontSize=13;strokeColor=#5E5E5E;strokeWidth=1.5;rounded=1;arcSize=12;edgeStyle=orthogonalEdgeStyle;startArrow=none;;endArrow=ERmandOne;endSize=10;;exitX=1.008;exitY=0.278;exitPerimeter=0;entryX=-0.003;entryY=0.038;entryPerimeter=0;" edge="1" parent="1" source="Z_htnbCvDEiTUhGgbJoy-267" target="Z_htnbCvDEiTUhGgbJoy-1">
            <mxGeometry width="100" height="100" relative="1" as="geometry">
              <Array as="points" />
            </mxGeometry>
          </mxCell>
        </UserObject>
        <UserObject label="" lucidchartObjectId="iYSQq_lWhBSS" id="Z_htnbCvDEiTUhGgbJoy-270">
          <mxCell style="html=1;jettySize=18;whiteSpace=wrap;fontSize=13;strokeColor=#5E5E5E;strokeWidth=1.5;rounded=1;arcSize=12;edgeStyle=orthogonalEdgeStyle;startArrow=none;;endArrow=ERzeroToMany;endSize=10;;exitX=-0.007;exitY=0.278;exitPerimeter=0;entryX=1.004;entryY=0.064;entryPerimeter=0;" edge="1" parent="1" source="Z_htnbCvDEiTUhGgbJoy-267" target="Z_htnbCvDEiTUhGgbJoy-95">
            <mxGeometry width="100" height="100" relative="1" as="geometry">
              <Array as="points" />
            </mxGeometry>
          </mxCell>
        </UserObject>
        <mxCell id="Z_htnbCvDEiTUhGgbJoy-271" value="Place" style="html=1;overflow=block;blockSpacing=1;whiteSpace=wrap;swimlane;childLayout=stackLayout;horizontal=1;horizontalStack=0;resizeParent=1;resizeParentMax=0;resizeLast=0;collapsible=0;fontStyle=0;marginBottom=0;swimlaneFillColor=#ffffff;startSize=30;whiteSpace=wrap;fontSize=13;fontColor=#000000;whiteSpace=wrap;spacing=0;strokeColor=#5e5e5e;strokeOpacity=100;fillOpacity=100;rounded=1;absoluteArcSize=1;arcSize=9;fillColor=#ffffff;strokeWidth=2.3;fillColor=#e0e0e0;" vertex="1" parent="1">
          <mxGeometry x="-660" y="105" width="150" height="54" as="geometry" />
        </mxCell>
        <mxCell id="Z_htnbCvDEiTUhGgbJoy-272" value="" style="part=1;resizeHeight=0;strokeColor=none;align=left;verticalAlign=top;spacingLeft=4;spacingRight=4;overflow=hidden;rotatable=0;points=[[0,0.5],[1,0.5]];portConstraint=eastwest;html=1;whiteSpace=wrap;swimlaneFillColor=#ffffff;whiteSpace=wrap;fontSize=13;fillColor=none;strokeOpacity=100;fillOpacity=100;" vertex="1" parent="Z_htnbCvDEiTUhGgbJoy-271">
          <mxGeometry y="30" width="150" height="24" as="geometry" />
        </mxCell>
        <UserObject label="" lucidchartObjectId="~5SQ3uB.yX2H" id="Z_htnbCvDEiTUhGgbJoy-273">
          <mxCell style="html=1;jettySize=18;whiteSpace=wrap;fontSize=13;strokeColor=#5E5E5E;strokeWidth=1.5;rounded=1;arcSize=12;edgeStyle=orthogonalEdgeStyle;startArrow=none;;endArrow=ERzeroToMany;endSize=10;;exitX=0.5;exitY=-0.021;exitPerimeter=0;entryX=-0.141;entryY=0.824;entryDx=0;entryDy=0;entryPerimeter=0;" edge="1" parent="1" source="Z_htnbCvDEiTUhGgbJoy-271" target="Z_htnbCvDEiTUhGgbJoy-315">
            <mxGeometry width="100" height="100" relative="1" as="geometry">
              <Array as="points" />
              <mxPoint x="-300" y="-225.01199999999994" as="targetPoint" />
            </mxGeometry>
          </mxCell>
        </UserObject>
        <mxCell id="Z_htnbCvDEiTUhGgbJoy-274" value="Of" style="html=1;overflow=block;blockSpacing=1;whiteSpace=wrap;swimlane;childLayout=stackLayout;horizontal=1;horizontalStack=0;resizeParent=1;resizeParentMax=0;resizeLast=0;collapsible=0;fontStyle=0;marginBottom=0;swimlaneFillColor=#ffffff;startSize=30;whiteSpace=wrap;fontSize=13;whiteSpace=wrap;spacing=0;strokeColor=#6c8ebf;strokeOpacity=100;fillOpacity=100;rounded=1;absoluteArcSize=1;arcSize=9;fillColor=#dae8fc;strokeWidth=2.3;fillColor=#e0e0e0;" vertex="1" parent="1">
          <mxGeometry x="-134" y="-491" width="150" height="54" as="geometry" />
        </mxCell>
        <mxCell id="Z_htnbCvDEiTUhGgbJoy-275" value="" style="part=1;resizeHeight=0;strokeColor=none;align=left;verticalAlign=top;spacingLeft=4;spacingRight=4;overflow=hidden;rotatable=0;points=[[0,0.5],[1,0.5]];portConstraint=eastwest;html=1;whiteSpace=wrap;swimlaneFillColor=#ffffff;whiteSpace=wrap;fontSize=13;fillColor=none;strokeOpacity=100;fillOpacity=100;" vertex="1" parent="Z_htnbCvDEiTUhGgbJoy-274">
          <mxGeometry y="30" width="150" height="24" as="geometry" />
        </mxCell>
        <UserObject label="" lucidchartObjectId="OlTQ2aNjlCWq" id="Z_htnbCvDEiTUhGgbJoy-276">
          <mxCell style="html=1;jettySize=18;whiteSpace=wrap;fontSize=13;strokeColor=#5E5E5E;strokeWidth=1.5;rounded=1;arcSize=12;edgeStyle=orthogonalEdgeStyle;startArrow=none;;endArrow=ERoneToMany;endSize=10;;exitX=0.5;exitY=-0.021;exitPerimeter=0;entryX=0.5;entryY=1.014;entryPerimeter=0;endFill=0;" edge="1" parent="1" source="Z_htnbCvDEiTUhGgbJoy-274" target="Z_htnbCvDEiTUhGgbJoy-158">
            <mxGeometry width="100" height="100" relative="1" as="geometry">
              <Array as="points" />
            </mxGeometry>
          </mxCell>
        </UserObject>
        <UserObject label="" lucidchartObjectId="bqTQrcUP1GLL" id="Z_htnbCvDEiTUhGgbJoy-279">
          <mxCell style="html=1;jettySize=18;whiteSpace=wrap;fontSize=13;strokeColor=#5E5E5E;strokeWidth=1.5;rounded=1;arcSize=12;edgeStyle=orthogonalEdgeStyle;startArrow=none;startSize=16;;endArrow=ERmandOne;endSize=10;;exitX=1.003;exitY=0.657;exitPerimeter=0;entryX=0.56;entryY=1.006;entryPerimeter=0;endFill=0;" edge="1" parent="1" source="Z_htnbCvDEiTUhGgbJoy-290">
            <mxGeometry width="100" height="100" relative="1" as="geometry">
              <Array as="points" />
              <mxPoint x="1675.2000000000007" y="405.21199999999953" as="targetPoint" />
            </mxGeometry>
          </mxCell>
        </UserObject>
        <mxCell id="Z_htnbCvDEiTUhGgbJoy-288" value="Write" style="html=1;overflow=block;blockSpacing=1;whiteSpace=wrap;swimlane;childLayout=stackLayout;horizontal=1;horizontalStack=0;resizeParent=1;resizeParentMax=0;resizeLast=0;collapsible=0;fontStyle=0;marginBottom=0;swimlaneFillColor=#ffffff;startSize=30;whiteSpace=wrap;fontSize=13;whiteSpace=wrap;spacing=0;strokeColor=#6c8ebf;strokeOpacity=100;fillOpacity=100;rounded=1;absoluteArcSize=1;arcSize=9;fillColor=#dae8fc;strokeWidth=2.3;fillColor=#e0e0e0;" vertex="1" parent="1">
          <mxGeometry x="-164" y="810" width="150" height="54" as="geometry" />
        </mxCell>
        <mxCell id="Z_htnbCvDEiTUhGgbJoy-289" value="" style="html=1;jettySize=18;whiteSpace=wrap;fontSize=13;strokeColor=#5E5E5E;strokeWidth=1.5;rounded=1;arcSize=12;edgeStyle=orthogonalEdgeStyle;startArrow=ERmandOne;startSize=16;;endArrow=none;endSize=10;;exitX=1.003;exitY=0.784;exitPerimeter=0;entryX=-0.003;entryY=0.101;entryPerimeter=0;startFill=0;" edge="1" parent="1" source="Z_htnbCvDEiTUhGgbJoy-1" target="Z_htnbCvDEiTUhGgbJoy-288">
          <mxGeometry width="100" height="100" relative="1" as="geometry">
            <Array as="points" />
            <mxPoint x="-428.74000000000024" y="825.0320000000002" as="sourcePoint" />
            <mxPoint x="283.9649999999997" y="825.0490000000004" as="targetPoint" />
          </mxGeometry>
        </mxCell>
        <mxCell id="Z_htnbCvDEiTUhGgbJoy-290" value="Of" style="html=1;overflow=block;blockSpacing=1;whiteSpace=wrap;swimlane;childLayout=stackLayout;horizontal=1;horizontalStack=0;resizeParent=1;resizeParentMax=0;resizeLast=0;collapsible=0;fontStyle=0;marginBottom=0;swimlaneFillColor=#ffffff;startSize=30;whiteSpace=wrap;fontSize=13;fontColor=#000000;whiteSpace=wrap;spacing=0;strokeColor=#5e5e5e;strokeOpacity=100;fillOpacity=100;rounded=1;absoluteArcSize=1;arcSize=9;fillColor=#ffffff;strokeWidth=2.3;fillColor=#e0e0e0;" vertex="1" parent="1">
          <mxGeometry x="1140" y="890" width="150" height="54" as="geometry" />
        </mxCell>
        <mxCell id="Z_htnbCvDEiTUhGgbJoy-291" value="" style="part=1;resizeHeight=0;strokeColor=none;align=left;verticalAlign=top;spacingLeft=4;spacingRight=4;overflow=hidden;rotatable=0;points=[[0,0.5],[1,0.5]];portConstraint=eastwest;html=1;whiteSpace=wrap;swimlaneFillColor=#ffffff;whiteSpace=wrap;fontSize=13;fillColor=none;strokeOpacity=100;fillOpacity=100;" vertex="1" parent="Z_htnbCvDEiTUhGgbJoy-290">
          <mxGeometry y="30" width="150" height="24" as="geometry" />
        </mxCell>
        <mxCell id="Z_htnbCvDEiTUhGgbJoy-292" value="" style="html=1;jettySize=18;whiteSpace=wrap;fontSize=13;strokeColor=#5E5E5E;strokeWidth=1.5;rounded=1;arcSize=12;edgeStyle=orthogonalEdgeStyle;startArrow=ERzeroToMany;startSize=16;;endArrow=none;endSize=10;;exitX=1.003;exitY=0.657;exitPerimeter=0;entryX=0;entryY=0.25;entryDx=0;entryDy=0;startFill=1;" edge="1" parent="1" source="Z_htnbCvDEiTUhGgbJoy-44" target="Z_htnbCvDEiTUhGgbJoy-290">
          <mxGeometry width="100" height="100" relative="1" as="geometry">
            <Array as="points" />
            <mxPoint x="631.0349999999999" y="907.893" as="sourcePoint" />
            <mxPoint x="1675.1999999999998" y="405.212" as="targetPoint" />
          </mxGeometry>
        </mxCell>
        <mxCell id="Z_htnbCvDEiTUhGgbJoy-296" value="Of" style="html=1;overflow=block;blockSpacing=1;whiteSpace=wrap;swimlane;childLayout=stackLayout;horizontal=1;horizontalStack=0;resizeParent=1;resizeParentMax=0;resizeLast=0;collapsible=0;fontStyle=0;marginBottom=0;swimlaneFillColor=#ffffff;startSize=30;whiteSpace=wrap;fontSize=13;fontColor=#000000;whiteSpace=wrap;spacing=0;strokeColor=#5e5e5e;strokeOpacity=100;fillOpacity=100;rounded=1;absoluteArcSize=1;arcSize=9;fillColor=#ffffff;strokeWidth=2.3;fillColor=#e0e0e0;" vertex="1" parent="1">
          <mxGeometry x="1722.5" y="470" width="150" height="54" as="geometry" />
        </mxCell>
        <mxCell id="Z_htnbCvDEiTUhGgbJoy-297" value="" style="part=1;resizeHeight=0;strokeColor=none;align=left;verticalAlign=top;spacingLeft=4;spacingRight=4;overflow=hidden;rotatable=0;points=[[0,0.5],[1,0.5]];portConstraint=eastwest;html=1;whiteSpace=wrap;swimlaneFillColor=#ffffff;whiteSpace=wrap;fontSize=13;fillColor=none;strokeOpacity=100;fillOpacity=100;" vertex="1" parent="Z_htnbCvDEiTUhGgbJoy-296">
          <mxGeometry y="30" width="150" height="24" as="geometry" />
        </mxCell>
        <mxCell id="Z_htnbCvDEiTUhGgbJoy-298" value="" style="html=1;jettySize=18;whiteSpace=wrap;fontSize=13;strokeColor=#5E5E5E;strokeWidth=1.5;rounded=1;arcSize=12;edgeStyle=orthogonalEdgeStyle;startArrow=ERmandOne;startSize=16;;endArrow=none;endSize=10;;exitX=0.5;exitY=-0.014;exitPerimeter=0;entryX=0.51;entryY=0.976;entryPerimeter=0;entryDx=0;entryDy=0;startFill=0;" edge="1" parent="1" source="Z_htnbCvDEiTUhGgbJoy-120" target="Z_htnbCvDEiTUhGgbJoy-297">
          <mxGeometry width="100" height="100" relative="1" as="geometry">
            <Array as="points" />
            <mxPoint x="1792.5" y="511.9079999999999" as="sourcePoint" />
            <mxPoint x="1792.38" y="405.212" as="targetPoint" />
          </mxGeometry>
        </mxCell>
        <mxCell id="Z_htnbCvDEiTUhGgbJoy-302" value="Of" style="html=1;overflow=block;blockSpacing=1;whiteSpace=wrap;swimlane;childLayout=stackLayout;horizontal=1;horizontalStack=0;resizeParent=1;resizeParentMax=0;resizeLast=0;collapsible=0;fontStyle=0;marginBottom=0;swimlaneFillColor=#ffffff;startSize=30;whiteSpace=wrap;fontSize=13;fontColor=#000000;whiteSpace=wrap;spacing=0;strokeColor=#5e5e5e;strokeOpacity=100;fillOpacity=100;rounded=1;absoluteArcSize=1;arcSize=9;fillColor=#ffffff;strokeWidth=2.3;fillColor=#e0e0e0;" vertex="1" parent="1">
          <mxGeometry x="1930" y="396" width="150" height="54" as="geometry" />
        </mxCell>
        <mxCell id="Z_htnbCvDEiTUhGgbJoy-303" value="" style="part=1;resizeHeight=0;strokeColor=none;align=left;verticalAlign=top;spacingLeft=4;spacingRight=4;overflow=hidden;rotatable=0;points=[[0,0.5],[1,0.5]];portConstraint=eastwest;html=1;whiteSpace=wrap;swimlaneFillColor=#ffffff;whiteSpace=wrap;fontSize=13;fillColor=none;strokeOpacity=100;fillOpacity=100;" vertex="1" parent="Z_htnbCvDEiTUhGgbJoy-302">
          <mxGeometry y="30" width="150" height="24" as="geometry" />
        </mxCell>
        <mxCell id="Z_htnbCvDEiTUhGgbJoy-304" value="" style="html=1;jettySize=18;whiteSpace=wrap;fontSize=13;strokeColor=#5E5E5E;strokeWidth=1.5;rounded=1;arcSize=12;edgeStyle=orthogonalEdgeStyle;startArrow=ERmandOne;startSize=16;;endArrow=none;endSize=10;;exitX=1.003;exitY=0.943;exitPerimeter=0;entryX=-0.005;entryY=0.538;entryPerimeter=0;startFill=0;" edge="1" parent="1" target="Z_htnbCvDEiTUhGgbJoy-302">
          <mxGeometry width="100" height="100" relative="1" as="geometry">
            <Array as="points" />
            <mxPoint x="1861.2600000000002" y="392.4860000000008" as="sourcePoint" />
            <mxPoint x="2158.875" y="424.96399999999994" as="targetPoint" />
          </mxGeometry>
        </mxCell>
        <mxCell id="Z_htnbCvDEiTUhGgbJoy-305" value="Order(W)" style="html=1;overflow=block;blockSpacing=1;whiteSpace=wrap;swimlane;resizeParent=1;resizeParentMax=0;resizeLast=0;collapsible=0;marginBottom=0;fontStyle=0;swimlaneFillColor=#ffffff;startSize=30;whiteSpace=wrap;fontSize=16.7;fontFamily=Liberation Serif;fillColor=#f8cecc;whiteSpace=wrap;spacing=0;strokeColor=#b85450;strokeOpacity=100;rounded=1;absoluteArcSize=1;arcSize=2;strokeWidth=2.3;" vertex="1" parent="1">
          <mxGeometry x="-300" y="-360" width="360" height="261" as="geometry" />
        </mxCell>
        <mxCell id="Z_htnbCvDEiTUhGgbJoy-306" value="PK" style="strokeColor=none;part=1;resizeHeight=0;align=center;verticalAlign=top;spacingLeft=4;spacingRight=4;overflow=hidden;rotatable=0;points=[[0,0.5],[1,0.5]];portConstraint=eastwest;whiteSpace=wrap;swimlaneFillColor=#ffffff;whiteSpace=wrap;fontSize=16.7;fontFamily=Liberation Serif;fontColor=#333333;fillColor=none;strokeOpacity=100;whiteSpace=wrap;spacing=0;rounded=1;absoluteArcSize=1;arcSize=9;strokeWidth=2.3;" vertex="1" parent="Z_htnbCvDEiTUhGgbJoy-305">
          <mxGeometry y="30" width="30" height="27.75" as="geometry" />
        </mxCell>
        <mxCell id="Z_htnbCvDEiTUhGgbJoy-307" value="id(날짜+시간+신원)" style="shape=partialRectangle;top=0;right=0;bottom=0;part=1;resizeHeight=0;align=left;verticalAlign=top;spacingLeft=4;spacingRight=4;overflow=hidden;rotatable=0;points=[[0,0.5],[1,0.5]];portConstraint=eastwest;whiteSpace=wrap;swimlaneFillColor=#ffffff;whiteSpace=wrap;fontSize=16.7;fontFamily=Liberation Serif;fontColor=#333333;fillColor=none;strokeOpacity=100;whiteSpace=wrap;spacing=0;strokeColor=#5e5e5e;rounded=1;absoluteArcSize=1;arcSize=9;strokeWidth=2.3;" vertex="1" parent="Z_htnbCvDEiTUhGgbJoy-305">
          <mxGeometry x="30" y="30" width="164.1090374679219" height="47.25" as="geometry" />
        </mxCell>
        <mxCell id="Z_htnbCvDEiTUhGgbJoy-308" value="varchar(18)" style="shape=partialRectangle;top=0;right=0;bottom=0;part=1;resizeHeight=0;align=left;verticalAlign=top;spacingLeft=4;spacingRight=4;overflow=hidden;rotatable=0;points=[[0,0.5],[1,0.5]];portConstraint=eastwest;whiteSpace=wrap;swimlaneFillColor=#ffffff;whiteSpace=wrap;fontSize=16.7;fontFamily=Liberation Serif;fontColor=#333333;fillColor=none;strokeOpacity=100;whiteSpace=wrap;spacing=0;strokeColor=#5e5e5e;rounded=1;absoluteArcSize=1;arcSize=9;strokeWidth=2.3;" vertex="1" parent="Z_htnbCvDEiTUhGgbJoy-305">
          <mxGeometry x="194.1090374679219" y="30" width="165.8909625320781" height="107.25" as="geometry" />
        </mxCell>
        <mxCell id="Z_htnbCvDEiTUhGgbJoy-309" value="FK" style="strokeColor=none;part=1;resizeHeight=0;align=center;verticalAlign=top;spacingLeft=4;spacingRight=4;overflow=hidden;rotatable=0;points=[[0,0.5],[1,0.5]];portConstraint=eastwest;whiteSpace=wrap;swimlaneFillColor=#ffffff;whiteSpace=wrap;fontSize=16.7;fontFamily=Liberation Serif;fontColor=#333333;fillColor=#000000;fillOpacity=5;whiteSpace=wrap;spacing=0;strokeOpacity=100;rounded=1;absoluteArcSize=1;arcSize=9;strokeWidth=2.3;" vertex="1" parent="Z_htnbCvDEiTUhGgbJoy-305">
          <mxGeometry y="57.75" width="30" height="27.75" as="geometry" />
        </mxCell>
        <mxCell id="Z_htnbCvDEiTUhGgbJoy-310" value="cid(SET NULL)" style="shape=partialRectangle;top=0;right=0;bottom=0;part=1;resizeHeight=0;align=left;verticalAlign=top;spacingLeft=4;spacingRight=4;overflow=hidden;rotatable=0;points=[[0,0.5],[1,0.5]];portConstraint=eastwest;whiteSpace=wrap;swimlaneFillColor=#ffffff;whiteSpace=wrap;fontSize=16.7;fontFamily=Liberation Serif;fontColor=#333333;fillColor=#000000;fillOpacity=5;whiteSpace=wrap;spacing=0;strokeColor=#5e5e5e;strokeOpacity=100;rounded=1;absoluteArcSize=1;arcSize=9;strokeWidth=2.3;" vertex="1" parent="Z_htnbCvDEiTUhGgbJoy-305">
          <mxGeometry x="30" y="57.75" width="164.1090374679219" height="27.75" as="geometry" />
        </mxCell>
        <mxCell id="Z_htnbCvDEiTUhGgbJoy-311" value="int" style="shape=partialRectangle;top=0;right=0;bottom=0;part=1;resizeHeight=0;align=left;verticalAlign=top;spacingLeft=4;spacingRight=4;overflow=hidden;rotatable=0;points=[[0,0.5],[1,0.5]];portConstraint=eastwest;whiteSpace=wrap;swimlaneFillColor=#ffffff;whiteSpace=wrap;fontSize=16.7;fontFamily=Liberation Serif;fontColor=#333333;fillColor=#000000;fillOpacity=5;whiteSpace=wrap;spacing=0;strokeColor=#5e5e5e;strokeOpacity=100;rounded=1;absoluteArcSize=1;arcSize=9;strokeWidth=2.3;" vertex="1" parent="Z_htnbCvDEiTUhGgbJoy-305">
          <mxGeometry x="194.1090374679219" y="57.75" width="165.8909625320781" height="27.75" as="geometry" />
        </mxCell>
        <mxCell id="Z_htnbCvDEiTUhGgbJoy-312" value="FK" style="strokeColor=none;part=1;resizeHeight=0;align=center;verticalAlign=top;spacingLeft=4;spacingRight=4;overflow=hidden;rotatable=0;points=[[0,0.5],[1,0.5]];portConstraint=eastwest;whiteSpace=wrap;swimlaneFillColor=#ffffff;whiteSpace=wrap;fontSize=13;fillColor=none;strokeOpacity=100;whiteSpace=wrap;spacing=0;rounded=1;absoluteArcSize=1;arcSize=9;strokeWidth=2.3;" vertex="1" parent="Z_htnbCvDEiTUhGgbJoy-305">
          <mxGeometry y="85.5" width="30" height="24" as="geometry" />
        </mxCell>
        <mxCell id="Z_htnbCvDEiTUhGgbJoy-313" value="sid( RESTRICT )" style="shape=partialRectangle;top=0;right=0;bottom=0;part=1;resizeHeight=0;align=left;verticalAlign=top;spacingLeft=4;spacingRight=4;overflow=hidden;rotatable=0;points=[[0,0.5],[1,0.5]];portConstraint=eastwest;whiteSpace=wrap;swimlaneFillColor=#ffffff;whiteSpace=wrap;fontSize=13;fillColor=none;strokeOpacity=100;whiteSpace=wrap;spacing=0;strokeColor=#5e5e5e;rounded=1;absoluteArcSize=1;arcSize=9;strokeWidth=2.3;" vertex="1" parent="Z_htnbCvDEiTUhGgbJoy-305">
          <mxGeometry x="30" y="85.5" width="164.1090374679219" height="24" as="geometry" />
        </mxCell>
        <mxCell id="Z_htnbCvDEiTUhGgbJoy-314" value="int" style="shape=partialRectangle;top=0;right=0;bottom=0;part=1;resizeHeight=0;align=left;verticalAlign=top;spacingLeft=4;spacingRight=4;overflow=hidden;rotatable=0;points=[[0,0.5],[1,0.5]];portConstraint=eastwest;whiteSpace=wrap;swimlaneFillColor=#ffffff;whiteSpace=wrap;fontSize=13;fillColor=none;strokeOpacity=100;whiteSpace=wrap;spacing=0;strokeColor=#5e5e5e;rounded=1;absoluteArcSize=1;arcSize=9;strokeWidth=2.3;" vertex="1" parent="Z_htnbCvDEiTUhGgbJoy-305">
          <mxGeometry x="194.1090374679219" y="85.5" width="165.8909625320781" height="24" as="geometry" />
        </mxCell>
        <mxCell id="Z_htnbCvDEiTUhGgbJoy-315" value="" style="strokeColor=none;part=1;resizeHeight=0;align=center;verticalAlign=top;spacingLeft=4;spacingRight=4;overflow=hidden;rotatable=0;points=[[0,0.5],[1,0.5]];portConstraint=eastwest;whiteSpace=wrap;swimlaneFillColor=#ffffff;whiteSpace=wrap;fontSize=13;fillColor=#000000;fillOpacity=5;whiteSpace=wrap;spacing=0;strokeOpacity=100;rounded=1;absoluteArcSize=1;arcSize=9;strokeWidth=2.3;" vertex="1" parent="Z_htnbCvDEiTUhGgbJoy-305">
          <mxGeometry y="109.5" width="30" height="24" as="geometry" />
        </mxCell>
        <mxCell id="Z_htnbCvDEiTUhGgbJoy-316" value="total_price" style="shape=partialRectangle;top=0;right=0;bottom=0;part=1;resizeHeight=0;align=left;verticalAlign=top;spacingLeft=4;spacingRight=4;overflow=hidden;rotatable=0;points=[[0,0.5],[1,0.5]];portConstraint=eastwest;whiteSpace=wrap;swimlaneFillColor=#ffffff;whiteSpace=wrap;fontSize=13;fillColor=#000000;fillOpacity=5;whiteSpace=wrap;spacing=0;strokeColor=#5e5e5e;strokeOpacity=100;rounded=1;absoluteArcSize=1;arcSize=9;strokeWidth=2.3;" vertex="1" parent="Z_htnbCvDEiTUhGgbJoy-305">
          <mxGeometry x="30" y="109.5" width="164.1090374679219" height="24" as="geometry" />
        </mxCell>
        <mxCell id="Z_htnbCvDEiTUhGgbJoy-317" value="int" style="shape=partialRectangle;top=0;right=0;bottom=0;part=1;resizeHeight=0;align=left;verticalAlign=top;spacingLeft=4;spacingRight=4;overflow=hidden;rotatable=0;points=[[0,0.5],[1,0.5]];portConstraint=eastwest;whiteSpace=wrap;swimlaneFillColor=#ffffff;whiteSpace=wrap;fontSize=13;fillColor=#000000;fillOpacity=5;whiteSpace=wrap;spacing=0;strokeColor=#5e5e5e;strokeOpacity=100;rounded=1;absoluteArcSize=1;arcSize=9;strokeWidth=2.3;" vertex="1" parent="Z_htnbCvDEiTUhGgbJoy-305">
          <mxGeometry x="194.1090374679219" y="109.5" width="165.8909625320781" height="24" as="geometry" />
        </mxCell>
        <mxCell id="Z_htnbCvDEiTUhGgbJoy-318" value="" style="strokeColor=none;part=1;resizeHeight=0;align=center;verticalAlign=top;spacingLeft=4;spacingRight=4;overflow=hidden;rotatable=0;points=[[0,0.5],[1,0.5]];portConstraint=eastwest;whiteSpace=wrap;swimlaneFillColor=#ffffff;whiteSpace=wrap;fontSize=13;fillColor=none;strokeOpacity=100;whiteSpace=wrap;spacing=0;rounded=1;absoluteArcSize=1;arcSize=9;strokeWidth=2.3;" vertex="1" parent="Z_htnbCvDEiTUhGgbJoy-305">
          <mxGeometry y="133.5" width="30" height="24" as="geometry" />
        </mxCell>
        <mxCell id="Z_htnbCvDEiTUhGgbJoy-319" value="date" style="shape=partialRectangle;top=0;right=0;bottom=0;part=1;resizeHeight=0;align=left;verticalAlign=top;spacingLeft=4;spacingRight=4;overflow=hidden;rotatable=0;points=[[0,0.5],[1,0.5]];portConstraint=eastwest;whiteSpace=wrap;swimlaneFillColor=#ffffff;whiteSpace=wrap;fontSize=13;fillColor=none;strokeOpacity=100;whiteSpace=wrap;spacing=0;strokeColor=#5e5e5e;rounded=1;absoluteArcSize=1;arcSize=9;strokeWidth=2.3;" vertex="1" parent="Z_htnbCvDEiTUhGgbJoy-305">
          <mxGeometry x="30" y="133.5" width="164.1090374679219" height="24" as="geometry" />
        </mxCell>
        <mxCell id="Z_htnbCvDEiTUhGgbJoy-320" value="date" style="shape=partialRectangle;top=0;right=0;bottom=0;part=1;resizeHeight=0;align=left;verticalAlign=top;spacingLeft=4;spacingRight=4;overflow=hidden;rotatable=0;points=[[0,0.5],[1,0.5]];portConstraint=eastwest;whiteSpace=wrap;swimlaneFillColor=#ffffff;whiteSpace=wrap;fontSize=13;fillColor=none;strokeOpacity=100;whiteSpace=wrap;spacing=0;strokeColor=#5e5e5e;rounded=1;absoluteArcSize=1;arcSize=9;strokeWidth=2.3;" vertex="1" parent="Z_htnbCvDEiTUhGgbJoy-305">
          <mxGeometry x="194.1090374679219" y="133.5" width="165.8909625320781" height="24" as="geometry" />
        </mxCell>
        <mxCell id="Z_htnbCvDEiTUhGgbJoy-321" value="    " style="strokeColor=none;part=1;resizeHeight=0;align=center;verticalAlign=top;spacingLeft=4;spacingRight=4;overflow=hidden;rotatable=0;points=[[0,0.5],[1,0.5]];portConstraint=eastwest;whiteSpace=wrap;swimlaneFillColor=#ffffff;whiteSpace=wrap;fontSize=13;fillColor=#000000;fillOpacity=5;whiteSpace=wrap;spacing=0;strokeOpacity=100;rounded=1;absoluteArcSize=1;arcSize=9;strokeWidth=2.3;" vertex="1" parent="Z_htnbCvDEiTUhGgbJoy-305">
          <mxGeometry y="157.5" width="30" height="24" as="geometry" />
        </mxCell>
        <mxCell id="Z_htnbCvDEiTUhGgbJoy-322" value="shipment_number" style="shape=partialRectangle;top=0;right=0;bottom=0;part=1;resizeHeight=0;align=left;verticalAlign=top;spacingLeft=4;spacingRight=4;overflow=hidden;rotatable=0;points=[[0,0.5],[1,0.5]];portConstraint=eastwest;whiteSpace=wrap;swimlaneFillColor=#ffffff;whiteSpace=wrap;fontSize=13;fillColor=#000000;fillOpacity=5;whiteSpace=wrap;spacing=0;strokeColor=#5e5e5e;strokeOpacity=100;rounded=1;absoluteArcSize=1;arcSize=9;strokeWidth=2.3;" vertex="1" parent="Z_htnbCvDEiTUhGgbJoy-305">
          <mxGeometry x="30" y="157.5" width="164.1090374679219" height="24" as="geometry" />
        </mxCell>
        <mxCell id="Z_htnbCvDEiTUhGgbJoy-323" value="varchar(50)" style="shape=partialRectangle;top=0;right=0;bottom=0;part=1;resizeHeight=0;align=left;verticalAlign=top;spacingLeft=4;spacingRight=4;overflow=hidden;rotatable=0;points=[[0,0.5],[1,0.5]];portConstraint=eastwest;whiteSpace=wrap;swimlaneFillColor=#ffffff;whiteSpace=wrap;fontSize=13;fillColor=#000000;fillOpacity=5;whiteSpace=wrap;spacing=0;strokeColor=#5e5e5e;strokeOpacity=100;rounded=1;absoluteArcSize=1;arcSize=9;strokeWidth=2.3;" vertex="1" parent="Z_htnbCvDEiTUhGgbJoy-305">
          <mxGeometry x="194.1090374679219" y="157.5" width="165.8909625320781" height="24" as="geometry" />
        </mxCell>
        <mxCell id="Z_htnbCvDEiTUhGgbJoy-324" value="Product(E)" style="html=1;overflow=block;blockSpacing=1;whiteSpace=wrap;swimlane;resizeParent=1;resizeParentMax=0;resizeLast=0;collapsible=0;marginBottom=0;fontStyle=0;swimlaneFillColor=#ffffff;startSize=30;whiteSpace=wrap;fontSize=16.7;fontFamily=Liberation Serif;fontColor=#333333;fillColor=#e0e0e0;whiteSpace=wrap;spacing=0;strokeColor=#5e5e5e;strokeOpacity=100;rounded=1;absoluteArcSize=1;arcSize=9;strokeWidth=2.3;" vertex="1" parent="1">
          <mxGeometry x="1440" y="178" width="420" height="226" as="geometry" />
        </mxCell>
        <mxCell id="Z_htnbCvDEiTUhGgbJoy-325" value="PK" style="strokeColor=none;part=1;resizeHeight=0;align=center;verticalAlign=top;spacingLeft=4;spacingRight=4;overflow=hidden;rotatable=0;points=[[0,0.5],[1,0.5]];portConstraint=eastwest;whiteSpace=wrap;swimlaneFillColor=#ffffff;whiteSpace=wrap;fontSize=16.7;fontFamily=Liberation Serif;fontColor=#333333;fillColor=none;strokeOpacity=100;whiteSpace=wrap;spacing=0;rounded=1;absoluteArcSize=1;arcSize=9;strokeWidth=2.3;" vertex="1" parent="Z_htnbCvDEiTUhGgbJoy-324">
          <mxGeometry y="30" width="30" height="27.75" as="geometry" />
        </mxCell>
        <mxCell id="Z_htnbCvDEiTUhGgbJoy-326" value="id" style="shape=partialRectangle;top=0;right=0;bottom=0;part=1;resizeHeight=0;align=left;verticalAlign=top;spacingLeft=4;spacingRight=4;overflow=hidden;rotatable=0;points=[[0,0.5],[1,0.5]];portConstraint=eastwest;whiteSpace=wrap;swimlaneFillColor=#ffffff;whiteSpace=wrap;fontSize=16.7;fontFamily=Liberation Serif;fontColor=#333333;fillColor=none;strokeOpacity=100;whiteSpace=wrap;spacing=0;strokeColor=#5e5e5e;rounded=1;absoluteArcSize=1;arcSize=9;strokeWidth=2.3;" vertex="1" parent="Z_htnbCvDEiTUhGgbJoy-324">
          <mxGeometry x="30" y="30" width="350" height="27.75" as="geometry" />
        </mxCell>
        <mxCell id="Z_htnbCvDEiTUhGgbJoy-327" value="serial" style="shape=partialRectangle;top=0;right=0;bottom=0;part=1;resizeHeight=0;align=left;verticalAlign=top;spacingLeft=4;spacingRight=4;overflow=hidden;rotatable=0;points=[[0,0.5],[1,0.5]];portConstraint=eastwest;whiteSpace=wrap;swimlaneFillColor=#ffffff;whiteSpace=wrap;fontSize=16.7;fontFamily=Liberation Serif;fontColor=#333333;fillColor=none;strokeOpacity=100;whiteSpace=wrap;spacing=0;strokeColor=#5e5e5e;rounded=1;absoluteArcSize=1;arcSize=9;strokeWidth=2.3;" vertex="1" parent="Z_htnbCvDEiTUhGgbJoy-324">
          <mxGeometry x="380" y="30" width="40" height="27.75" as="geometry" />
        </mxCell>
        <mxCell id="Z_htnbCvDEiTUhGgbJoy-328" value="FK" style="strokeColor=none;part=1;resizeHeight=0;align=center;verticalAlign=top;spacingLeft=4;spacingRight=4;overflow=hidden;rotatable=0;points=[[0,0.5],[1,0.5]];portConstraint=eastwest;whiteSpace=wrap;swimlaneFillColor=#ffffff;whiteSpace=wrap;fontSize=13;fillColor=#000000;fillOpacity=5;whiteSpace=wrap;spacing=0;strokeOpacity=100;rounded=1;absoluteArcSize=1;arcSize=9;strokeWidth=2.3;" vertex="1" parent="Z_htnbCvDEiTUhGgbJoy-324">
          <mxGeometry y="57.75" width="30" height="24" as="geometry" />
        </mxCell>
        <mxCell id="Z_htnbCvDEiTUhGgbJoy-329" value="category( RESTRICT )" style="shape=partialRectangle;top=0;right=0;bottom=0;part=1;resizeHeight=0;align=left;verticalAlign=top;spacingLeft=4;spacingRight=4;overflow=hidden;rotatable=0;points=[[0,0.5],[1,0.5]];portConstraint=eastwest;whiteSpace=wrap;swimlaneFillColor=#ffffff;whiteSpace=wrap;fontSize=13;fillColor=#000000;fillOpacity=5;whiteSpace=wrap;spacing=0;strokeColor=#5e5e5e;strokeOpacity=100;rounded=1;absoluteArcSize=1;arcSize=9;strokeWidth=2.3;" vertex="1" parent="Z_htnbCvDEiTUhGgbJoy-324">
          <mxGeometry x="30" y="57.75" width="350" height="24" as="geometry" />
        </mxCell>
        <mxCell id="Z_htnbCvDEiTUhGgbJoy-330" value="int" style="shape=partialRectangle;top=0;right=0;bottom=0;part=1;resizeHeight=0;align=left;verticalAlign=top;spacingLeft=4;spacingRight=4;overflow=hidden;rotatable=0;points=[[0,0.5],[1,0.5]];portConstraint=eastwest;whiteSpace=wrap;swimlaneFillColor=#ffffff;whiteSpace=wrap;fontSize=13;fillColor=#000000;fillOpacity=5;whiteSpace=wrap;spacing=0;strokeColor=#5e5e5e;strokeOpacity=100;rounded=1;absoluteArcSize=1;arcSize=9;strokeWidth=2.3;" vertex="1" parent="Z_htnbCvDEiTUhGgbJoy-324">
          <mxGeometry x="380" y="57.75" width="40" height="24" as="geometry" />
        </mxCell>
        <mxCell id="Z_htnbCvDEiTUhGgbJoy-334" value="" style="strokeColor=none;part=1;resizeHeight=0;align=center;verticalAlign=top;spacingLeft=4;spacingRight=4;overflow=hidden;rotatable=0;points=[[0,0.5],[1,0.5]];portConstraint=eastwest;whiteSpace=wrap;swimlaneFillColor=#ffffff;whiteSpace=wrap;fontSize=13;fillColor=#000000;fillOpacity=5;whiteSpace=wrap;spacing=0;strokeOpacity=100;rounded=1;absoluteArcSize=1;arcSize=9;strokeWidth=2.3;" vertex="1" parent="Z_htnbCvDEiTUhGgbJoy-324">
          <mxGeometry y="105.75" width="30" height="24" as="geometry" />
        </mxCell>
        <mxCell id="Z_htnbCvDEiTUhGgbJoy-335" value="name" style="shape=partialRectangle;top=0;right=0;bottom=0;part=1;resizeHeight=0;align=left;verticalAlign=top;spacingLeft=4;spacingRight=4;overflow=hidden;rotatable=0;points=[[0,0.5],[1,0.5]];portConstraint=eastwest;whiteSpace=wrap;swimlaneFillColor=#ffffff;whiteSpace=wrap;fontSize=13;fillColor=#000000;fillOpacity=5;whiteSpace=wrap;spacing=0;strokeColor=#5e5e5e;strokeOpacity=100;rounded=1;absoluteArcSize=1;arcSize=9;strokeWidth=2.3;" vertex="1" parent="Z_htnbCvDEiTUhGgbJoy-324">
          <mxGeometry x="30" y="105.75" width="350" height="24" as="geometry" />
        </mxCell>
        <mxCell id="Z_htnbCvDEiTUhGgbJoy-336" value="varchar(100)" style="shape=partialRectangle;top=0;right=0;bottom=0;part=1;resizeHeight=0;align=left;verticalAlign=top;spacingLeft=4;spacingRight=4;overflow=hidden;rotatable=0;points=[[0,0.5],[1,0.5]];portConstraint=eastwest;whiteSpace=wrap;swimlaneFillColor=#ffffff;whiteSpace=wrap;fontSize=13;fillColor=#000000;fillOpacity=5;whiteSpace=wrap;spacing=0;strokeColor=#5e5e5e;strokeOpacity=100;rounded=1;absoluteArcSize=1;arcSize=9;strokeWidth=2.3;" vertex="1" parent="Z_htnbCvDEiTUhGgbJoy-324">
          <mxGeometry x="380" y="105.75" width="40" height="24" as="geometry" />
        </mxCell>
        <mxCell id="Z_htnbCvDEiTUhGgbJoy-337" value="" style="strokeColor=none;part=1;resizeHeight=0;align=center;verticalAlign=top;spacingLeft=4;spacingRight=4;overflow=hidden;rotatable=0;points=[[0,0.5],[1,0.5]];portConstraint=eastwest;whiteSpace=wrap;swimlaneFillColor=#ffffff;whiteSpace=wrap;fontSize=13;fillColor=none;strokeOpacity=100;whiteSpace=wrap;spacing=0;rounded=1;absoluteArcSize=1;arcSize=9;strokeWidth=2.3;" vertex="1" parent="Z_htnbCvDEiTUhGgbJoy-324">
          <mxGeometry y="129.75" width="30" height="24" as="geometry" />
        </mxCell>
        <mxCell id="Z_htnbCvDEiTUhGgbJoy-338" value="price" style="shape=partialRectangle;top=0;right=0;bottom=0;part=1;resizeHeight=0;align=left;verticalAlign=top;spacingLeft=4;spacingRight=4;overflow=hidden;rotatable=0;points=[[0,0.5],[1,0.5]];portConstraint=eastwest;whiteSpace=wrap;swimlaneFillColor=#ffffff;whiteSpace=wrap;fontSize=13;fillColor=none;strokeOpacity=100;whiteSpace=wrap;spacing=0;strokeColor=#5e5e5e;rounded=1;absoluteArcSize=1;arcSize=9;strokeWidth=2.3;" vertex="1" parent="Z_htnbCvDEiTUhGgbJoy-324">
          <mxGeometry x="30" y="129.75" width="350" height="24" as="geometry" />
        </mxCell>
        <mxCell id="Z_htnbCvDEiTUhGgbJoy-339" value="int" style="shape=partialRectangle;top=0;right=0;bottom=0;part=1;resizeHeight=0;align=left;verticalAlign=top;spacingLeft=4;spacingRight=4;overflow=hidden;rotatable=0;points=[[0,0.5],[1,0.5]];portConstraint=eastwest;whiteSpace=wrap;swimlaneFillColor=#ffffff;whiteSpace=wrap;fontSize=13;fillColor=none;strokeOpacity=100;whiteSpace=wrap;spacing=0;strokeColor=#5e5e5e;rounded=1;absoluteArcSize=1;arcSize=9;strokeWidth=2.3;" vertex="1" parent="Z_htnbCvDEiTUhGgbJoy-324">
          <mxGeometry x="380" y="129.75" width="40" height="24" as="geometry" />
        </mxCell>
        <mxCell id="Z_htnbCvDEiTUhGgbJoy-340" value="" style="strokeColor=none;part=1;resizeHeight=0;align=center;verticalAlign=top;spacingLeft=4;spacingRight=4;overflow=hidden;rotatable=0;points=[[0,0.5],[1,0.5]];portConstraint=eastwest;whiteSpace=wrap;swimlaneFillColor=#ffffff;whiteSpace=wrap;fontSize=13;fillColor=#000000;fillOpacity=5;whiteSpace=wrap;spacing=0;strokeOpacity=100;rounded=1;absoluteArcSize=1;arcSize=9;strokeWidth=2.3;" vertex="1" parent="Z_htnbCvDEiTUhGgbJoy-324">
          <mxGeometry y="153.75" width="30" height="24" as="geometry" />
        </mxCell>
        <mxCell id="Z_htnbCvDEiTUhGgbJoy-341" value="description" style="shape=partialRectangle;top=0;right=0;bottom=0;part=1;resizeHeight=0;align=left;verticalAlign=top;spacingLeft=4;spacingRight=4;overflow=hidden;rotatable=0;points=[[0,0.5],[1,0.5]];portConstraint=eastwest;whiteSpace=wrap;swimlaneFillColor=#ffffff;whiteSpace=wrap;fontSize=13;fillColor=#000000;fillOpacity=5;whiteSpace=wrap;spacing=0;strokeColor=#5e5e5e;strokeOpacity=100;rounded=1;absoluteArcSize=1;arcSize=9;strokeWidth=2.3;" vertex="1" parent="Z_htnbCvDEiTUhGgbJoy-324">
          <mxGeometry x="30" y="153.75" width="350" height="24" as="geometry" />
        </mxCell>
        <mxCell id="Z_htnbCvDEiTUhGgbJoy-342" value="varchar(1000)" style="shape=partialRectangle;top=0;right=0;bottom=0;part=1;resizeHeight=0;align=left;verticalAlign=top;spacingLeft=4;spacingRight=4;overflow=hidden;rotatable=0;points=[[0,0.5],[1,0.5]];portConstraint=eastwest;whiteSpace=wrap;swimlaneFillColor=#ffffff;whiteSpace=wrap;fontSize=13;fillColor=#000000;fillOpacity=5;whiteSpace=wrap;spacing=0;strokeColor=#5e5e5e;strokeOpacity=100;rounded=1;absoluteArcSize=1;arcSize=9;strokeWidth=2.3;" vertex="1" parent="Z_htnbCvDEiTUhGgbJoy-324">
          <mxGeometry x="380" y="153.75" width="40" height="24" as="geometry" />
        </mxCell>
        <mxCell id="Z_htnbCvDEiTUhGgbJoy-343" value="" style="strokeColor=none;part=1;resizeHeight=0;align=center;verticalAlign=top;spacingLeft=4;spacingRight=4;overflow=hidden;rotatable=0;points=[[0,0.5],[1,0.5]];portConstraint=eastwest;whiteSpace=wrap;swimlaneFillColor=#ffffff;whiteSpace=wrap;fontSize=13;fillColor=none;strokeOpacity=100;whiteSpace=wrap;spacing=0;rounded=1;absoluteArcSize=1;arcSize=9;strokeWidth=2.3;" vertex="1" parent="Z_htnbCvDEiTUhGgbJoy-324">
          <mxGeometry y="177.75" width="30" height="24" as="geometry" />
        </mxCell>
        <mxCell id="Z_htnbCvDEiTUhGgbJoy-344" value="pia(상품제공고시)" style="shape=partialRectangle;top=0;right=0;bottom=0;part=1;resizeHeight=0;align=left;verticalAlign=top;spacingLeft=4;spacingRight=4;overflow=hidden;rotatable=0;points=[[0,0.5],[1,0.5]];portConstraint=eastwest;whiteSpace=wrap;swimlaneFillColor=#ffffff;whiteSpace=wrap;fontSize=13;fillColor=none;strokeOpacity=100;whiteSpace=wrap;spacing=0;strokeColor=#5e5e5e;rounded=1;absoluteArcSize=1;arcSize=9;strokeWidth=2.3;" vertex="1" parent="Z_htnbCvDEiTUhGgbJoy-324">
          <mxGeometry x="30" y="177.75" width="350" height="24" as="geometry" />
        </mxCell>
        <mxCell id="Z_htnbCvDEiTUhGgbJoy-345" value="varchar(1000)" style="shape=partialRectangle;top=0;right=0;bottom=0;part=1;resizeHeight=0;align=left;verticalAlign=top;spacingLeft=4;spacingRight=4;overflow=hidden;rotatable=0;points=[[0,0.5],[1,0.5]];portConstraint=eastwest;whiteSpace=wrap;swimlaneFillColor=#ffffff;whiteSpace=wrap;fontSize=13;fillColor=none;strokeOpacity=100;whiteSpace=wrap;spacing=0;strokeColor=#5e5e5e;rounded=1;absoluteArcSize=1;arcSize=9;strokeWidth=2.3;" vertex="1" parent="Z_htnbCvDEiTUhGgbJoy-324">
          <mxGeometry x="380" y="177.75" width="40" height="24" as="geometry" />
        </mxCell>
        <mxCell id="Z_htnbCvDEiTUhGgbJoy-346" value="" style="strokeColor=none;part=1;resizeHeight=0;align=center;verticalAlign=top;spacingLeft=4;spacingRight=4;overflow=hidden;rotatable=0;points=[[0,0.5],[1,0.5]];portConstraint=eastwest;whiteSpace=wrap;swimlaneFillColor=#ffffff;whiteSpace=wrap;fontSize=13;fillColor=#000000;fillOpacity=5;whiteSpace=wrap;spacing=0;strokeOpacity=100;rounded=1;absoluteArcSize=1;arcSize=9;strokeWidth=2.3;" vertex="1" parent="Z_htnbCvDEiTUhGgbJoy-324">
          <mxGeometry y="201.75" width="30" height="24" as="geometry" />
        </mxCell>
        <mxCell id="Z_htnbCvDEiTUhGgbJoy-347" value="soldout" style="shape=partialRectangle;top=0;right=0;bottom=0;part=1;resizeHeight=0;align=left;verticalAlign=top;spacingLeft=4;spacingRight=4;overflow=hidden;rotatable=0;points=[[0,0.5],[1,0.5]];portConstraint=eastwest;whiteSpace=wrap;swimlaneFillColor=#ffffff;whiteSpace=wrap;fontSize=13;fillColor=#000000;fillOpacity=5;whiteSpace=wrap;spacing=0;strokeColor=#5e5e5e;strokeOpacity=100;rounded=1;absoluteArcSize=1;arcSize=9;strokeWidth=2.3;" vertex="1" parent="Z_htnbCvDEiTUhGgbJoy-324">
          <mxGeometry x="30" y="201.75" width="350" height="24" as="geometry" />
        </mxCell>
        <mxCell id="Z_htnbCvDEiTUhGgbJoy-348" value="boolean" style="shape=partialRectangle;top=0;right=0;bottom=0;part=1;resizeHeight=0;align=left;verticalAlign=top;spacingLeft=4;spacingRight=4;overflow=hidden;rotatable=0;points=[[0,0.5],[1,0.5]];portConstraint=eastwest;whiteSpace=wrap;swimlaneFillColor=#ffffff;whiteSpace=wrap;fontSize=13;fillColor=#000000;fillOpacity=5;whiteSpace=wrap;spacing=0;strokeColor=#5e5e5e;strokeOpacity=100;rounded=1;absoluteArcSize=1;arcSize=9;strokeWidth=2.3;" vertex="1" parent="Z_htnbCvDEiTUhGgbJoy-324">
          <mxGeometry x="380" y="201.75" width="40" height="24" as="geometry" />
        </mxCell>
        <mxCell id="Z_htnbCvDEiTUhGgbJoy-349" value="images" style="shape=partialRectangle;top=0;right=0;bottom=0;part=1;resizeHeight=0;align=left;verticalAlign=top;spacingLeft=4;spacingRight=4;overflow=hidden;rotatable=0;points=[[0,0.5],[1,0.5]];portConstraint=eastwest;whiteSpace=wrap;swimlaneFillColor=#ffffff;whiteSpace=wrap;fontSize=13;fillColor=none;strokeOpacity=100;whiteSpace=wrap;spacing=0;strokeColor=#5e5e5e;rounded=1;absoluteArcSize=1;arcSize=9;strokeWidth=2.3;" vertex="1" parent="1">
          <mxGeometry x="348.37492488935936" y="980" width="180.52630804844352" height="15" as="geometry" />
        </mxCell>
        <mxCell id="Z_htnbCvDEiTUhGgbJoy-350" value="varchar(255)" style="shape=partialRectangle;top=0;right=0;bottom=0;part=1;resizeHeight=0;align=left;verticalAlign=top;spacingLeft=4;spacingRight=4;overflow=hidden;rotatable=0;points=[[0,0.5],[1,0.5]];portConstraint=eastwest;whiteSpace=wrap;swimlaneFillColor=#ffffff;whiteSpace=wrap;fontSize=13;fillColor=none;strokeOpacity=100;whiteSpace=wrap;spacing=0;strokeColor=#5e5e5e;rounded=1;absoluteArcSize=1;arcSize=9;strokeWidth=2.3;" vertex="1" parent="1">
          <mxGeometry x="528.9012329378029" y="980" width="102.09876706219711" height="15" as="geometry" />
        </mxCell>
        <mxCell id="Z_htnbCvDEiTUhGgbJoy-351" style="edgeStyle=orthogonalEdgeStyle;rounded=0;orthogonalLoop=1;jettySize=auto;html=1;entryX=0.5;entryY=1;entryDx=0;entryDy=0;startArrow=ERzeroToMany;startFill=1;" edge="1" parent="1" source="Z_htnbCvDEiTUhGgbJoy-352" target="Z_htnbCvDEiTUhGgbJoy-364">
          <mxGeometry relative="1" as="geometry" />
        </mxCell>
        <mxCell id="Z_htnbCvDEiTUhGgbJoy-352" value="Photo(E)" style="html=1;overflow=block;blockSpacing=1;whiteSpace=wrap;swimlane;resizeParent=1;resizeParentMax=0;resizeLast=0;collapsible=0;marginBottom=0;fontStyle=0;swimlaneFillColor=#ffffff;startSize=30;whiteSpace=wrap;fontSize=16.7;fontFamily=Liberation Serif;fillColor=#f8cecc;whiteSpace=wrap;spacing=0;strokeColor=#b85450;strokeOpacity=100;rounded=1;absoluteArcSize=1;arcSize=9;strokeWidth=2.3;" vertex="1" parent="1">
          <mxGeometry x="285" y="1280" width="345" height="140" as="geometry" />
        </mxCell>
        <mxCell id="Z_htnbCvDEiTUhGgbJoy-353" value="PK" style="strokeColor=none;part=1;resizeHeight=0;align=center;verticalAlign=top;spacingLeft=4;spacingRight=4;overflow=hidden;rotatable=0;points=[[0,0.5],[1,0.5]];portConstraint=eastwest;whiteSpace=wrap;swimlaneFillColor=#ffffff;whiteSpace=wrap;fontSize=16.7;fontFamily=Liberation Serif;fontColor=#333333;fillColor=none;strokeOpacity=100;whiteSpace=wrap;spacing=0;rounded=1;absoluteArcSize=1;arcSize=9;strokeWidth=2.3;" vertex="1" parent="Z_htnbCvDEiTUhGgbJoy-352">
          <mxGeometry y="30" width="62.37492488935936" height="27.75" as="geometry" />
        </mxCell>
        <mxCell id="Z_htnbCvDEiTUhGgbJoy-354" value="id" style="shape=partialRectangle;top=0;right=0;bottom=0;part=1;resizeHeight=0;align=left;verticalAlign=top;spacingLeft=4;spacingRight=4;overflow=hidden;rotatable=0;points=[[0,0.5],[1,0.5]];portConstraint=eastwest;whiteSpace=wrap;swimlaneFillColor=#ffffff;whiteSpace=wrap;fontSize=16.7;fontFamily=Liberation Serif;fontColor=#333333;fillColor=none;strokeOpacity=100;whiteSpace=wrap;spacing=0;strokeColor=#5e5e5e;rounded=1;absoluteArcSize=1;arcSize=9;strokeWidth=2.3;" vertex="1" parent="Z_htnbCvDEiTUhGgbJoy-352">
          <mxGeometry x="62.37492488935936" y="30" width="180.52630804844352" height="27.75" as="geometry" />
        </mxCell>
        <mxCell id="Z_htnbCvDEiTUhGgbJoy-355" value="serial" style="shape=partialRectangle;top=0;right=0;bottom=0;part=1;resizeHeight=0;align=left;verticalAlign=top;spacingLeft=4;spacingRight=4;overflow=hidden;rotatable=0;points=[[0,0.5],[1,0.5]];portConstraint=eastwest;whiteSpace=wrap;swimlaneFillColor=#ffffff;whiteSpace=wrap;fontSize=16.7;fontFamily=Liberation Serif;fontColor=#333333;fillColor=none;strokeOpacity=100;whiteSpace=wrap;spacing=0;strokeColor=#5e5e5e;rounded=1;absoluteArcSize=1;arcSize=9;strokeWidth=2.3;" vertex="1" parent="Z_htnbCvDEiTUhGgbJoy-352">
          <mxGeometry x="242.9012329378029" y="30" width="102.09876706219711" height="27.75" as="geometry" />
        </mxCell>
        <mxCell id="Z_htnbCvDEiTUhGgbJoy-356" value="FK" style="strokeColor=none;part=1;resizeHeight=0;align=center;verticalAlign=top;spacingLeft=4;spacingRight=4;overflow=hidden;rotatable=0;points=[[0,0.5],[1,0.5]];portConstraint=eastwest;whiteSpace=wrap;swimlaneFillColor=#ffffff;whiteSpace=wrap;fontSize=16.7;fontFamily=Liberation Serif;fontColor=#333333;fillColor=#000000;fillOpacity=5;whiteSpace=wrap;spacing=0;strokeOpacity=100;rounded=1;absoluteArcSize=1;arcSize=9;strokeWidth=2.3;" vertex="1" parent="Z_htnbCvDEiTUhGgbJoy-352">
          <mxGeometry y="57.75" width="62.37492488935936" height="27.75" as="geometry" />
        </mxCell>
        <mxCell id="Z_htnbCvDEiTUhGgbJoy-357" value="rid( CASCADE )" style="shape=partialRectangle;top=0;right=0;bottom=0;part=1;resizeHeight=0;align=left;verticalAlign=top;spacingLeft=4;spacingRight=4;overflow=hidden;rotatable=0;points=[[0,0.5],[1,0.5]];portConstraint=eastwest;whiteSpace=wrap;swimlaneFillColor=#ffffff;whiteSpace=wrap;fontSize=16.7;fontFamily=Liberation Serif;fontColor=#333333;fillColor=#000000;fillOpacity=5;whiteSpace=wrap;spacing=0;strokeColor=#5e5e5e;strokeOpacity=100;rounded=1;absoluteArcSize=1;arcSize=9;strokeWidth=2.3;" vertex="1" parent="Z_htnbCvDEiTUhGgbJoy-352">
          <mxGeometry x="62.37492488935936" y="57.75" width="180.52630804844352" height="27.75" as="geometry" />
        </mxCell>
        <mxCell id="Z_htnbCvDEiTUhGgbJoy-358" value="int" style="shape=partialRectangle;top=0;right=0;bottom=0;part=1;resizeHeight=0;align=left;verticalAlign=top;spacingLeft=4;spacingRight=4;overflow=hidden;rotatable=0;points=[[0,0.5],[1,0.5]];portConstraint=eastwest;whiteSpace=wrap;swimlaneFillColor=#ffffff;whiteSpace=wrap;fontSize=16.7;fontFamily=Liberation Serif;fontColor=#333333;fillColor=#000000;fillOpacity=5;whiteSpace=wrap;spacing=0;strokeColor=#5e5e5e;strokeOpacity=100;rounded=1;absoluteArcSize=1;arcSize=9;strokeWidth=2.3;" vertex="1" parent="Z_htnbCvDEiTUhGgbJoy-352">
          <mxGeometry x="242.9012329378029" y="57.75" width="102.09876706219711" height="27.75" as="geometry" />
        </mxCell>
        <mxCell id="Z_htnbCvDEiTUhGgbJoy-359" value="path" style="shape=partialRectangle;top=0;right=0;bottom=0;part=1;resizeHeight=0;align=left;verticalAlign=top;spacingLeft=4;spacingRight=4;overflow=hidden;rotatable=0;points=[[0,0.5],[1,0.5]];portConstraint=eastwest;whiteSpace=wrap;swimlaneFillColor=#ffffff;whiteSpace=wrap;fontSize=13;fillColor=none;strokeOpacity=100;whiteSpace=wrap;spacing=0;strokeColor=#5e5e5e;rounded=1;absoluteArcSize=1;arcSize=9;strokeWidth=2.3;" vertex="1" parent="Z_htnbCvDEiTUhGgbJoy-352">
          <mxGeometry x="62.37492488935936" y="85.5" width="180.52630804844352" height="24" as="geometry" />
        </mxCell>
        <mxCell id="Z_htnbCvDEiTUhGgbJoy-360" value="varchar(255)" style="shape=partialRectangle;top=0;right=0;bottom=0;part=1;resizeHeight=0;align=left;verticalAlign=top;spacingLeft=4;spacingRight=4;overflow=hidden;rotatable=0;points=[[0,0.5],[1,0.5]];portConstraint=eastwest;whiteSpace=wrap;swimlaneFillColor=#ffffff;whiteSpace=wrap;fontSize=13;fillColor=none;strokeOpacity=100;whiteSpace=wrap;spacing=0;strokeColor=#5e5e5e;rounded=1;absoluteArcSize=1;arcSize=9;strokeWidth=2.3;" vertex="1" parent="Z_htnbCvDEiTUhGgbJoy-352">
          <mxGeometry x="242.9012329378029" y="85.5" width="102.09876706219711" height="24" as="geometry" />
        </mxCell>
        <mxCell id="Z_htnbCvDEiTUhGgbJoy-361" value="" style="strokeColor=none;part=1;resizeHeight=0;align=center;verticalAlign=top;spacingLeft=4;spacingRight=4;overflow=hidden;rotatable=0;points=[[0,0.5],[1,0.5]];portConstraint=eastwest;whiteSpace=wrap;swimlaneFillColor=#ffffff;whiteSpace=wrap;fontSize=13;fillColor=#000000;fillOpacity=5;whiteSpace=wrap;spacing=0;strokeOpacity=100;rounded=1;absoluteArcSize=1;arcSize=9;strokeWidth=2.3;" vertex="1" parent="Z_htnbCvDEiTUhGgbJoy-352">
          <mxGeometry y="109.5" width="62.37492488935936" height="24" as="geometry" />
        </mxCell>
        <mxCell id="Z_htnbCvDEiTUhGgbJoy-362" value="" style="strokeColor=none;part=1;resizeHeight=0;align=center;verticalAlign=top;spacingLeft=4;spacingRight=4;overflow=hidden;rotatable=0;points=[[0,0.5],[1,0.5]];portConstraint=eastwest;whiteSpace=wrap;swimlaneFillColor=#ffffff;whiteSpace=wrap;fontSize=13;fillColor=none;strokeOpacity=100;whiteSpace=wrap;spacing=0;rounded=1;absoluteArcSize=1;arcSize=9;strokeWidth=2.3;" vertex="1" parent="Z_htnbCvDEiTUhGgbJoy-352">
          <mxGeometry y="133.5" width="62.37492488935936" height="15" as="geometry" />
        </mxCell>
        <mxCell id="Z_htnbCvDEiTUhGgbJoy-363" style="edgeStyle=orthogonalEdgeStyle;rounded=0;orthogonalLoop=1;jettySize=auto;html=1;entryX=0.5;entryY=1;entryDx=0;entryDy=0;startArrow=ERzeroToMany;startFill=1;" edge="1" parent="1" source="Z_htnbCvDEiTUhGgbJoy-364" target="Z_htnbCvDEiTUhGgbJoy-44">
          <mxGeometry relative="1" as="geometry" />
        </mxCell>
        <mxCell id="Z_htnbCvDEiTUhGgbJoy-364" value="Of" style="html=1;overflow=block;blockSpacing=1;whiteSpace=wrap;swimlane;childLayout=stackLayout;horizontal=1;horizontalStack=0;resizeParent=1;resizeParentMax=0;resizeLast=0;collapsible=0;fontStyle=0;marginBottom=0;swimlaneFillColor=#ffffff;startSize=30;whiteSpace=wrap;fontSize=13;whiteSpace=wrap;spacing=0;strokeColor=#6c8ebf;strokeOpacity=100;fillOpacity=100;rounded=1;absoluteArcSize=1;arcSize=9;fillColor=#dae8fc;strokeWidth=2.3;fillColor=#e0e0e0;" vertex="1" parent="1">
          <mxGeometry x="382.5" y="1110" width="150" height="54" as="geometry" />
        </mxCell>
        <mxCell id="Z_htnbCvDEiTUhGgbJoy-365" value="order" style="shape=partialRectangle;top=0;right=0;bottom=0;part=1;resizeHeight=0;align=left;verticalAlign=top;spacingLeft=4;spacingRight=4;overflow=hidden;rotatable=0;points=[[0,0.5],[1,0.5]];portConstraint=eastwest;whiteSpace=wrap;swimlaneFillColor=#ffffff;whiteSpace=wrap;fontSize=13;fillColor=none;strokeOpacity=100;whiteSpace=wrap;spacing=0;strokeColor=#5e5e5e;rounded=1;absoluteArcSize=1;arcSize=9;strokeWidth=2.3;" vertex="1" parent="1">
          <mxGeometry x="347.37492488935936" y="1390" width="180.52630804844352" height="24" as="geometry" />
        </mxCell>
        <mxCell id="Z_htnbCvDEiTUhGgbJoy-366" value="int" style="shape=partialRectangle;top=0;right=0;bottom=0;part=1;resizeHeight=0;align=left;verticalAlign=top;spacingLeft=4;spacingRight=4;overflow=hidden;rotatable=0;points=[[0,0.5],[1,0.5]];portConstraint=eastwest;whiteSpace=wrap;swimlaneFillColor=#ffffff;whiteSpace=wrap;fontSize=13;fillColor=none;strokeOpacity=100;whiteSpace=wrap;spacing=0;strokeColor=#5e5e5e;rounded=1;absoluteArcSize=1;arcSize=9;strokeWidth=2.3;" vertex="1" parent="1">
          <mxGeometry x="527.9012329378029" y="1390" width="102.09876706219711" height="24" as="geometry" />
        </mxCell>
        <mxCell id="Z_htnbCvDEiTUhGgbJoy-367" value="Review_Comment(E)" style="html=1;overflow=block;blockSpacing=1;whiteSpace=wrap;swimlane;resizeParent=1;resizeParentMax=0;resizeLast=0;collapsible=0;marginBottom=0;fontStyle=0;swimlaneFillColor=#ffffff;startSize=30;whiteSpace=wrap;fontSize=13;fillColor=#fff2cc;whiteSpace=wrap;spacing=0;strokeColor=#d6b656;strokeOpacity=100;fillOpacity=100;rounded=1;absoluteArcSize=1;arcSize=9;strokeWidth=2.3;" vertex="1" parent="1">
          <mxGeometry x="-219" y="1055" width="299" height="164" as="geometry" />
        </mxCell>
        <mxCell id="Z_htnbCvDEiTUhGgbJoy-368" value="PK" style="strokeColor=none;part=1;resizeHeight=0;align=center;verticalAlign=top;spacingLeft=4;spacingRight=4;overflow=hidden;rotatable=0;points=[[0,0.5],[1,0.5]];portConstraint=eastwest;whiteSpace=wrap;swimlaneFillColor=#ffffff;whiteSpace=wrap;fontSize=13;fillColor=none;strokeOpacity=100;fillOpacity=100;whiteSpace=wrap;spacing=0;rounded=1;absoluteArcSize=1;arcSize=9;strokeWidth=2.3;" vertex="1" parent="Z_htnbCvDEiTUhGgbJoy-367">
          <mxGeometry y="30" width="90.11899759282153" height="24" as="geometry" />
        </mxCell>
        <mxCell id="Z_htnbCvDEiTUhGgbJoy-369" value="id" style="shape=partialRectangle;top=0;right=0;bottom=0;part=1;resizeHeight=0;align=left;verticalAlign=top;spacingLeft=4;spacingRight=4;overflow=hidden;rotatable=0;points=[[0,0.5],[1,0.5]];portConstraint=eastwest;whiteSpace=wrap;swimlaneFillColor=#ffffff;whiteSpace=wrap;fontSize=13;fillColor=none;strokeOpacity=100;fillOpacity=100;whiteSpace=wrap;spacing=0;strokeColor=#5e5e5e;rounded=1;absoluteArcSize=1;arcSize=9;strokeWidth=2.3;" vertex="1" parent="Z_htnbCvDEiTUhGgbJoy-367">
          <mxGeometry x="90.11899759282153" y="30" width="113.9854425382299" height="24" as="geometry" />
        </mxCell>
        <mxCell id="Z_htnbCvDEiTUhGgbJoy-370" value="serial" style="shape=partialRectangle;top=0;right=0;bottom=0;part=1;resizeHeight=0;align=left;verticalAlign=top;spacingLeft=4;spacingRight=4;overflow=hidden;rotatable=0;points=[[0,0.5],[1,0.5]];portConstraint=eastwest;whiteSpace=wrap;swimlaneFillColor=#ffffff;whiteSpace=wrap;fontSize=13;fillColor=none;strokeOpacity=100;fillOpacity=100;whiteSpace=wrap;spacing=0;strokeColor=#5e5e5e;rounded=1;absoluteArcSize=1;arcSize=9;strokeWidth=2.3;" vertex="1" parent="Z_htnbCvDEiTUhGgbJoy-367">
          <mxGeometry x="204.10444013105143" y="30" width="95.89555986894857" height="24" as="geometry" />
        </mxCell>
        <mxCell id="Z_htnbCvDEiTUhGgbJoy-371" value="FK" style="strokeColor=none;part=1;resizeHeight=0;align=center;verticalAlign=top;spacingLeft=4;spacingRight=4;overflow=hidden;rotatable=0;points=[[0,0.5],[1,0.5]];portConstraint=eastwest;whiteSpace=wrap;swimlaneFillColor=#ffffff;whiteSpace=wrap;fontSize=13;fillColor=#000000;fillOpacity=5;whiteSpace=wrap;spacing=0;strokeOpacity=100;rounded=1;absoluteArcSize=1;arcSize=9;strokeWidth=2.3;" vertex="1" parent="Z_htnbCvDEiTUhGgbJoy-367">
          <mxGeometry y="54" width="90.11899759282153" height="24" as="geometry" />
        </mxCell>
        <mxCell id="Z_htnbCvDEiTUhGgbJoy-372" value="rid( CASCADE )" style="shape=partialRectangle;top=0;right=0;bottom=0;part=1;resizeHeight=0;align=left;verticalAlign=top;spacingLeft=4;spacingRight=4;overflow=hidden;rotatable=0;points=[[0,0.5],[1,0.5]];portConstraint=eastwest;whiteSpace=wrap;swimlaneFillColor=#ffffff;whiteSpace=wrap;fontSize=13;fillColor=#000000;fillOpacity=5;whiteSpace=wrap;spacing=0;strokeColor=#5e5e5e;strokeOpacity=100;rounded=1;absoluteArcSize=1;arcSize=9;strokeWidth=2.3;" vertex="1" parent="Z_htnbCvDEiTUhGgbJoy-367">
          <mxGeometry x="90.11899759282153" y="54" width="113.9854425382299" height="24" as="geometry" />
        </mxCell>
        <mxCell id="Z_htnbCvDEiTUhGgbJoy-373" value="int" style="shape=partialRectangle;top=0;right=0;bottom=0;part=1;resizeHeight=0;align=left;verticalAlign=top;spacingLeft=4;spacingRight=4;overflow=hidden;rotatable=0;points=[[0,0.5],[1,0.5]];portConstraint=eastwest;whiteSpace=wrap;swimlaneFillColor=#ffffff;whiteSpace=wrap;fontSize=13;fillColor=#000000;fillOpacity=5;whiteSpace=wrap;spacing=0;strokeColor=#5e5e5e;strokeOpacity=100;rounded=1;absoluteArcSize=1;arcSize=9;strokeWidth=2.3;" vertex="1" parent="Z_htnbCvDEiTUhGgbJoy-367">
          <mxGeometry x="204.10444013105143" y="54" width="95.89555986894857" height="24" as="geometry" />
        </mxCell>
        <mxCell id="Z_htnbCvDEiTUhGgbJoy-374" value="FK" style="strokeColor=none;part=1;resizeHeight=0;align=center;verticalAlign=top;spacingLeft=4;spacingRight=4;overflow=hidden;rotatable=0;points=[[0,0.5],[1,0.5]];portConstraint=eastwest;whiteSpace=wrap;swimlaneFillColor=#ffffff;whiteSpace=wrap;fontSize=13;fillColor=none;strokeOpacity=100;fillOpacity=100;whiteSpace=wrap;spacing=0;rounded=1;absoluteArcSize=1;arcSize=9;strokeWidth=2.3;" vertex="1" parent="Z_htnbCvDEiTUhGgbJoy-367">
          <mxGeometry y="78" width="90.11899759282153" height="24" as="geometry" />
        </mxCell>
        <mxCell id="Z_htnbCvDEiTUhGgbJoy-375" value="cid( CASCADE )" style="shape=partialRectangle;top=0;right=0;bottom=0;part=1;resizeHeight=0;align=left;verticalAlign=top;spacingLeft=4;spacingRight=4;overflow=hidden;rotatable=0;points=[[0,0.5],[1,0.5]];portConstraint=eastwest;whiteSpace=wrap;swimlaneFillColor=#ffffff;whiteSpace=wrap;fontSize=13;fillColor=none;strokeOpacity=100;fillOpacity=100;whiteSpace=wrap;spacing=0;strokeColor=#5e5e5e;rounded=1;absoluteArcSize=1;arcSize=9;strokeWidth=2.3;" vertex="1" parent="Z_htnbCvDEiTUhGgbJoy-367">
          <mxGeometry x="90.11899759282153" y="78" width="113.9854425382299" height="24" as="geometry" />
        </mxCell>
        <mxCell id="Z_htnbCvDEiTUhGgbJoy-376" value="int" style="shape=partialRectangle;top=0;right=0;bottom=0;part=1;resizeHeight=0;align=left;verticalAlign=top;spacingLeft=4;spacingRight=4;overflow=hidden;rotatable=0;points=[[0,0.5],[1,0.5]];portConstraint=eastwest;whiteSpace=wrap;swimlaneFillColor=#ffffff;whiteSpace=wrap;fontSize=13;fillColor=none;strokeOpacity=100;fillOpacity=100;whiteSpace=wrap;spacing=0;strokeColor=#5e5e5e;rounded=1;absoluteArcSize=1;arcSize=9;strokeWidth=2.3;" vertex="1" parent="Z_htnbCvDEiTUhGgbJoy-367">
          <mxGeometry x="204.10444013105143" y="78" width="95.89555986894857" height="24" as="geometry" />
        </mxCell>
        <mxCell id="Z_htnbCvDEiTUhGgbJoy-377" value="" style="strokeColor=none;part=1;resizeHeight=0;align=center;verticalAlign=top;spacingLeft=4;spacingRight=4;overflow=hidden;rotatable=0;points=[[0,0.5],[1,0.5]];portConstraint=eastwest;whiteSpace=wrap;swimlaneFillColor=#ffffff;whiteSpace=wrap;fontSize=13;fillColor=#000000;fillOpacity=5;whiteSpace=wrap;spacing=0;strokeOpacity=100;rounded=1;absoluteArcSize=1;arcSize=9;strokeWidth=2.3;" vertex="1" parent="Z_htnbCvDEiTUhGgbJoy-367">
          <mxGeometry y="102" width="90.11899759282153" height="24" as="geometry" />
        </mxCell>
        <mxCell id="Z_htnbCvDEiTUhGgbJoy-378" value="written_date" style="shape=partialRectangle;top=0;right=0;bottom=0;part=1;resizeHeight=0;align=left;verticalAlign=top;spacingLeft=4;spacingRight=4;overflow=hidden;rotatable=0;points=[[0,0.5],[1,0.5]];portConstraint=eastwest;whiteSpace=wrap;swimlaneFillColor=#ffffff;whiteSpace=wrap;fontSize=13;fillColor=#000000;fillOpacity=5;whiteSpace=wrap;spacing=0;strokeColor=#5e5e5e;strokeOpacity=100;rounded=1;absoluteArcSize=1;arcSize=9;strokeWidth=2.3;" vertex="1" parent="Z_htnbCvDEiTUhGgbJoy-367">
          <mxGeometry x="90.11899759282153" y="102" width="113.9854425382299" height="24" as="geometry" />
        </mxCell>
        <mxCell id="Z_htnbCvDEiTUhGgbJoy-379" value="date" style="shape=partialRectangle;top=0;right=0;bottom=0;part=1;resizeHeight=0;align=left;verticalAlign=top;spacingLeft=4;spacingRight=4;overflow=hidden;rotatable=0;points=[[0,0.5],[1,0.5]];portConstraint=eastwest;whiteSpace=wrap;swimlaneFillColor=#ffffff;whiteSpace=wrap;fontSize=13;fillColor=#000000;fillOpacity=5;whiteSpace=wrap;spacing=0;strokeColor=#5e5e5e;strokeOpacity=100;rounded=1;absoluteArcSize=1;arcSize=9;strokeWidth=2.3;" vertex="1" parent="Z_htnbCvDEiTUhGgbJoy-367">
          <mxGeometry x="204.10444013105143" y="102" width="95.89555986894857" height="24" as="geometry" />
        </mxCell>
        <mxCell id="Z_htnbCvDEiTUhGgbJoy-380" value="" style="strokeColor=none;part=1;resizeHeight=0;align=center;verticalAlign=top;spacingLeft=4;spacingRight=4;overflow=hidden;rotatable=0;points=[[0,0.5],[1,0.5]];portConstraint=eastwest;whiteSpace=wrap;swimlaneFillColor=#ffffff;whiteSpace=wrap;fontSize=13;fillColor=none;strokeOpacity=100;fillOpacity=100;whiteSpace=wrap;spacing=0;rounded=1;absoluteArcSize=1;arcSize=9;strokeWidth=2.3;" vertex="1" parent="Z_htnbCvDEiTUhGgbJoy-367">
          <mxGeometry y="126" width="90.11899759282153" height="24" as="geometry" />
        </mxCell>
        <mxCell id="Z_htnbCvDEiTUhGgbJoy-381" value="contents" style="shape=partialRectangle;top=0;right=0;bottom=0;part=1;resizeHeight=0;align=left;verticalAlign=top;spacingLeft=4;spacingRight=4;overflow=hidden;rotatable=0;points=[[0,0.5],[1,0.5]];portConstraint=eastwest;whiteSpace=wrap;swimlaneFillColor=#ffffff;whiteSpace=wrap;fontSize=13;fillColor=none;strokeOpacity=100;fillOpacity=100;whiteSpace=wrap;spacing=0;strokeColor=#5e5e5e;rounded=1;absoluteArcSize=1;arcSize=9;strokeWidth=2.3;" vertex="1" parent="Z_htnbCvDEiTUhGgbJoy-367">
          <mxGeometry x="90.11899759282153" y="126" width="113.9854425382299" height="24" as="geometry" />
        </mxCell>
        <mxCell id="Z_htnbCvDEiTUhGgbJoy-382" value="varchar(200)" style="shape=partialRectangle;top=0;right=0;bottom=0;part=1;resizeHeight=0;align=left;verticalAlign=top;spacingLeft=4;spacingRight=4;overflow=hidden;rotatable=0;points=[[0,0.5],[1,0.5]];portConstraint=eastwest;whiteSpace=wrap;swimlaneFillColor=#ffffff;whiteSpace=wrap;fontSize=13;fillColor=none;strokeOpacity=100;fillOpacity=100;whiteSpace=wrap;spacing=0;strokeColor=#5e5e5e;rounded=1;absoluteArcSize=1;arcSize=9;strokeWidth=2.3;" vertex="1" parent="Z_htnbCvDEiTUhGgbJoy-367">
          <mxGeometry x="204.10444013105143" y="126" width="95.89555986894857" height="24" as="geometry" />
        </mxCell>
        <mxCell id="Z_htnbCvDEiTUhGgbJoy-383" value="update_date" style="shape=partialRectangle;top=0;right=0;bottom=0;part=1;resizeHeight=0;align=left;verticalAlign=top;spacingLeft=4;spacingRight=4;overflow=hidden;rotatable=0;points=[[0,0.5],[1,0.5]];portConstraint=eastwest;whiteSpace=wrap;swimlaneFillColor=#ffffff;whiteSpace=wrap;fontSize=13;fillColor=none;strokeOpacity=100;whiteSpace=wrap;spacing=0;strokeColor=#333333;rounded=1;absoluteArcSize=1;arcSize=9;strokeWidth=2.3;" vertex="1" parent="Z_htnbCvDEiTUhGgbJoy-367">
          <mxGeometry x="88.99723132799005" y="140" width="183.38399134506062" height="24" as="geometry" />
        </mxCell>
        <mxCell id="Z_htnbCvDEiTUhGgbJoy-384" value="date" style="shape=partialRectangle;top=0;right=0;bottom=0;part=1;resizeHeight=0;align=left;verticalAlign=top;spacingLeft=4;spacingRight=4;overflow=hidden;rotatable=0;points=[[0,0.5],[1,0.5]];portConstraint=eastwest;whiteSpace=wrap;swimlaneFillColor=#ffffff;whiteSpace=wrap;fontSize=13;fillColor=none;strokeOpacity=100;whiteSpace=wrap;spacing=0;strokeColor=#333333;rounded=1;absoluteArcSize=1;arcSize=9;strokeWidth=2.3;" vertex="1" parent="Z_htnbCvDEiTUhGgbJoy-367">
          <mxGeometry x="268.2912226730507" y="140" width="100.7087773269493" height="24" as="geometry" />
        </mxCell>
        <mxCell id="Z_htnbCvDEiTUhGgbJoy-385" value="Write" style="html=1;overflow=block;blockSpacing=1;whiteSpace=wrap;swimlane;childLayout=stackLayout;horizontal=1;horizontalStack=0;resizeParent=1;resizeParentMax=0;resizeLast=0;collapsible=0;fontStyle=0;marginBottom=0;swimlaneFillColor=#ffffff;startSize=30;whiteSpace=wrap;fontSize=13;whiteSpace=wrap;spacing=0;strokeColor=#6c8ebf;strokeOpacity=100;fillOpacity=100;rounded=1;absoluteArcSize=1;arcSize=9;fillColor=#dae8fc;strokeWidth=2.3;fillColor=#e0e0e0;" vertex="1" parent="1">
          <mxGeometry x="-358.96000000000004" y="956" width="150" height="54" as="geometry" />
        </mxCell>
        <mxCell id="Z_htnbCvDEiTUhGgbJoy-386" value="Of" style="html=1;overflow=block;blockSpacing=1;whiteSpace=wrap;swimlane;childLayout=stackLayout;horizontal=1;horizontalStack=0;resizeParent=1;resizeParentMax=0;resizeLast=0;collapsible=0;fontStyle=0;marginBottom=0;swimlaneFillColor=#ffffff;startSize=30;whiteSpace=wrap;fontSize=13;whiteSpace=wrap;spacing=0;strokeColor=#6c8ebf;strokeOpacity=100;fillOpacity=100;rounded=1;absoluteArcSize=1;arcSize=9;fillColor=#dae8fc;strokeWidth=2.3;fillColor=#e0e0e0;" vertex="1" parent="1">
          <mxGeometry x="69.99999999999994" y="956" width="150" height="54" as="geometry" />
        </mxCell>
      </root>
    </mxGraphModel>
  </diagram>
</mxfile>
